*
*
G04 PADS VX.2 Build Number: 5060570 generated Gerber (RS-274-X) file*
G04 PC Version=2.1*
*
%IN "NumberKing_rev7.pcb"*%
*
%MOIN*%
*
%FSLAX35Y35*%
*
*
*
*
G04 PC Standard Apertures*
*
*
G04 Thermal Relief Aperture macro.*
%AMTER*
1,1,$1,0,0*
1,0,$1-$2,0,0*
21,0,$3,$4,0,0,45*
21,0,$3,$4,0,0,135*
%
*
*
G04 Annular Aperture macro.*
%AMANN*
1,1,$1,0,0*
1,0,$2,0,0*
%
*
*
G04 Odd Aperture macro.*
%AMODD*
1,1,$1,0,0*
1,0,$1-0.005,0,0*
%
*
*
G04 PC Custom Aperture Macros*
*
*
*
*
*
*
G04 PC Aperture Table*
*
%ADD010C,0.001*%
%ADD028C,0.01*%
%ADD037C,0.00787*%
%ADD038C,0.00472*%
%ADD039C,0.0015*%
*
*
*
*
G04 PC Circuitry*
G04 Layer Name NumberKing_rev7.pcb - circuitry*
%LPD*%
*
*
G04 PC Custom Flashes*
G04 Layer Name NumberKing_rev7.pcb - flashes*
%LPD*%
*
*
G04 PC Circuitry*
G04 Layer Name NumberKing_rev7.pcb - circuitry*
%LPD*%
*
G54D10*
G54D28*
G01X393700Y419303D02*
G75*
G03X419303Y393700I26969J1366D01*
G01X419291Y393701D02*
X813010D01*
X813005D02*
G03X838601Y419297I177J25419D01*
G01Y419291D02*
Y832710D01*
Y832688D02*
G03X813033Y858301I-25479J134D01*
G01X813010D02*
X496850D01*
Y830709*
X444178*
Y858268*
X419291Y858301*
X419270Y858300D02*
G03X393699Y832685I1464J-27032D01*
G01X393701Y832710D02*
Y419291D01*
G54D37*
X448819Y418110D02*
X446850Y416142D01*
X450787*
X448819Y418110*
X443898Y422047D02*
X473425D01*
Y442913*
X443898*
Y422047*
X527559Y418110D02*
X525591Y416142D01*
X529528*
X527559Y418110*
X522638Y422047D02*
X552165D01*
Y442913*
X522638*
Y422047*
X606299Y418110D02*
X604331Y416142D01*
X608268*
X606299Y418110*
X601378Y422047D02*
X630906D01*
Y442913*
X601378*
Y422047*
X685039Y418110D02*
X683071Y416142D01*
X687008*
X685039Y418110*
X680118Y422047D02*
X709646D01*
Y442913*
X680118*
Y422047*
X763780Y418110D02*
X761811Y416142D01*
X765748*
X763780Y418110*
X758858Y422047D02*
X788386D01*
Y442913*
X758858*
Y422047*
X762598Y839724D02*
Y844843D01*
X759646*
Y859134*
X732480*
Y844843*
X729528*
Y839724*
X737402*
Y844843*
X754724*
Y839724*
X762598*
X751181Y835787D02*
X752362Y834606D01*
X750000*
X751181Y835787*
X409291Y799291D02*
X429291D01*
Y789291*
X409291*
Y799291*
X413307Y788386D02*
X411339Y786417D01*
X415276*
X413307Y788386*
X702256Y704016D02*
Y784016D01*
X712256*
Y704016*
X702256*
X713161Y778031D02*
X715130Y776063D01*
Y780000*
X713161Y778031*
X773504Y485787D02*
X813504D01*
Y465787*
X773504*
Y485787*
X777520Y464882D02*
X775551Y462913D01*
X779488*
X777520Y464882*
X482283Y778740D02*
X435039D01*
Y731496*
X482283*
Y778740*
X465945Y747835D02*
X451378D01*
Y762402*
X465945*
Y747835*
X472441Y755118D02*
G03X472441I-13780J0D01*
G01X438976Y735433D02*
X478346D01*
Y774803*
X438976*
Y735433*
X444882Y739370D02*
G03X444882I-1969J0D01*
G01X476378D02*
G03X476378I-1969J0D01*
G01X444882Y770866D02*
G03X444882I-1969J0D01*
G01X476378D02*
G03X476378I-1969J0D01*
G01X797244Y778740D02*
X750000D01*
Y731496*
X797244*
Y778740*
X780906Y747835D02*
X766339D01*
Y762402*
X780906*
Y747835*
X787402Y755118D02*
G03X787402I-13780J0D01*
G01X753937Y735433D02*
X793307D01*
Y774803*
X753937*
Y735433*
X759843Y739370D02*
G03X759843I-1969J0D01*
G01X791339D02*
G03X791339I-1969J0D01*
G01X759843Y770866D02*
G03X759843I-1969J0D01*
G01X791339D02*
G03X791339I-1969J0D01*
G01X825591Y696118D02*
Y723677D01*
X801969*
Y696118*
X825591*
X834646Y703992D02*
Y715803D01*
X825591*
Y703992*
X834646*
X827559Y700055D02*
X829528Y698087D01*
Y702024*
X827559Y700055*
X825591Y649094D02*
Y676654D01*
X801969*
Y649094*
X825591*
X834646Y656969D02*
Y668780D01*
X825591*
Y656969*
X834646*
X827559Y653031D02*
X829528Y651063D01*
Y655000*
X827559Y653031*
X436811Y584449D02*
X449016D01*
Y589961*
X436811*
Y584449*
X439567Y583268D02*
X436811Y580512D01*
X442323*
X439567Y583268*
X783268Y584449D02*
X795472D01*
Y589961*
X783268*
Y584449*
X786024Y583268D02*
X783268Y580512D01*
X788780*
X786024Y583268*
X468307Y588386D02*
X480512D01*
Y593898*
X468307*
Y588386*
X471063Y587205D02*
X468307Y584449D01*
X473819*
X471063Y587205*
X499803Y592323D02*
X512008D01*
Y597835*
X499803*
Y592323*
X502559Y591142D02*
X499803Y588386D01*
X505315*
X502559Y591142*
X531299Y588386D02*
X543504D01*
Y593898*
X531299*
Y588386*
X534055Y587205D02*
X531299Y584449D01*
X536811*
X534055Y587205*
X562795Y584449D02*
X575000D01*
Y589961*
X562795*
Y584449*
X565551Y583268D02*
X562795Y580512D01*
X568307*
X565551Y583268*
X657283Y584449D02*
X669488D01*
Y589961*
X657283*
Y584449*
X660039Y583268D02*
X657283Y580512D01*
X662795*
X660039Y583268*
X688780Y588386D02*
X700984D01*
Y593898*
X688780*
Y588386*
X691535Y587205D02*
X688780Y584449D01*
X694291*
X691535Y587205*
X720276Y592323D02*
X732480D01*
Y597835*
X720276*
Y592323*
X723031Y591142D02*
X720276Y588386D01*
X725787*
X723031Y591142*
X751772Y588386D02*
X763976D01*
Y593898*
X751772*
Y588386*
X754528Y587205D02*
X751772Y584449D01*
X757283*
X754528Y587205*
X452559Y408661D02*
X464764D01*
Y414173*
X452559*
Y408661*
X455315Y407480D02*
X452559Y404724D01*
X458071*
X455315Y407480*
X531299Y408661D02*
X543504D01*
Y414173*
X531299*
Y408661*
X534055Y407480D02*
X531299Y404724D01*
X536811*
X534055Y407480*
X610039Y408661D02*
X622244D01*
Y414173*
X610039*
Y408661*
X612795Y407480D02*
X610039Y404724D01*
X615551*
X612795Y407480*
X688780Y408661D02*
X700984D01*
Y414173*
X688780*
Y408661*
X691535Y407480D02*
X688780Y404724D01*
X694291*
X691535Y407480*
X767520Y408661D02*
X779724D01*
Y414173*
X767520*
Y408661*
X770276Y407480D02*
X767520Y404724D01*
X773031*
X770276Y407480*
X578543Y837402D02*
X590748D01*
Y842913*
X578543*
Y837402*
X581299Y836220D02*
X578543Y833465D01*
X584055*
X581299Y836220*
X610039Y837402D02*
X622244D01*
Y842913*
X610039*
Y837402*
X612795Y836220D02*
X610039Y833465D01*
X615551*
X612795Y836220*
X641535Y837402D02*
X653740D01*
Y842913*
X641535*
Y837402*
X644291Y836220D02*
X641535Y833465D01*
X647047*
X644291Y836220*
X451772Y812902D02*
Y833465D01*
X470472Y812902D02*
Y833465D01*
X489173Y812902D02*
Y833465D01*
X465354D02*
X475197D01*
Y838583*
X465354*
Y833465*
X446850D02*
X456693D01*
Y838583*
X446850*
Y833465*
X484252D02*
X494094D01*
Y838583*
X484252*
Y833465*
X444882Y838583D02*
X496063D01*
Y872835*
X444882*
Y838583*
X437008Y872835D02*
X503937D01*
Y878740*
X437008*
Y872835*
X444764Y878661D02*
X496063Y885039D01*
Y878740*
X691339Y850197D02*
X671654D01*
Y842323*
X691339*
Y850197*
X686496Y851260D02*
X691496Y856260D01*
X681496*
X686496Y851260*
X529528Y559055D02*
X482283D01*
Y511811*
X529528*
Y559055*
X513189Y528150D02*
X498622D01*
Y542717*
X513189*
Y528150*
X519685Y535433D02*
G03X519685I-13779J0D01*
G01X486220Y515748D02*
X525591D01*
Y555118*
X486220*
Y515748*
X492126Y519685D02*
G03X492126I-1969J0D01*
G01X523622D02*
G03X523622I-1968J0D01*
G01X492126Y551181D02*
G03X492126I-1969J0D01*
G01X523622D02*
G03X523622I-1968J0D01*
G01X750000Y559055D02*
X702756D01*
Y511811*
X750000*
Y559055*
X733661Y528150D02*
X719094D01*
Y542717*
X733661*
Y528150*
X740157Y535433D02*
G03X740157I-13779J0D01*
G01X706693Y515748D02*
X746063D01*
Y555118*
X706693*
Y515748*
X712598Y519685D02*
G03X712598I-1968J0D01*
G01X744094D02*
G03X744094I-1968J0D01*
G01X712598Y551181D02*
G03X712598I-1968J0D01*
G01X744094D02*
G03X744094I-1968J0D01*
G54D38*
G01X432677Y712008D02*
Y707874D01*
X437402*
Y712008*
X432677Y715157D02*
Y719291D01*
X437402*
Y715157*
X753740Y716142D02*
X757874D01*
Y720866*
X753740*
X750591Y716142D02*
X746457D01*
Y720866*
X750591*
X764567Y816339D02*
Y820472D01*
X759843*
Y816339*
X764567Y813189D02*
Y809055D01*
X759843*
Y813189*
X678740Y758661D02*
X682874D01*
Y763386*
X678740*
X675591Y758661D02*
X671457D01*
Y763386*
X675591*
X682874Y727953D02*
X687008D01*
Y732677*
X682874*
X679724Y727953D02*
X675591D01*
Y732677*
X679724*
X557283Y698228D02*
Y702362D01*
X552559*
Y698228*
X557283Y695079D02*
Y690945D01*
X552559*
Y695079*
X821260Y744488D02*
X817126D01*
Y739764*
X821260*
X824409Y744488D02*
X828543D01*
Y739764*
X824409*
X485315Y495354D02*
X489449D01*
Y500079*
X485315*
X482165Y495354D02*
X478031D01*
Y500079*
X482165*
X825000Y684252D02*
X820866D01*
Y679528*
X825000*
X828150Y684252D02*
X832283D01*
Y679528*
X828150*
X804528Y757283D02*
X800394D01*
Y752559*
X804528*
X807677Y757283D02*
X811811D01*
Y752559*
X807677*
X704488Y494055D02*
X708622D01*
Y498780*
X704488*
X701339Y494055D02*
X697205D01*
Y498780*
X701339*
X489685Y502598D02*
X478268D01*
Y507323*
X489685*
Y502598*
X720669Y605315D02*
X732087D01*
Y600591*
X720669*
Y605315*
X752165Y601378D02*
X763583D01*
Y596654*
X752165*
Y601378*
X783661Y597441D02*
X795079D01*
Y592717*
X783661*
Y597441*
X448622Y409055D02*
X437205D01*
Y413780*
X448622*
Y409055*
X527362D02*
X515945D01*
Y413780*
X527362*
Y409055*
X606102D02*
X594685D01*
Y413780*
X606102*
Y409055*
X480118D02*
X468701D01*
Y413780*
X480118*
Y409055*
X684843D02*
X673425D01*
Y413780*
X684843*
Y409055*
X558858D02*
X547441D01*
Y413780*
X558858*
Y409055*
X468701Y601378D02*
X480118D01*
Y596654*
X468701*
Y601378*
X763583Y409055D02*
X752165D01*
Y413780*
X763583*
Y409055*
X637598D02*
X626181D01*
Y413780*
X637598*
Y409055*
X578937Y850394D02*
X590354D01*
Y845669*
X578937*
Y850394*
X716339Y409055D02*
X704921D01*
Y413780*
X716339*
Y409055*
X653346Y845669D02*
X641929D01*
Y850394*
X653346*
Y845669*
X795079Y409055D02*
X783661D01*
Y413780*
X795079*
Y409055*
X808465Y787205D02*
Y775787D01*
X803740*
Y787205*
X808465*
X708858Y500315D02*
X697441D01*
Y505039*
X708858*
Y500315*
X610433Y850394D02*
X621850D01*
Y845669*
X610433*
Y850394*
X443701Y721063D02*
X432283D01*
Y725787*
X443701*
Y721063*
X757874Y723228D02*
X746457D01*
Y727953*
X757874*
Y723228*
X673425Y776969D02*
X662008D01*
Y781693*
X673425*
Y776969*
X786417Y450000D02*
Y461417D01*
X791142*
Y450000*
X786417*
X777559D02*
Y461417D01*
X782283*
Y450000*
X777559*
X789567Y493504D02*
X800984D01*
Y488780*
X789567*
Y493504*
X437205Y597441D02*
X448622D01*
Y592717*
X437205*
Y597441*
X816890Y736378D02*
X828307D01*
Y731654*
X816890*
Y736378*
X820984Y691417D02*
X832402D01*
Y686693*
X820984*
Y691417*
X750591Y809252D02*
Y820669D01*
X755315*
Y809252*
X750591*
X741142Y809291D02*
Y820709D01*
X745866*
Y809291*
X741142*
X785039Y722047D02*
X773622D01*
Y726772*
X785039*
Y722047*
X500197Y605315D02*
X511614D01*
Y600591*
X500197*
Y605315*
X531693Y601378D02*
X543110D01*
Y596654*
X531693*
Y601378*
X563189Y597441D02*
X574606D01*
Y592717*
X563189*
Y597441*
X657677D02*
X669094D01*
Y592717*
X657677*
Y597441*
X689173Y601378D02*
X700591D01*
Y596654*
X689173*
Y601378*
X785039Y712598D02*
X773622D01*
Y717323*
X785039*
Y712598*
X431496Y716893D02*
X431791Y717001D01*
X432087Y717215*
X432234Y717430*
Y717860*
X432087Y718074*
X431791Y718289*
X431496Y718397*
X431053Y718504*
X430315*
X429872Y718397*
X429577Y718289*
X429281Y718074*
X429134Y717860*
Y717430*
X429281Y717215*
X429577Y717001*
X429872Y716893*
X432234Y715390D02*
X432087Y715712D01*
X431791Y715820*
X431496*
X431201Y715712*
X431053Y715497*
X430906Y715068*
X430758Y714746*
X430463Y714531*
X430167Y714424*
X429724*
X429429Y714531*
X429281Y714639*
X429134Y714961*
Y715390*
X429281Y715712*
X429429Y715820*
X429724Y715927*
X430167*
X430463Y715820*
X430758Y715605*
X430906Y715283*
X431053Y714853*
X431201Y714639*
X431496Y714531*
X431791*
X432087Y714639*
X432234Y714961*
Y715390*
X742674Y719134D02*
X742566Y719429D01*
X742351Y719724*
X742137Y719872*
X741707*
X741492Y719724*
X741278Y719429*
X741170Y719134*
X741063Y718691*
Y717953*
X741170Y717510*
X741278Y717215*
X741492Y716919*
X741707Y716772*
X742137*
X742351Y716919*
X742566Y717215*
X742674Y717510*
X745036Y718839D02*
X744928Y718396D01*
X744714Y718100*
X744392Y717953*
X744284*
X743962Y718100*
X743747Y718396*
X743640Y718839*
Y718986*
X743747Y719429*
X743962Y719724*
X744284Y719872*
X744392*
X744714Y719724*
X744928Y719429*
X745036Y718839*
Y718100*
X744928Y717362*
X744714Y716919*
X744392Y716772*
X744177*
X743855Y716919*
X743747Y717215*
X762598Y824964D02*
X762894Y825072D01*
X763189Y825286*
X763337Y825501*
Y825931*
X763189Y826145*
X762894Y826360*
X762598Y826467*
X762156Y826575*
X761417*
X760974Y826467*
X760679Y826360*
X760384Y826145*
X760236Y825931*
Y825501*
X760384Y825286*
X760679Y825072*
X760974Y824964*
X762746Y823998D02*
X762894Y823783D01*
X763337Y823461*
X760236*
X688350Y760630D02*
X688457Y760335D01*
X688672Y760039*
X688887Y759892*
X689316*
X689531Y760039*
X689746Y760335*
X689853Y760630*
X689961Y761073*
Y761811*
X689853Y762254*
X689746Y762549*
X689531Y762844*
X689316Y762992*
X688887*
X688672Y762844*
X688457Y762549*
X688350Y762254*
X687384Y760482D02*
X687169Y760335D01*
X686847Y759892*
Y762992*
X684485Y759892D02*
X685558D01*
X685666Y761220*
X685558Y761073*
X685236Y760925*
X684914*
X684592Y761073*
X684377Y761368*
X684270Y761811*
X684377Y762106*
X684485Y762549*
X684699Y762844*
X685021Y762992*
X685344*
X685666Y762844*
X685773Y762697*
X685880Y762402*
X691500Y729921D02*
X691607Y729626D01*
X691822Y729331*
X692037Y729183*
X692466*
X692681Y729331*
X692895Y729626*
X693003Y729921*
X693110Y730364*
Y731102*
X693003Y731545*
X692895Y731841*
X692681Y732136*
X692466Y732283*
X692037*
X691822Y732136*
X691607Y731841*
X691500Y731545*
X690533Y729774D02*
X690319Y729626D01*
X689996Y729183*
Y732283*
X687527Y729183D02*
X688601Y732283D01*
X689030Y729183D02*
X687527D01*
X561220Y699964D02*
X561516Y700072D01*
X561811Y700286*
X561959Y700501*
Y700931*
X561811Y701145*
X561516Y701360*
X561220Y701467*
X560778Y701575*
X560039*
X559596Y701467*
X559301Y701360*
X559006Y701145*
X558858Y700931*
Y700501*
X559006Y700286*
X559301Y700072*
X559596Y699964*
X561959Y698783D02*
Y697602D01*
X560778Y698246*
Y697924*
X560630Y697709*
X560482Y697602*
X560039Y697495*
X559744*
X559301Y697602*
X559006Y697817*
X558858Y698139*
Y698461*
X559006Y698783*
X559154Y698890*
X559449Y698998*
X812792Y743307D02*
X812684Y743602D01*
X812470Y743898*
X812255Y744045*
X811825*
X811611Y743898*
X811396Y743602*
X811288Y743307*
X811181Y742864*
Y742126*
X811288Y741683*
X811396Y741388*
X811611Y741093*
X811825Y740945*
X812255*
X812470Y741093*
X812684Y741388*
X812792Y741683*
X813758Y743455D02*
X813973Y743602D01*
X814295Y744045*
Y740945*
X815906Y744045D02*
X815583Y743898D01*
X815369Y743455*
X815261Y742717*
Y742274*
X815369Y741535*
X815583Y741093*
X815906Y740945*
X816120*
X816442Y741093*
X816657Y741535*
X816764Y742274*
Y742717*
X816657Y743455*
X816442Y743898*
X816120Y744045*
X815906*
X474800Y498740D02*
X474692Y499035D01*
X474477Y499331*
X474263Y499478*
X473833*
X473618Y499331*
X473404Y499035*
X473296Y498740*
X473189Y498297*
Y497559*
X473296Y497116*
X473404Y496821*
X473618Y496526*
X473833Y496378*
X474263*
X474477Y496526*
X474692Y496821*
X474800Y497116*
X477054Y499035D02*
X476947Y499331D01*
X476625Y499478*
X476410*
X476088Y499331*
X475873Y498888*
X475766Y498150*
Y497411*
X475873Y496821*
X476088Y496526*
X476410Y496378*
X476518*
X476840Y496526*
X477054Y496821*
X477162Y497264*
Y497411*
X477054Y497854*
X476840Y498150*
X476518Y498297*
X476410*
X476088Y498150*
X475873Y497854*
X475766Y497411*
X814091Y684646D02*
X813984Y684941D01*
X813769Y685236*
X813554Y685384*
X813125*
X812910Y685236*
X812695Y684941*
X812588Y684646*
X812480Y684203*
Y683465*
X812588Y683022*
X812695Y682726*
X812910Y682431*
X813125Y682283*
X813554*
X813769Y682431*
X813984Y682726*
X814091Y683022*
X815057Y684793D02*
X815272Y684941D01*
X815594Y685384*
Y682283*
X816560Y684793D02*
X816775Y684941D01*
X817097Y685384*
Y682283*
X797835Y755548D02*
X797539Y755440D01*
X797244Y755225*
X797096Y755011*
Y754581*
X797244Y754366*
X797244D02*
X797539Y754152D01*
X797835Y754044*
X798278Y753937*
X799016*
X799459Y754044*
X799754Y754152*
X800049Y754366*
X800049D02*
X800197Y754581D01*
Y755011*
X800049Y755225*
X799754Y755440*
X799459Y755548*
X797687Y756514D02*
X797539Y756729D01*
X797096Y757051*
X800197*
X797835Y758125D02*
X797687D01*
X797392Y758232*
X797244Y758339*
X797096Y758554*
Y758984*
X797244Y759198*
X797392Y759306*
X797687Y759413*
X797982*
X798278Y759306*
X798720Y759091*
X800197Y758017*
Y759520*
X694327Y497008D02*
X694220Y497303D01*
X694005Y497598*
X693790Y497746*
X693361*
X693146Y497598*
X692931Y497303*
X692824Y497008*
X692717Y496565*
Y495827*
X692824Y495384*
X692931Y495089*
X693146Y494793*
X693361Y494646*
X693790*
X694005Y494793*
X694220Y495089*
X694327Y495384*
X696797Y497746D02*
X695723Y494646D01*
X695293Y497746D02*
X696797D01*
X444145Y447746D02*
Y445384D01*
X444037Y444941*
X443930Y444793*
X443715Y444646*
X443500*
X443286Y444793*
X443178Y444941*
X443071Y445384*
Y445679*
X445218Y447008D02*
Y447156D01*
X445326Y447451*
X445433Y447598*
X445648Y447746*
X446077*
X446292Y447598*
X446399Y447451*
X446507Y447156*
Y446860*
X446399Y446565*
X446185Y446122*
X445111Y444646*
X446614*
X523633Y447589D02*
Y445226D01*
X523525Y444783*
X523418Y444636*
X523203Y444488*
X522989*
X522774Y444636*
X522666Y444783*
X522559Y445226*
Y445522*
X525673Y447589D02*
X524599Y445522D01*
X526210*
X525673Y447589D02*
Y444488D01*
X603318Y447431D02*
Y445069D01*
X603210Y444626*
X603103Y444478*
X602888Y444331*
X602674*
X602459Y444478*
X602351Y444626*
X602244Y445069*
Y445364*
X605680Y447431D02*
X604606D01*
X604499Y446102*
X604606Y446250*
X604928Y446398*
X605251*
X605573Y446250*
X605787Y445955*
X605895Y445512*
X605787Y445217*
X605680Y444774*
X605465Y444478*
X605143Y444331*
X604821*
X604499Y444478*
X604392Y444626*
X604284Y444921*
X681861Y447352D02*
Y444990D01*
X681754Y444547*
X681646Y444400*
X681432Y444252*
X681217*
X681002Y444400*
X680895Y444547*
X680787Y444990*
Y445285*
X683042Y447352D02*
X684223D01*
X683579Y446171*
X683901*
X684116Y446024*
X684223Y445876*
X684331Y445433*
Y445138*
X684223Y444695*
X684009Y444400*
X683686Y444252*
X683364*
X683042Y444400*
X682935Y444547*
X682827Y444843*
X760404Y447510D02*
Y445148D01*
X760297Y444705*
X760190Y444557*
X759975Y444409*
X759760*
X759545Y444557*
X759438Y444705*
X759331Y445148*
Y445443*
X762659Y447067D02*
X762552Y447362D01*
X762230Y447510*
X762015*
X761693Y447362*
X761478Y446919*
X761371Y446181*
Y445443*
X761478Y444852*
X761693Y444557*
X762015Y444409*
X762122*
X762445Y444557*
X762659Y444852*
X762767Y445295*
Y445443*
X762659Y445886*
X762445Y446181*
X762122Y446329*
X762015*
X761693Y446181*
X761478Y445886*
X761371Y445443*
X727471Y855148D02*
Y852785D01*
X727364Y852343*
X727257Y852195*
X727042Y852047*
X726827*
X726612Y852195*
X726505Y852343*
X726398Y852785*
Y853081*
X728438Y854557D02*
X728652Y854705D01*
X728975Y855148*
Y852047*
X410519Y803524D02*
X410304Y803819D01*
X409982Y803967*
X409553*
X409230Y803819*
X409016Y803524*
Y803228*
X409123Y802933*
X409230Y802785*
X409445Y802638*
X410089Y802343*
X410304Y802195*
X410412Y802047*
X410519Y801752*
Y801309*
X410304Y801014*
X409982Y800866*
X409553*
X409230Y801014*
X409016Y801309*
X411485Y803967D02*
Y800866D01*
Y803967D02*
X412452D01*
X412774Y803819*
X412881Y803671*
X412989Y803376*
Y802933*
X412881Y802638*
X412774Y802490*
X412452Y802343*
X411485*
X413955Y803967D02*
Y800866D01*
Y803967D02*
X415351D01*
X413955Y802490D02*
X414814D01*
X413955Y800866D02*
X415351D01*
X417176Y803967D02*
X416317Y800866D01*
X417176Y803967D02*
X418035Y800866D01*
X416639Y801900D02*
X417713D01*
X419001Y803967D02*
Y800866D01*
X420505Y803967D02*
X419001Y801900D01*
X419538Y802638D02*
X420505Y800866D01*
X421471Y803967D02*
Y800866D01*
Y803967D02*
X422867D01*
X421471Y802490D02*
X422330D01*
X421471Y800866D02*
X422867D01*
X423833Y803967D02*
Y800866D01*
Y803967D02*
X424800D01*
X425122Y803819*
X425229Y803671*
X425336Y803376*
Y803081*
X425229Y802785*
X425122Y802638*
X424800Y802490*
X423833*
X424585D02*
X425336Y800866D01*
X426303Y803376D02*
X426518Y803524D01*
X426840Y803967*
Y800866*
X717374Y710626D02*
X717079Y710519D01*
X716783Y710304*
X716636Y710089*
Y709660*
X716783Y709445*
X717079Y709230*
X717374Y709123*
X717817Y709016*
X718555*
X718998Y709123*
X719293Y709230*
X719589Y709445*
X719736Y709660*
Y710089*
X719589Y710304*
X719293Y710519*
X718998Y710626*
X716636Y712237D02*
X716783Y712022D01*
X717079Y711807*
X717374Y711700*
X717817Y711593*
X718555*
X718998Y711700*
X719293Y711807*
X719589Y712022*
X719736Y712237*
Y712666*
X719589Y712881*
X719293Y713096*
X718998Y713203*
X718555Y713311*
X717817*
X717374Y713203*
X717079Y713096*
X716783Y712881*
X716636Y712666*
Y712237*
Y714277D02*
X719736D01*
X716636D02*
X719736Y715780D01*
X716636D02*
X719736D01*
X716636Y717820D02*
X718703Y716747D01*
Y718357*
X716636Y717820D02*
X719736D01*
X782083Y465276D02*
X781976Y465571D01*
X781761Y465866*
X781546Y466014*
X781117*
X780902Y465866*
X780687Y465571*
X780580Y465276*
X780472Y464833*
Y464094*
X780580Y463652*
X780687Y463356*
X780902Y463061*
X781117Y462913*
X781546*
X781761Y463061*
X781976Y463356*
X782083Y463652*
X783694Y466014D02*
X783479Y465866D01*
X783264Y465571*
X783157Y465276*
X783049Y464833*
Y464094*
X783157Y463652*
X783264Y463356*
X783479Y463061*
X783694Y462913*
X784123*
X784338Y463061*
X784553Y463356*
X784660Y463652*
X784767Y464094*
Y464833*
X784660Y465276*
X784553Y465571*
X784338Y465866*
X784123Y466014*
X783694*
X785734D02*
Y462913D01*
Y466014D02*
X787237Y462913D01*
Y466014D02*
Y462913D01*
X788311Y465276D02*
Y465423D01*
X788418Y465719*
X788525Y465866*
X788740Y466014*
X789170*
X789384Y465866*
X789492Y465719*
X789599Y465423*
Y465128*
X789492Y464833*
X789277Y464390*
X788203Y462913*
X789707*
X474370Y506407D02*
Y503307D01*
Y506407D02*
X475336D01*
X475659Y506260*
X475766Y506112*
X475873Y505817*
Y505522*
X475766Y505226*
X475659Y505079*
X475336Y504931*
X474370*
X475122D02*
X475873Y503307D01*
X478236Y506407D02*
X477162D01*
X477054Y505079*
X477162Y505226*
X477484Y505374*
X477806*
X478128Y505226*
X478343Y504931*
X478450Y504488*
X478343Y504193*
X478236Y503750*
X478021Y503455*
X477699Y503307*
X477377*
X477054Y503455*
X476947Y503602*
X476840Y503898*
X720984Y609085D02*
Y605984D01*
Y609085D02*
X721951D01*
X722273Y608937*
X722380Y608789*
X722487Y608494*
Y608199*
X722380Y607904*
X722273Y607756*
X721951Y607608*
X720984*
X721736D02*
X722487Y605984D01*
X724528Y609085D02*
X723454Y607018D01*
X725064*
X724528Y609085D02*
Y605984D01*
X726675Y609085D02*
X726353Y608937D01*
X726138Y608494*
X726031Y607756*
Y607313*
X726138Y606575*
X726353Y606132*
X726675Y605984*
X726890*
X727212Y606132*
X727427Y606575*
X727534Y607313*
Y607756*
X727427Y608494*
X727212Y608937*
X726890Y609085*
X726675*
X752047Y605226D02*
Y602126D01*
Y605226D02*
X753014D01*
X753336Y605079*
X753443Y604931*
X753550Y604636*
Y604341*
X753443Y604045*
X753336Y603898*
X753014Y603750*
X752047*
X752799D02*
X753550Y602126D01*
X754732Y605226D02*
X755913D01*
X755268Y604045*
X755591*
X755805Y603898*
X755913Y603750*
X756020Y603307*
Y603012*
X755913Y602569*
X755698Y602274*
X755376Y602126*
X755054*
X754732Y602274*
X754624Y602421*
X754517Y602717*
X758382Y604193D02*
X758275Y603750D01*
X758060Y603455*
X757738Y603307*
X757631*
X757309Y603455*
X757094Y603750*
X756986Y604193*
Y604341*
X757094Y604783*
X757309Y605079*
X757631Y605226*
X757738*
X758060Y605079*
X758275Y604783*
X758382Y604193*
Y603455*
X758275Y602717*
X758060Y602274*
X757738Y602126*
X757523*
X757201Y602274*
X757094Y602569*
X783543Y601486D02*
Y598386D01*
Y601486D02*
X784510D01*
X784832Y601339*
X784939Y601191*
X785047Y600896*
Y600600*
X784939Y600305*
X784832Y600157*
X784510Y600010*
X783543*
X784295D02*
X785047Y598386D01*
X786228Y601486D02*
X787409D01*
X786764Y600305*
X787087*
X787301Y600157*
X787409Y600010*
X787516Y599567*
Y599272*
X787409Y598829*
X787194Y598533*
X786872Y598386*
X786550*
X786228Y598533*
X786120Y598681*
X786013Y598976*
X789019Y601486D02*
X788697Y601339D01*
X788590Y601043*
Y600748*
X788697Y600453*
X788912Y600305*
X789341Y600157*
X789664Y600010*
X789878Y599715*
X789986Y599419*
Y598976*
X789878Y598681*
X789771Y598533*
X789449Y598386*
X789019*
X788697Y598533*
X788590Y598681*
X788482Y598976*
Y599419*
X788590Y599715*
X788805Y600010*
X789127Y600157*
X789556Y600305*
X789771Y600453*
X789878Y600748*
Y601043*
X789771Y601339*
X789449Y601486*
X789019*
X437598Y408652D02*
Y405551D01*
Y408652D02*
X438565D01*
X438887Y408504*
X438994Y408356*
X439102Y408061*
Y407766*
X438994Y407470*
X438887Y407323*
X438565Y407175*
X437598*
X438350D02*
X439102Y405551D01*
X440283Y408652D02*
X441464D01*
X440820Y407470*
X441142*
X441356Y407323*
X441464Y407175*
X441571Y406732*
Y406437*
X441464Y405994*
X441249Y405699*
X440927Y405551*
X440605*
X440283Y405699*
X440175Y405846*
X440068Y406142*
X443826Y408209D02*
X443719Y408504D01*
X443397Y408652*
X443182*
X442860Y408504*
X442645Y408061*
X442538Y407323*
Y406585*
X442645Y405994*
X442860Y405699*
X443182Y405551*
X443289*
X443611Y405699*
X443826Y405994*
X443933Y406437*
Y406585*
X443826Y407028*
X443611Y407323*
X443289Y407470*
X443182*
X442860Y407323*
X442645Y407028*
X442538Y406585*
X516496Y408376D02*
Y405276D01*
Y408376D02*
X517462D01*
X517785Y408228*
X517892Y408081*
X517999Y407785*
Y407490*
X517892Y407195*
X517785Y407047*
X517462Y406900*
X516496*
X517248D02*
X517999Y405276D01*
X519180Y408376D02*
X520361D01*
X519717Y407195*
X520039*
X520254Y407047*
X520361Y406900*
X520469Y406457*
Y406161*
X520361Y405719*
X520147Y405423*
X519825Y405276*
X519503*
X519180Y405423*
X519073Y405571*
X518966Y405866*
X522831Y408376D02*
X521757D01*
X521650Y407047*
X521757Y407195*
X522079Y407343*
X522402*
X522724Y407195*
X522938Y406900*
X523046Y406457*
X522938Y406161*
X522831Y405719*
X522616Y405423*
X522294Y405276*
X521972*
X521650Y405423*
X521543Y405571*
X521435Y405866*
X595000Y408494D02*
Y405394D01*
Y408494D02*
X595966D01*
X596288Y408346*
X596396Y408199*
X596503Y407904*
Y407608*
X596396Y407313*
X596288Y407165*
X595966Y407018*
X595000*
X595752D02*
X596503Y405394D01*
X597684Y408494D02*
X598865D01*
X598221Y407313*
X598543*
X598758Y407165*
X598865Y407018*
X598973Y406575*
Y406280*
X598865Y405837*
X598651Y405541*
X598329Y405394*
X598006*
X597684Y405541*
X597577Y405689*
X597470Y405984*
X600154Y408494D02*
X601335D01*
X600691Y407313*
X601013*
X601228Y407165*
X601335Y407018*
X601442Y406575*
Y406280*
X601335Y405837*
X601120Y405541*
X600798Y405394*
X600476*
X600154Y405541*
X600047Y405689*
X599939Y405984*
X474606Y408022D02*
Y404921D01*
Y408022D02*
X475573D01*
X475895Y407874*
X476002Y407726*
X476110Y407431*
Y407136*
X476002Y406841*
X475895Y406693*
X475573Y406545*
X474606*
X475358D02*
X476110Y404921D01*
X477076Y407431D02*
X477291Y407579D01*
X477613Y408022*
Y404921*
X479975Y408022D02*
X478901D01*
X478794Y406693*
X478901Y406841*
X479223Y406988*
X479545*
X479868Y406841*
X480082Y406545*
X480190Y406102*
X480082Y405807*
X479975Y405364*
X479760Y405069*
X479438Y404921*
X479116*
X478794Y405069*
X478686Y405217*
X478579Y405512*
X673425Y408533D02*
Y405433D01*
Y408533D02*
X674392D01*
X674714Y408386*
X674821Y408238*
X674928Y407943*
Y407648*
X674821Y407352*
X674714Y407205*
X674392Y407057*
X673425*
X674177D02*
X674928Y405433D01*
X676110Y408533D02*
X677291D01*
X676646Y407352*
X676969*
X677183Y407205*
X677291Y407057*
X677398Y406614*
Y406319*
X677291Y405876*
X677076Y405581*
X676754Y405433*
X676432*
X676110Y405581*
X676002Y405728*
X675895Y406024*
X678364Y407943D02*
X678579Y408091D01*
X678901Y408533*
Y405433*
X547677Y408691D02*
Y405591D01*
Y408691D02*
X548644D01*
X548966Y408543*
X549073Y408396*
X549180Y408100*
Y407805*
X549073Y407510*
X548966Y407362*
X548644Y407215*
X547677*
X548429D02*
X549180Y405591D01*
X550147Y408100D02*
X550361Y408248D01*
X550684Y408691*
Y405591*
X553153Y408691D02*
X552079Y405591D01*
X551650Y408691D02*
X553153D01*
X468819Y605738D02*
Y602638D01*
Y605738D02*
X469785D01*
X470107Y605591*
X470215Y605443*
X470322Y605148*
Y604852*
X470215Y604557*
X470107Y604409*
X469785Y604262*
X468819*
X469571D02*
X470322Y602638D01*
X471396Y605000D02*
Y605148D01*
X471503Y605443*
X471611Y605591*
X471825Y605738*
X472255*
X472470Y605591*
X472577Y605443*
X472684Y605148*
Y604852*
X472577Y604557*
X472362Y604114*
X471288Y602638*
X472792*
X475154Y605738D02*
X474080D01*
X473973Y604409*
X474080Y604557*
X474402Y604705*
X474724*
X475047Y604557*
X475261Y604262*
X475369Y603819*
X475261Y603524*
X475154Y603081*
X474939Y602785*
X474617Y602638*
X474295*
X473973Y602785*
X473865Y602933*
X473758Y603228*
X752520Y408652D02*
Y405551D01*
Y408652D02*
X753486D01*
X753808Y408504*
X753916Y408356*
X754023Y408061*
Y407766*
X753916Y407470*
X753808Y407323*
X753486Y407175*
X752520*
X753271D02*
X754023Y405551D01*
X755097Y407913D02*
Y408061D01*
X755204Y408356*
X755311Y408504*
X755526Y408652*
X755956*
X756170Y408504*
X756278Y408356*
X756385Y408061*
Y407766*
X756278Y407470*
X756063Y407028*
X754989Y405551*
X756492*
X758962Y408652D02*
X757888Y405551D01*
X757459Y408652D02*
X758962D01*
X626181Y408730D02*
Y405630D01*
Y408730D02*
X627147D01*
X627470Y408583*
X627577Y408435*
X627684Y408140*
Y407844*
X627577Y407549*
X627470Y407402*
X627147Y407254*
X626181*
X626933D02*
X627684Y405630D01*
X628651Y408140D02*
X628865Y408287D01*
X629188Y408730*
Y405630*
X630691Y408730D02*
X630369Y408583D01*
X630261Y408287*
Y407992*
X630369Y407697*
X630583Y407549*
X631013Y407402*
X631335Y407254*
X631550Y406959*
X631657Y406663*
Y406220*
X631550Y405925*
X631442Y405778*
X631120Y405630*
X630691*
X630369Y405778*
X630261Y405925*
X630154Y406220*
Y406663*
X630261Y406959*
X630476Y407254*
X630798Y407402*
X631228Y407549*
X631442Y407697*
X631550Y407992*
Y408287*
X631442Y408583*
X631120Y408730*
X630691*
X579173Y853927D02*
Y850827D01*
Y853927D02*
X580140D01*
X580462Y853780*
X580569Y853632*
X580676Y853337*
Y853041*
X580569Y852746*
X580462Y852598*
X580140Y852451*
X579173*
X579925D02*
X580676Y850827D01*
X581750Y853189D02*
Y853337D01*
X581858Y853632*
X581965Y853780*
X582180Y853927*
X582609*
X582824Y853780*
X582931Y853632*
X583039Y853337*
Y853041*
X582931Y852746*
X582717Y852303*
X581643Y850827*
X583146*
X585508Y852894D02*
X585401Y852451D01*
X585186Y852156*
X584864Y852008*
X584757*
X584435Y852156*
X584435D02*
X584220Y852451D01*
X584112Y852894*
Y853041*
X584220Y853484*
X584435Y853780*
X584435D02*
X584757Y853927D01*
X584864*
X585186Y853780*
X585401Y853484*
X585508Y852894*
Y852156*
X585401Y851417*
X585186Y850974*
X584864Y850827*
X584649*
X584327Y850974*
X584220Y851270*
X705236Y408809D02*
Y405709D01*
Y408809D02*
X706203D01*
X706525Y408661*
X706632Y408514*
X706739Y408219*
Y407923*
X706632Y407628*
X706525Y407480*
X706203Y407333*
X705236*
X705988D02*
X706739Y405709D01*
X707706Y408219D02*
X707921Y408366D01*
X708243Y408809*
Y405709*
X710283Y408809D02*
X709209Y406742D01*
X710820*
X710283Y408809D02*
Y405709D01*
X642008Y854124D02*
Y851024D01*
Y854124D02*
X642974D01*
X643296Y853976*
X643404Y853829*
X643511Y853533*
Y853238*
X643404Y852943*
X643296Y852795*
X642974Y852648*
X642008*
X642759D02*
X643511Y851024D01*
X645551Y854124D02*
X644477Y852057D01*
X646088*
X645551Y854124D02*
Y851024D01*
X647054Y853533D02*
X647269Y853681D01*
X647591Y854124*
Y851024*
X783819Y408022D02*
Y404921D01*
Y408022D02*
X784785D01*
X785107Y407874*
X785215Y407726*
X785322Y407431*
Y407136*
X785215Y406841*
X785107Y406693*
X784785Y406545*
X783819*
X784571D02*
X785322Y404921D01*
X786288Y407431D02*
X786503Y407579D01*
X786825Y408022*
Y404921*
X789188Y406988D02*
X789080Y406545D01*
X788865Y406250*
X788543Y406102*
X788436*
X788114Y406250*
X787899Y406545*
X787792Y406988*
Y407136*
X787899Y407579*
X788114Y407874*
X788436Y408022*
X788543*
X788865Y407874*
X789080Y407579*
X789188Y406988*
Y406250*
X789080Y405512*
X788865Y405069*
X788543Y404921*
X788329*
X788006Y405069*
X787899Y405364*
X807234Y794291D02*
X804134D01*
X807234D02*
Y793325D01*
X807087Y793003*
X806939Y792895*
X806644Y792788*
X806348*
X806053Y792895*
X805906Y793003*
X805758Y793325*
Y794291*
Y793540D02*
X804134Y792788D01*
X806496Y791714D02*
X806644D01*
X806939Y791607*
X807087Y791500*
X807234Y791285*
Y790855*
X807087Y790641*
X806939Y790533*
X806644Y790426*
X806348*
X806053Y790533*
X805610Y790748*
X804134Y791822*
Y790319*
X806496Y789245D02*
X806644D01*
X806939Y789137*
X807087Y789030*
X807234Y788815*
Y788386*
X807087Y788171*
X806939Y788064*
X806644Y787956*
X806348*
X806053Y788064*
X805610Y788278*
X804134Y789352*
Y787849*
X692835Y504754D02*
Y501654D01*
Y504754D02*
X693801D01*
X694123Y504606*
X694230Y504459*
X694338Y504163*
Y503868*
X694230Y503573*
X694123Y503425*
X693801Y503278*
X692835*
X693586D02*
X694338Y501654D01*
X696593Y504311D02*
X696485Y504606D01*
X696163Y504754*
X695948*
X695626Y504606*
X695412Y504163*
X695304Y503425*
Y502687*
X695412Y502096*
X695626Y501801*
X695948Y501654*
X696056*
X696378Y501801*
X696593Y502096*
X696700Y502539*
Y502687*
X696593Y503130*
X696378Y503425*
X696056Y503573*
X695948*
X695626Y503425*
X695412Y503130*
X695304Y502687*
X610236Y854478D02*
Y851378D01*
Y854478D02*
X611203D01*
X611525Y854331*
X611632Y854183*
X611739Y853888*
Y853593*
X611632Y853297*
X611525Y853150*
X611203Y853002*
X610236*
X610988D02*
X611739Y851378D01*
X612813Y853740D02*
Y853888D01*
X612921Y854183*
X613028Y854331*
X613243Y854478*
X613672*
X613887Y854331*
X613994Y854183*
X614102Y853888*
Y853593*
X613994Y853297*
X613780Y852854*
X612706Y851378*
X614209*
X615175Y853888D02*
X615390Y854035D01*
X615712Y854478*
Y851378*
X425157Y725187D02*
Y722087D01*
Y725187D02*
X426124D01*
X426446Y725039*
X426553Y724892*
X426661Y724596*
Y724301*
X426553Y724006*
X426446Y723858*
X426124Y723711*
X425157*
X425909D02*
X426661Y722087D01*
X429130Y725187D02*
X428057Y722087D01*
X427627Y725187D02*
X429130D01*
X739016Y727274D02*
Y724173D01*
Y727274D02*
X739982D01*
X740304Y727126*
X740412Y726978*
X740519Y726683*
Y726388*
X740412Y726093*
X740304Y725945*
X739982Y725797*
X739016*
X739767D02*
X740519Y724173D01*
X742022Y727274D02*
X741700Y727126D01*
X741593Y726831*
Y726535*
X741700Y726240*
X741915Y726093*
X742344Y725945*
X742666Y725797*
X742881Y725502*
X742989Y725207*
Y724764*
X742881Y724469*
X742774Y724321*
X742452Y724173*
X742022*
X741700Y724321*
X741593Y724469*
X741485Y724764*
Y725207*
X741593Y725502*
X741807Y725797*
X742130Y725945*
X742559Y726093*
X742774Y726240*
X742881Y726535*
Y726831*
X742774Y727126*
X742452Y727274*
X742022*
X680512Y778199D02*
Y781299D01*
Y778199D02*
X679545D01*
X679223Y778346*
X679116Y778494*
X679009Y778789*
Y779085*
X679116Y779380*
X679223Y779528*
X679545Y779675*
X680512*
X679760D02*
X679009Y781299D01*
X677935Y778937D02*
Y778789D01*
X677827Y778494*
X677720Y778346*
X677505Y778199*
X677076*
X676861Y778346*
X676754Y778494*
X676646Y778789*
Y779085*
X676754Y779380*
X676969Y779823*
X678042Y781299*
X676539*
X675358Y778199D02*
X674177D01*
X674821Y779380*
X674499*
X674284Y779528*
X674177Y779675*
X674069Y780118*
Y780413*
X674177Y780856*
X674392Y781152*
X674714Y781299*
X675036*
X675358Y781152*
X675465Y781004*
X675573Y780709*
X782726Y450787D02*
X785827D01*
X782726D02*
Y451754D01*
X782874Y452076*
X783022Y452183*
X783317Y452291*
X783612*
X783907Y452183*
X784055Y452076*
X784203Y451754*
Y450787*
Y451539D02*
X785827Y452291D01*
X783317Y453257D02*
X783169Y453472D01*
X782726Y453794*
X785827*
X782726Y454975D02*
Y456156D01*
X783907Y455512*
Y455834*
X784055Y456049*
X784203Y456156*
X784646Y456263*
X784941*
X785384Y456156*
X785679Y455941*
X785827Y455619*
Y455297*
X785679Y454975*
X785531Y454868*
X785236Y454760*
X773868Y450787D02*
X776969D01*
X773868D02*
Y451754D01*
X774016Y452076*
X774163Y452183*
X774459Y452291*
X774754*
X775049Y452183*
X775197Y452076*
X775344Y451754*
Y450787*
Y451539D02*
X776969Y452291D01*
X774459Y453257D02*
X774311Y453472D01*
X773868Y453794*
X776969*
X774606Y454868D02*
X774459D01*
X774163Y454975*
X774016Y455082*
X773868Y455297*
Y455727*
X774016Y455941*
X774163Y456049*
X774459Y456156*
X774754*
X775049Y456049*
X775492Y455834*
X776969Y454760*
Y456263*
X782480Y492274D02*
Y489173D01*
Y492274D02*
X783447D01*
X783769Y492126*
X783876Y491978*
X783984Y491683*
Y491388*
X783876Y491093*
X783769Y490945*
X783447Y490797*
X782480*
X783232D02*
X783984Y489173D01*
X785057Y491535D02*
Y491683D01*
X785165Y491978*
X785272Y492126*
X785487Y492274*
X785916*
X786131Y492126*
X786238Y491978*
X786346Y491683*
Y491388*
X786238Y491093*
X786024Y490650*
X784950Y489173*
X786453*
X788064Y492274D02*
X787742Y492126D01*
X787527Y491683*
X787419Y490945*
Y490502*
X787527Y489764*
X787742Y489321*
X788064Y489173*
X788278*
X788601Y489321*
X788815Y489764*
X788923Y490502*
Y490945*
X788815Y491683*
X788601Y492126*
X788278Y492274*
X788064*
X437283Y601211D02*
Y598110D01*
Y601211D02*
X438250D01*
X438572Y601063*
X438679Y600915*
X438787Y600620*
Y600325*
X438679Y600030*
X438572Y599882*
X438250Y599734*
X437283*
X438035D02*
X438787Y598110D01*
X439968Y601211D02*
X441149D01*
X440505Y600030*
X440827*
X441042Y599882*
X441149Y599734*
X441256Y599291*
Y598996*
X441149Y598553*
X440934Y598258*
X440612Y598110*
X440290*
X439968Y598258*
X439860Y598406*
X439753Y598701*
X442867Y601211D02*
X442545Y601063D01*
X442330Y600620*
X442223Y599882*
Y599439*
X442330Y598701*
X442545Y598258*
X442867Y598110*
X443082*
X443404Y598258*
X443618Y598701*
X443726Y599439*
Y599882*
X443618Y600620*
X443404Y601063*
X443082Y601211*
X442867*
X810354Y735344D02*
Y732244D01*
Y735344D02*
X811321D01*
X811643Y735197*
X811750Y735049*
X811858Y734754*
Y734459*
X811750Y734163*
X811643Y734016*
X811321Y733868*
X810354*
X811106D02*
X811858Y732244D01*
X814220Y734311D02*
X814112Y733868D01*
X813898Y733573*
X813576Y733425*
X813468*
X813146Y733573*
X812931Y733868*
X812824Y734311*
Y734459*
X812931Y734902*
X813146Y735197*
X813468Y735344*
X813576*
X813898Y735197*
X814112Y734902*
X814220Y734311*
Y733573*
X814112Y732835*
X813898Y732392*
X813576Y732244*
X813361*
X813039Y732392*
X812931Y732687*
X812756Y690541D02*
Y687441D01*
Y690541D02*
X813722D01*
X814044Y690394*
X814152Y690246*
X814259Y689951*
Y689656*
X814152Y689360*
X814044Y689213*
X813722Y689065*
X812756*
X813508D02*
X814259Y687441D01*
X815225Y689951D02*
X815440Y690098D01*
X815762Y690541*
Y687441*
X817373Y690541D02*
X817051Y690394D01*
X816836Y689951*
X816729Y689213*
Y688770*
X816836Y688031*
X817051Y687589*
X817373Y687441*
X817588*
X817910Y687589*
X818125Y688031*
X818232Y688770*
Y689213*
X818125Y689951*
X817910Y690394*
X817588Y690541*
X817373*
X751821Y802165D02*
X754921D01*
X751821D02*
Y803132D01*
X751969Y803454*
X752116Y803561*
X752411Y803669*
X752707*
X753002Y803561*
X753150Y803454*
X753297Y803132*
Y802165*
Y802917D02*
X754921Y803669D01*
X752411Y804635D02*
X752264Y804850D01*
X751821Y805172*
X754921*
X741978Y802165D02*
X745079D01*
X741978D02*
Y803132D01*
X742126Y803454*
X742274Y803561*
X742569Y803669*
X742864*
X743159Y803561*
X743307Y803454*
X743455Y803132*
Y802165*
Y802917D02*
X745079Y803669D01*
X742717Y804742D02*
X742569D01*
X742274Y804850*
X742126Y804957*
X741978Y805172*
Y805601*
X742126Y805816*
X742274Y805923*
X742569Y806031*
X742864*
X743159Y805923*
X743602Y805709*
X745079Y804635*
Y806138*
X765748Y725738D02*
Y722638D01*
Y725738D02*
X766714D01*
X767037Y725591*
X767144Y725443*
X767251Y725148*
Y724852*
X767144Y724557*
X767037Y724409*
X766714Y724262*
X765748*
X766500D02*
X767251Y722638D01*
X768432Y725738D02*
X769613D01*
X768969Y724557*
X769291*
X769506Y724409*
X769613Y724262*
X769721Y723819*
Y723524*
X769613Y723081*
X769399Y722785*
X769077Y722638*
X768754*
X768432Y722785*
X768325Y722933*
X768218Y723228*
X500157Y608888D02*
Y605787D01*
Y608888D02*
X501124D01*
X501446Y608740*
X501553Y608593*
X501661Y608297*
Y608002*
X501553Y607707*
X501446Y607559*
X501124Y607411*
X500157*
X500909D02*
X501661Y605787D01*
X502842Y608888D02*
X504023D01*
X503379Y607707*
X503701*
X503916Y607559*
X504023Y607411*
X504130Y606969*
Y606673*
X504023Y606230*
X503808Y605935*
X503486Y605787*
X503164*
X502842Y605935*
X502734Y606083*
X502627Y606378*
X506600Y608888D02*
X505526Y605787D01*
X505097Y608888D02*
X506600D01*
X531614Y605108D02*
Y602008D01*
Y605108D02*
X532581D01*
X532903Y604961*
X533010Y604813*
X533117Y604518*
Y604222*
X533010Y603927*
X532903Y603780*
X532581Y603632*
X531614*
X532366D02*
X533117Y602008D01*
X534298Y605108D02*
X535480D01*
X534835Y603927*
X535157*
X535372Y603780*
X535480Y603632*
X535587Y603189*
Y602894*
X535480Y602451*
X535265Y602156*
X534943Y602008*
X534621*
X534298Y602156*
X534191Y602303*
X534084Y602598*
X537627Y605108D02*
X536553Y603041D01*
X538164*
X537627Y605108D02*
Y602008D01*
X563110Y601053D02*
Y597953D01*
Y601053D02*
X564077D01*
X564399Y600906*
X564506Y600758*
X564613Y600463*
Y600167*
X564506Y599872*
X564399Y599724*
X564077Y599577*
X563110*
X563862D02*
X564613Y597953D01*
X565795Y601053D02*
X566976D01*
X566331Y599872*
X566654*
X566868Y599724*
X566976Y599577*
X567083Y599134*
Y598839*
X566976Y598396*
X566761Y598100*
X566439Y597953*
X566117*
X565795Y598100*
X565687Y598248*
X565580Y598543*
X568157Y600315D02*
Y600463D01*
X568264Y600758*
X568372Y600906*
X568586Y601053*
X569016*
X569230Y600906*
X569338Y600758*
X569445Y600463*
Y600167*
X569338Y599872*
X569123Y599429*
X568049Y597953*
X569553*
X657835Y601014D02*
Y597913D01*
Y601014D02*
X658801D01*
X659123Y600866*
X659230Y600719*
X659338Y600423*
Y600128*
X659230Y599833*
X659123Y599685*
X658801Y599537*
X657835*
X658586D02*
X659338Y597913D01*
X660412Y600276D02*
Y600423D01*
X660519Y600719*
X660626Y600866*
X660841Y601014*
X661271*
X661485Y600866*
X661593Y600719*
X661700Y600423*
Y600128*
X661593Y599833*
X661378Y599390*
X660304Y597913*
X661807*
X663311Y601014D02*
X662989Y600866D01*
X662881Y600571*
Y600276*
X662989Y599980*
X663203Y599833*
X663633Y599685*
X663955Y599537*
X664170Y599242*
X664277Y598947*
Y598504*
X664170Y598209*
X664062Y598061*
X663740Y597913*
X663311*
X662989Y598061*
X662881Y598209*
X662774Y598504*
Y598947*
X662881Y599242*
X663096Y599537*
X663418Y599685*
X663848Y599833*
X664062Y599980*
X664170Y600276*
Y600571*
X664062Y600866*
X663740Y601014*
X663311*
X689291Y605069D02*
Y601969D01*
Y605069D02*
X690258D01*
X690580Y604921*
X690687Y604774*
X690795Y604478*
Y604183*
X690687Y603888*
X690580Y603740*
X690258Y603593*
X689291*
X690043D02*
X690795Y601969D01*
X691868Y604331D02*
Y604478D01*
X691976Y604774*
X692083Y604921*
X692298Y605069*
X692727*
X692942Y604921*
X693049Y604774*
X693157Y604478*
Y604183*
X693049Y603888*
X692835Y603445*
X691761Y601969*
X693264*
X695519Y604626D02*
X695412Y604921D01*
X695089Y605069*
X694875*
X694553Y604921*
X694338Y604478*
X694230Y603740*
Y603002*
X694338Y602411*
X694553Y602116*
X694875Y601969*
X694982*
X695304Y602116*
X695519Y602411*
X695626Y602854*
Y603002*
X695519Y603445*
X695304Y603740*
X694982Y603888*
X694875*
X694553Y603740*
X694338Y603445*
X694230Y603002*
X436543Y730610D02*
X436328Y730906D01*
X436006Y731053*
X435576*
X435254Y730906*
X435039Y730610*
Y730315*
X435147Y730020*
X435254Y729872*
X435469Y729724*
X436113Y729429*
X436328Y729281*
X436435Y729134*
X436543Y728839*
Y728396*
X436328Y728100*
X436006Y727953*
X435576*
X435254Y728100*
X435039Y728396*
X438905Y731053D02*
X437831D01*
X437724Y729724*
X437831Y729872*
X438153Y730020*
X438475*
X438797Y729872*
X439012Y729577*
X439120Y729134*
X439012Y728839*
X438905Y728396*
X438690Y728100*
X438368Y727953*
X438046*
X437724Y728100*
X437616Y728248*
X437509Y728543*
X751503Y730610D02*
X751288Y730906D01*
X750966Y731053*
X750537*
X750215Y730906*
X750000Y730610*
Y730315*
X750107Y730020*
X750215Y729872*
X750429Y729724*
X751074Y729429*
X751288Y729281*
X751396Y729134*
X751503Y728839*
Y728396*
X751288Y728100*
X750966Y727953*
X750537*
X750215Y728100*
X750000Y728396*
X753758Y730610D02*
X753651Y730906D01*
X753329Y731053*
X753114*
X752792Y730906*
X752577Y730463*
X752470Y729724*
Y728986*
X752577Y728396*
X752792Y728100*
X753114Y727953*
X753221*
X753543Y728100*
X753758Y728396*
X753865Y728839*
Y728986*
X753758Y729429*
X753543Y729724*
X753221Y729872*
X753114*
X752792Y729724*
X752577Y729429*
X752470Y728986*
X446693Y583297D02*
Y580197D01*
Y583297D02*
X447445D01*
X447767Y583150*
X447981Y582854*
X448089Y582559*
X448196Y582116*
Y581378*
X448089Y580935*
X447981Y580640*
X447767Y580344*
X447445Y580197*
X446693*
X449162Y582707D02*
X449377Y582854D01*
X449699Y583297*
Y580197*
X452169Y583297D02*
X451095Y580197D01*
X450666Y583297D02*
X452169D01*
X790906Y583455D02*
Y580354D01*
Y583455D02*
X791657D01*
X791979Y583307*
X792194Y583012*
X792301Y582717*
X792409Y582274*
Y581535*
X792301Y581093*
X792194Y580797*
X791979Y580502*
X791657Y580354*
X790906*
X793375Y582864D02*
X793590Y583012D01*
X793912Y583455*
Y580354*
X794878Y582864D02*
X795093Y583012D01*
X795415Y583455*
Y580354*
X477047Y587195D02*
Y584094D01*
Y587195D02*
X477799D01*
X478121Y587047*
X478336Y586752*
X478443Y586457*
X478550Y586014*
Y585276*
X478443Y584833*
X478336Y584537*
X478121Y584242*
X477799Y584094*
X477047*
X479517Y586604D02*
X479732Y586752D01*
X480054Y587195*
Y584094*
X482094Y587195D02*
X481020Y585128D01*
X482631*
X482094Y587195D02*
Y584094D01*
X508701Y591211D02*
Y588110D01*
Y591211D02*
X509452D01*
X509775Y591063*
X509989Y590768*
X510097Y590472*
X510204Y590030*
Y589291*
X510097Y588848*
X509989Y588553*
X509775Y588258*
X509452Y588110*
X508701*
X511170Y590620D02*
X511385Y590768D01*
X511707Y591211*
Y588110*
X513962Y590768D02*
X513855Y591063D01*
X513533Y591211*
X513318*
X512996Y591063*
X512781Y590620*
X512674Y589882*
Y589144*
X512781Y588553*
X512996Y588258*
X513318Y588110*
X513425*
X513747Y588258*
X513962Y588553*
X514069Y588996*
Y589144*
X513962Y589587*
X513747Y589882*
X513425Y590030*
X513318*
X512996Y589882*
X512781Y589587*
X512674Y589144*
X539843Y587628D02*
Y584528D01*
Y587628D02*
X540594D01*
X540916Y587480*
X541131Y587185*
X541238Y586890*
X541346Y586447*
Y585709*
X541238Y585266*
X541131Y584970*
X540916Y584675*
X540594Y584528*
X539843*
X542312Y587037D02*
X542527Y587185D01*
X542849Y587628*
Y584528*
X545211Y587628D02*
X544137D01*
X544030Y586299*
X544137Y586447*
X544460Y586594*
X544782*
X545104Y586447*
X545319Y586152*
X545426Y585709*
X545319Y585413*
X545211Y584970*
X544996Y584675*
X544674Y584528*
X544352*
X544030Y584675*
X543923Y584823*
X543815Y585118*
X571496Y583770D02*
Y580669D01*
Y583770D02*
X572248D01*
X572570Y583622*
X572785Y583327*
X572892Y583031*
X572999Y582589*
Y581850*
X572892Y581407*
X572785Y581112*
X572570Y580817*
X572248Y580669*
X571496*
X573966Y583179D02*
X574180Y583327D01*
X574503Y583770*
Y580669*
X576006Y583770D02*
X575684Y583622D01*
X575576Y583327*
Y583031*
X575684Y582736*
X575898Y582589*
X576328Y582441*
X576650Y582293*
X576865Y581998*
X576972Y581703*
Y581260*
X576865Y580965*
X576757Y580817*
X576435Y580669*
X576006*
X575684Y580817*
X575576Y580965*
X575469Y581260*
Y581703*
X575576Y581998*
X575791Y582293*
X576113Y582441*
X576543Y582589*
X576757Y582736*
X576865Y583031*
Y583327*
X576757Y583622*
X576435Y583770*
X576006*
X666575Y583297D02*
Y580197D01*
Y583297D02*
X667326D01*
X667649Y583150*
X667863Y582854*
X667971Y582559*
X668078Y582116*
Y581378*
X667971Y580935*
X667863Y580640*
X667649Y580344*
X667326Y580197*
X666575*
X669581Y583297D02*
X669259Y583150D01*
X669152Y582854*
Y582559*
X669259Y582264*
X669474Y582116*
X669903Y581969*
X670225Y581821*
X670440Y581526*
X670548Y581230*
Y580787*
X670440Y580492*
X670333Y580344*
X670011Y580197*
X669581*
X669259Y580344*
X669152Y580492*
X669044Y580787*
Y581230*
X669152Y581526*
X669366Y581821*
X669366D02*
X669689Y581969D01*
X670118Y582116*
X670333Y582264*
X670440Y582559*
Y582854*
X670333Y583150*
X670011Y583297*
X669581*
X696772Y586644D02*
Y583543D01*
Y586644D02*
X697523D01*
X697845Y586496*
X698060Y586201*
X698168Y585906*
X698168D02*
X698275Y585463D01*
Y584724*
X698168Y584281*
X698168D02*
X698060Y583986D01*
X697845Y583691*
X697523Y583543*
X696772*
X700637Y585610D02*
X700530Y585167D01*
X700315Y584872*
X699993Y584724*
X699885*
X699563Y584872*
X699349Y585167*
X699241Y585610*
Y585758*
X699349Y586201*
X699563Y586496*
X699885Y586644*
X699993*
X700315Y586496*
X700530Y586201*
X700637Y585610*
Y584872*
X700530Y584134*
X700315Y583691*
X699993Y583543*
X699778*
X699456Y583691*
X699349Y583986*
X729173Y590659D02*
Y587559D01*
Y590659D02*
X729925D01*
X730247Y590512*
X730462Y590217*
X730569Y589921*
X730676Y589478*
Y588740*
X730569Y588297*
X730462Y588002*
X730247Y587707*
X729925Y587559*
X729173*
X731643Y590069D02*
X731858Y590217D01*
X732180Y590659*
Y587559*
X733790Y590659D02*
X733468Y590512D01*
X733253Y590069*
X733146Y589331*
Y588888*
X733253Y588150*
X733468Y587707*
X733790Y587559*
X734005*
X734327Y587707*
X734542Y588150*
X734649Y588888*
Y589331*
X734542Y590069*
X734327Y590512*
X734005Y590659*
X733790*
X760315Y587037D02*
Y583937D01*
Y587037D02*
X761067D01*
X761389Y586890*
X761603Y586594*
X761711Y586299*
X761818Y585856*
Y585118*
X761711Y584675*
X761603Y584380*
X761389Y584085*
X761067Y583937*
X760315*
X764288Y587037D02*
X763214Y583937D01*
X762785Y587037D02*
X764288D01*
X460000Y407589D02*
Y404488D01*
Y407589D02*
X460752D01*
X461074Y407441*
X461288Y407146*
X461396Y406850*
X461503Y406407*
Y405669*
X461396Y405226*
X461288Y404931*
X461074Y404636*
X460752Y404488*
X460000*
X462470Y406998D02*
X462684Y407146D01*
X463006Y407589*
Y404488*
X464080Y406850D02*
Y406998D01*
X464188Y407293*
X464295Y407441*
X464510Y407589*
X464939*
X465154Y407441*
X465261Y407293*
X465369Y406998*
Y406703*
X465261Y406407*
X465047Y405965*
X463973Y404488*
X465476*
X538543Y407785D02*
Y404685D01*
Y407785D02*
X539295D01*
X539617Y407638*
X539832Y407343*
X539939Y407047*
X540047Y406604*
Y405866*
X539939Y405423*
X539832Y405128*
X539617Y404833*
X539295Y404685*
X538543*
X542301Y407343D02*
X542194Y407638D01*
X541872Y407785*
X541657*
X541335Y407638*
X541120Y407195*
X541013Y406457*
Y405719*
X541120Y405128*
X541335Y404833*
X541657Y404685*
X541764*
X542087Y404833*
X542301Y405128*
X542409Y405571*
Y405719*
X542301Y406161*
X542087Y406457*
X541764Y406604*
X541657*
X541335Y406457*
X541120Y406161*
X541013Y405719*
X617559Y407825D02*
Y404724D01*
Y407825D02*
X618311D01*
X618633Y407677*
X618848Y407382*
X618955Y407087*
X619062Y406644*
Y405906*
X618955Y405463*
X618848Y405167*
X618633Y404872*
X618311Y404724*
X617559*
X621424Y407825D02*
X620351D01*
X620243Y406496*
X620351Y406644*
X620673Y406791*
X620995*
X621317Y406644*
X621532Y406348*
X621639Y405906*
X621532Y405610*
X621424Y405167*
X621210Y404872*
X620888Y404724*
X620565*
X620565D02*
X620243Y404872D01*
X620136Y405020*
X620029Y405315*
X695866Y407274D02*
Y404173D01*
Y407274D02*
X696618D01*
X696940Y407126*
X697155Y406831*
X697262Y406535*
X697369Y406093*
Y405354*
X697262Y404911*
X697155Y404616*
X696940Y404321*
X696618Y404173*
X695866*
X698336Y406683D02*
X698550Y406831D01*
X698873Y407274*
Y404173*
X700054Y407274D02*
X701235D01*
X700591Y406093*
X700913*
X701127Y405945*
X701235Y405797*
X701342Y405354*
Y405059*
X701235Y404616*
X701020Y404321*
X700698Y404173*
X700376*
X700054Y404321*
X699946Y404469*
X699839Y404764*
X775039Y407313D02*
Y404213D01*
Y407313D02*
X775791D01*
X776113Y407165*
X776328Y406870*
X776435Y406575*
X776543Y406132*
Y405394*
X776435Y404951*
X776328Y404656*
X776113Y404360*
X775791Y404213*
X775039*
X777724Y407313D02*
X778905D01*
X778261Y406132*
X778583*
X778797Y405984*
X778905Y405837*
X779012Y405394*
Y405098*
X778905Y404656*
X778690Y404360*
X778368Y404213*
X778046*
X777724Y404360*
X777616Y404508*
X777509Y404803*
X585591Y835659D02*
Y832559D01*
Y835659D02*
X586342D01*
X586664Y835512*
X586879Y835217*
X586986Y834921*
X587094Y834478*
Y833740*
X586986Y833297*
X586879Y833002*
X586664Y832707*
X586342Y832559*
X585591*
X589134Y835659D02*
X588060Y833593D01*
X589671*
X589134Y835659D02*
Y832559D01*
X617126Y835974D02*
Y832874D01*
Y835974D02*
X617878D01*
X618200Y835827*
X618414Y835531*
X618522Y835236*
X618629Y834793*
Y834055*
X618522Y833612*
X618414Y833317*
X618200Y833022*
X617878Y832874*
X617126*
X619703Y835236D02*
Y835384D01*
X619810Y835679*
X619918Y835827*
X620132Y835974*
X620562*
X620777Y835827*
X620884Y835679*
X620991Y835384*
Y835089*
X620884Y834793*
X620669Y834350*
X619596Y832874*
X621099*
X649016Y836014D02*
Y832913D01*
Y836014D02*
X649767D01*
X650089Y835866*
X650304Y835571*
X650412Y835276*
X650519Y834833*
Y834094*
X650412Y833652*
X650304Y833356*
X650089Y833061*
X649767Y832913*
X649016*
X651485Y835423D02*
X651700Y835571D01*
X652022Y836014*
Y832913*
X654384Y834980D02*
X654277Y834537D01*
X654062Y834242*
X653740Y834094*
X653633*
X653311Y834242*
X653096Y834537*
X652989Y834980*
Y835128*
X653096Y835571*
X653311Y835866*
X653633Y836014*
X653740*
X654062Y835866*
X654277Y835571*
X654384Y834980*
Y834242*
X654277Y833504*
X654062Y833061*
X653740Y832913*
X653525*
X653203Y833061*
X653096Y833356*
X766339Y716289D02*
Y713189D01*
Y716289D02*
X767305D01*
X767627Y716142*
X767734Y715994*
X767842Y715699*
Y715404*
X767734Y715108*
X767627Y714961*
X767305Y714813*
X766339*
X767090D02*
X767842Y713189D01*
X769882Y716289D02*
X768808Y714222D01*
X770419*
X769882Y716289D02*
Y713189D01*
G54D39*
X411417Y833662D02*
X411895Y832677D01*
Y833662D02*
X411417Y832677D01*
X412201Y833474D02*
X412270Y833521D01*
X412372Y833662*
Y832677*
X820866Y833662D02*
X821343Y832677D01*
Y833662D02*
X820866Y832677D01*
X821684Y833427D02*
Y833474D01*
X821718Y833568*
X821753Y833615*
X821821Y833662*
X821957*
X822025Y833615*
X822059Y833568*
X822093Y833474*
Y833380*
X822059Y833287*
X821991Y833146*
X821650Y832677*
X822128*
X820866Y420276D02*
X821343Y419291D01*
Y420276D02*
X820866Y419291D01*
X821718Y420276D02*
X822093D01*
X821889Y419901*
X821991*
X822059Y419854*
X822093Y419807*
X822128Y419666*
Y419573*
X822093Y419432*
X822025Y419338*
X821923Y419291*
X821821*
X821718Y419338*
X821684Y419385*
X821650Y419479*
X411417Y420276D02*
X411895Y419291D01*
Y420276D02*
X411417Y419291D01*
X412542Y420276D02*
X412201Y419619D01*
X412713*
X412542Y420276D02*
Y419291D01*
X828684Y688721D02*
X828590Y688653D01*
X828543Y688551*
Y688415*
X828590Y688312*
X828684Y688244*
X828778*
X828871Y688278*
X828918Y688312*
X828965Y688380*
X829059Y688585*
X829106Y688653*
X829153Y688687*
X829246Y688721*
X829387*
X829481Y688653*
X829528Y688551*
Y688415*
X829481Y688312*
X829387Y688244*
X828543Y689505D02*
X829528Y689165D01*
X828543Y689028D02*
Y689505D01*
X828684Y641698D02*
X828590Y641630D01*
X828543Y641527*
Y641391*
X828590Y641289*
X828684Y641220*
X828778*
X828871Y641255*
X828918Y641289*
X828965Y641357*
X829059Y641561*
X829106Y641630*
X829153Y641664*
X829246Y641698*
X829387*
X829481Y641630*
X829528Y641527*
Y641391*
X829481Y641289*
X829387Y641220*
X828778Y642039D02*
X828731D01*
X828637Y642073*
X828590Y642107*
X828543Y642175*
Y642311*
X828590Y642380*
X828637Y642414*
X828731Y642448*
X828824*
X828918Y642414*
X829059Y642345*
X829528Y642005*
Y642482*
X673111Y853384D02*
X673145Y853290D01*
X673213Y853196*
X673281Y853149*
X673418*
X673418D02*
X673486Y853196D01*
X673554Y853290*
X673588Y853384*
X673622Y853524*
Y853759*
X673588Y853899*
X673554Y853993*
X673486Y854087*
X673418Y854134*
X673418D02*
X673281D01*
X673213Y854087*
X673145Y853993*
X673111Y853899*
X672599Y853149D02*
X672668Y853196D01*
X672668D02*
X672736Y853290D01*
X672770Y853384*
X672804Y853524*
Y853759*
X672770Y853899*
X672736Y853993*
X672668Y854087*
X672668D02*
X672599Y854134D01*
X672463*
X672395Y854087*
X672327Y853993*
X672293Y853899*
X672293D02*
X672258Y853759D01*
Y853524*
X672293Y853384*
X672293D02*
X672327Y853290D01*
X672395Y853196*
X672463Y853149*
X672599*
X671952D02*
Y854134D01*
Y853149D02*
X671474Y854134D01*
Y853149D02*
Y854134D01*
X671099Y853149D02*
X670724D01*
X670929Y853524*
X670827*
X670758Y853571*
X670724Y853618*
X670690Y853759*
Y853853*
X670724Y853993*
X670793Y854087*
X670793D02*
X670895Y854134D01*
X670997*
X671099Y854087*
X671133Y854040*
X671168Y853946*
G74*
X0Y0D02*
M02*
