*
*
G04 PADS VX.2 Build Number: 5060570 generated Gerber (RS-274-X) file*
G04 PC Version=2.1*
*
%IN "NumberKing_rev7.pcb"*%
*
%MOIN*%
*
%FSLAX35Y35*%
*
*
*
*
G04 PC Standard Apertures*
*
*
G04 Thermal Relief Aperture macro.*
%AMTER*
1,1,$1,0,0*
1,0,$1-$2,0,0*
21,0,$3,$4,0,0,45*
21,0,$3,$4,0,0,135*
%
*
*
G04 Annular Aperture macro.*
%AMANN*
1,1,$1,0,0*
1,0,$2,0,0*
%
*
*
G04 Odd Aperture macro.*
%AMODD*
1,1,$1,0,0*
1,0,$1-0.005,0,0*
%
*
*
G04 PC Custom Aperture Macros*
*
*
*
*
*
*
G04 PC Aperture Table*
*
%ADD010C,0.001*%
%ADD028C,0.01*%
%ADD037C,0.00787*%
%ADD038C,0.00472*%
%ADD039C,0.0015*%
*
*
*
*
G04 PC Circuitry*
G04 Layer Name NumberKing_rev7.pcb - circuitry*
%LPD*%
*
*
G04 PC Custom Flashes*
G04 Layer Name NumberKing_rev7.pcb - flashes*
%LPD*%
*
*
G04 PC Circuitry*
G04 Layer Name NumberKing_rev7.pcb - circuitry*
%LPD*%
*
G54D10*
G54D28*
G01X393700Y419303D02*
G75*
G03X419303Y393700I26969J1366D01*
G01X419291Y393701D02*
X813010D01*
X813005D02*
G03X838601Y419297I177J25419D01*
G01Y419291D02*
Y832710D01*
Y832688D02*
G03X813033Y858301I-25479J134D01*
G01X813010D02*
X496850D01*
Y830709*
X444178*
Y858268*
X419291Y858301*
X419270Y858300D02*
G03X393699Y832685I1464J-27032D01*
G01X393701Y832710D02*
Y419291D01*
G54D37*
X535433Y750787D02*
X531496D01*
Y700394*
X535433*
X547244Y750787D02*
X551181D01*
Y700394*
X547244*
X638780Y727953D02*
X642717Y731890D01*
Y783071*
X587598*
Y727953*
X638780*
Y721063D02*
X640748Y719094D01*
X636811*
X638780Y721063*
X825866Y749921D02*
Y810039D01*
X815866*
Y749921*
X825866*
X814961Y753937D02*
X812992Y751969D01*
Y755906*
X814961Y753937*
X804961Y746850D02*
Y652362D01*
X718346*
Y746850*
X804961*
X769528Y742913D02*
G03X769528I-7874J0D01*
G01X800591Y735039D02*
X802559Y737008D01*
Y733071*
X800591Y735039*
X474409Y783465D02*
X475965D01*
Y801181*
X474409*
X466535Y783465D02*
X464980D01*
Y801181*
X466535*
X475394Y789370D02*
Y790354D01*
X465551*
Y789370*
X475394*
Y784449D02*
Y788386D01*
X474409*
Y784449*
X475394*
X466535D02*
Y788386D01*
X465551*
Y784449*
X466535*
G54D38*
X553740Y743110D02*
Y747244D01*
X558465*
Y743110*
X553740Y739961D02*
Y735827D01*
X558465*
Y739961*
X553543Y808858D02*
X557677D01*
Y804134*
X553543*
X550394Y808858D02*
X546260D01*
Y804134*
X550394*
X558465Y709843D02*
Y705709D01*
X553740*
Y709843*
X558465Y712992D02*
Y717126D01*
X553740*
Y712992*
X517126Y842323D02*
Y846457D01*
X521850*
Y842323*
X517126Y839173D02*
Y835039D01*
X521850*
Y839173*
X552953Y790551D02*
X557087D01*
Y785827*
X552953*
X549803Y790551D02*
X545669D01*
Y785827*
X549803*
X529528Y730512D02*
Y726378D01*
X524803*
Y730512*
X529528Y733661D02*
Y737795D01*
X524803*
Y733661*
X545079Y792717D02*
X562795D01*
Y801378*
X545079*
Y792717*
X552953Y797047D02*
X554528D01*
X553740Y797835D02*
Y796260D01*
X544685Y792717D02*
X545079D01*
Y794291*
X544685*
Y792717*
Y799803D02*
X545079D01*
Y801378*
X544685*
Y799803*
X544291D02*
X544685D01*
Y801378*
X544291*
Y799803*
Y792717D02*
X544685D01*
Y794291*
X544291*
Y792717*
X543898Y799803D02*
X544291D01*
Y801378*
X543898*
Y799803*
Y792717D02*
X544291D01*
Y794291*
X543898*
Y792717*
X544685Y797047D02*
X542323D01*
X543504Y795866D02*
Y798228D01*
X545079Y811024D02*
X562795D01*
Y819685*
X545079*
Y811024*
X552953Y815354D02*
X554528D01*
X553740Y816142D02*
Y814567D01*
X544685Y811024D02*
X545079D01*
Y812598*
X544685*
Y811024*
Y818110D02*
X545079D01*
Y819685*
X544685*
Y818110*
X544291D02*
X544685D01*
Y819685*
X544291*
Y818110*
Y811024D02*
X544685D01*
Y812598*
X544291*
Y811024*
X543898Y818110D02*
X544291D01*
Y819685*
X543898*
Y818110*
Y811024D02*
X544291D01*
Y812598*
X543898*
Y811024*
X544685Y815354D02*
X542323D01*
X543504Y814173D02*
Y816535D01*
X513780Y834449D02*
Y852165D01*
X505118*
Y834449*
X513780*
X509449Y842323D02*
Y843898D01*
X508661Y843110D02*
X510236D01*
X513780Y834055D02*
Y834449D01*
X512205*
Y834055*
X513780*
X506693D02*
Y834449D01*
X505118*
Y834055*
X506693*
Y833661D02*
Y834055D01*
X505118*
Y833661*
X506693*
X513780D02*
Y834055D01*
X512205*
Y833661*
X513780*
X506693Y833268D02*
Y833661D01*
X505118*
Y833268*
X506693*
X513780D02*
Y833661D01*
X512205*
Y833268*
X513780*
X509449Y834055D02*
Y831693D01*
X510630Y832874D02*
X508268D01*
X561024Y833268D02*
X534646D01*
Y843504*
X561024*
Y833268*
X548622Y838386D02*
X547047D01*
X547835Y839173D02*
Y837598D01*
X513976Y776772D02*
X540354D01*
Y766535*
X513976*
Y776772*
X526378Y771654D02*
X527953D01*
X527165Y770866D02*
Y772441D01*
X498031Y775394D02*
Y786811D01*
X493307*
Y775394*
X498031*
X501181Y786811D02*
Y775394D01*
X505906*
Y786811*
X501181*
X666142Y775000D02*
X654724D01*
Y770276*
X666142*
Y775000*
X552648Y743465D02*
X554862D01*
X555305Y743357*
X555600Y743142*
X555748Y742820*
Y742606*
X555600Y742283*
X555305Y742069*
X554862Y741961*
X552648*
Y740780D02*
Y739599D01*
X553829Y740243*
Y739921*
X553976Y739707*
X554124Y739599*
X554567Y739492*
X554862*
X555305Y739599*
X555600Y739814*
X555748Y740136*
Y740458*
X555600Y740780*
X555453Y740888*
X555157Y740995*
X557047Y733185D02*
X557343Y733078D01*
X557638Y732863*
X557785Y732649*
Y732219*
X557638Y732004*
X557343Y731790*
X557047Y731682*
X556604Y731575*
X555866*
X555423Y731682*
X555128Y731790*
X554833Y732004*
X554685Y732219*
Y732649*
X554833Y732863*
X555128Y733078*
X555423Y733185*
X557195Y734152D02*
X557343Y734366D01*
X557343D02*
X557785Y734689D01*
X554685*
X557785Y736729D02*
X555719Y735655D01*
Y737266*
X557785Y736729D02*
X554685D01*
X562169Y806890D02*
X562276Y807185D01*
X562491Y807480*
X562706Y807628*
X563135*
X563350Y807480*
X563565Y807185*
X563672Y806890*
X563780Y806447*
Y805709*
X563672Y805266*
X563565Y804970*
X563350Y804675*
X563135Y804528*
X562706*
X562491Y804675*
X562276Y804970*
X562169Y805266*
X561203Y807037D02*
X560988Y807185D01*
X560666Y807628*
Y804528*
X558411Y807185D02*
X558518Y807480D01*
X558840Y807628*
X559055*
X559377Y807480*
X559592Y807037*
X559699Y806299*
Y805561*
X559592Y804970*
X559377Y804675*
X559055Y804528*
X558948*
X558626Y804675*
X558411Y804970*
X558304Y805413*
Y805561*
X558411Y806004*
X558626Y806299*
X558948Y806447*
X559055*
X559377Y806299*
X559592Y806004*
X559699Y805561*
X554882Y722287D02*
X554587Y722394D01*
X554291Y722609*
X554144Y722824*
Y723253*
X554291Y723468*
X554587Y723683*
X554882Y723790*
X555325Y723898*
X556063*
X556506Y723790*
X556801Y723683*
X557096Y723468*
X557244Y723253*
Y722824*
X557096Y722609*
X556801Y722394*
X556506Y722287*
X554734Y721321D02*
X554587Y721106D01*
X554144Y720784*
X557244*
X554144Y719603D02*
Y718422D01*
X555325Y719066*
Y718744*
X555472Y718529*
X555620Y718422*
X556063Y718314*
X556358*
X556801Y718422*
X557096Y718636*
X557244Y718958*
Y719281*
X557096Y719603*
X556949Y719710*
X556654Y719817*
X518740Y849807D02*
X518445Y849914D01*
X518150Y850129*
X518002Y850344*
Y850773*
X518150Y850988*
X518445Y851203*
X518740Y851310*
X519183Y851417*
X519921*
X520364Y851310*
X520659Y851203*
X520955Y850988*
X521102Y850773*
Y850344*
X520955Y850129*
X520659Y849914*
X520364Y849807*
X518740Y848733D02*
X518593D01*
X518297Y848626*
X518150Y848518*
X518002Y848304*
Y847874*
X518150Y847659*
X518297Y847552*
X518593Y847445*
X518888*
X519183Y847552*
X519626Y847767*
X521102Y848840*
Y847337*
X560594Y789567D02*
X560702Y789862D01*
X560916Y790157*
X561131Y790305*
X561560*
X561775Y790157*
X561990Y789862*
X562097Y789567*
X562205Y789124*
Y788386*
X562097Y787943*
X561990Y787648*
X561775Y787352*
X561560Y787205*
X561131*
X560916Y787352*
X560702Y787648*
X560594Y787943*
X558554Y790305D02*
X559628Y788238D01*
X558017*
X558554Y790305D02*
Y787205D01*
X528543Y722870D02*
X528839Y722763D01*
X529134Y722548*
X529281Y722334*
Y721904*
X529134Y721689*
X528839Y721475*
X528543Y721367*
X528100Y721260*
X527362*
X526919Y721367*
X526624Y721475*
X526329Y721689*
X526181Y721904*
Y722334*
X526329Y722548*
X526624Y722763*
X526919Y722870*
X529281Y725233D02*
Y724159D01*
X527953Y724052*
X528100Y724159*
X528248Y724481*
Y724803*
X528100Y725125*
X527805Y725340*
X527362Y725447*
X527067Y725340*
X526624Y725233*
X526329Y725018*
X526181Y724696*
Y724374*
X526329Y724052*
X526476Y723944*
X526772Y723837*
X566178Y795546D02*
X566070Y795251D01*
X565855Y794956*
X565641Y794808*
X565211*
X564996Y794956*
X564782Y795251*
X564674Y795546*
X564567Y795989*
Y796727*
X564674Y797170*
X564782Y797466*
X564996Y797761*
X565211Y797908*
X565641*
X565855Y797761*
X566070Y797466*
X566178Y797170*
X567895Y794808D02*
Y797908D01*
X567144Y794808D02*
X568647D01*
X569721Y795546D02*
Y795399D01*
X569828Y795103*
X569936Y794956*
X570150Y794808*
X570580*
X570795Y794956*
X570902Y795103*
X571009Y795399*
Y795694*
X570902Y795989*
X570687Y796432*
X569613Y797908*
X571117*
X566178Y811885D02*
X566070Y811590D01*
X565855Y811294*
X565641Y811147*
X565211*
X564996Y811294*
X564782Y811590*
X564674Y811885*
X564567Y812328*
Y813066*
X564674Y813509*
X564782Y813804*
X564996Y814099*
X565211Y814247*
X565641*
X565855Y814099*
X566070Y813804*
X566178Y813509*
X567895Y811147D02*
Y814247D01*
X567144Y811147D02*
X568647D01*
X569828D02*
X571009D01*
X570365Y812328*
X570687*
X570902Y812475*
X571009Y812623*
X571117Y813066*
Y813361*
X571009Y813804*
X570795Y814099*
X570472Y814247*
X570150*
X569828Y814099*
X569721Y813952*
X569613Y813656*
X516855Y846689D02*
X517151Y846582D01*
X517446Y846367*
X517594Y846152*
Y845723*
X517446Y845508*
X517151Y845293*
X516855Y845186*
X516412Y845079*
X515674*
X515231Y845186*
X514936Y845293*
X514641Y845508*
X514493Y845723*
Y846152*
X514641Y846367*
X514936Y846582*
X515231Y846689*
X517594Y848407D02*
X514493D01*
X517594Y847656D02*
Y849159D01*
X517003Y850125D02*
X517151Y850340D01*
X517594Y850662*
X514493*
X480817Y784252D02*
X477717D01*
X480817D02*
Y785004D01*
X480669Y785326*
X480374Y785540*
X480079Y785648*
X479636Y785755*
X478898*
X478455Y785648*
X478159Y785540*
X477864Y785326*
X477717Y785004*
Y784252*
X480226Y786722D02*
X480374Y786936D01*
X480817Y787258*
X477717*
X564134Y854365D02*
Y852151D01*
X564026Y851708*
X563812Y851412*
X563490Y851265*
X563275*
X562953Y851412*
X562738Y851708*
X562631Y852151*
Y854365*
X561664Y853775D02*
X561450Y853922D01*
X561127Y854365*
Y851265*
X510945Y757485D02*
Y759700D01*
X511052Y760143*
X511267Y760438*
X511589Y760586*
X511804*
X512126Y760438*
X512341Y760143*
X512448Y759700*
Y757485*
X513522Y758223D02*
Y758076D01*
X513629Y757781*
X513737Y757633*
X513951Y757485*
X514381*
X514596Y757633*
X514703Y757781*
X514810Y758076*
Y758371*
X514703Y758666*
X514488Y759109*
X513414Y760586*
X514918*
X494144Y792992D02*
X497244D01*
X494144D02*
Y792026D01*
X494291Y791704*
X494439Y791596*
X494734Y791489*
X495030*
X495325Y791596*
X495472Y791704*
X495620Y792026*
Y792992*
Y792241D02*
X497244Y791489D01*
X494734Y790523D02*
X494587Y790308D01*
X494144Y789986*
X497244*
X494734Y789019D02*
X494587Y788805D01*
X494144Y788482*
X497244*
X501821Y793268D02*
X504921D01*
X501821D02*
Y792301D01*
X501969Y791979*
X502116Y791872*
X502411Y791764*
X502707*
X503002Y791872*
X503150Y791979*
X503297Y792301*
Y793268*
Y792516D02*
X504921Y791764D01*
X502411Y790798D02*
X502264Y790583D01*
X501821Y790261*
X504921*
X502264Y788006D02*
X501969Y788114D01*
X501821Y788436*
Y788651*
X501969Y788973*
X502411Y789188*
X503150Y789295*
X503888*
X504478Y789188*
X504774Y788973*
X504921Y788651*
Y788543*
X504774Y788221*
X504478Y788006*
X504035Y787899*
X503888*
X503445Y788006*
X503150Y788221*
X503002Y788543*
Y788651*
X503150Y788973*
X503445Y789188*
X503888Y789295*
X667717Y770915D02*
Y774016D01*
Y770915D02*
X668683D01*
X669005Y771063*
X669112Y771211*
X669220Y771506*
Y771801*
X669112Y772096*
X669005Y772244*
X668683Y772392*
X667717*
X668468D02*
X669220Y774016D01*
X670293Y771654D02*
Y771506D01*
X670401Y771211*
X670508Y771063*
X670723Y770915*
X671152*
X671367Y771063*
X671475Y771211*
X671582Y771506*
Y771801*
X671475Y772096*
X671260Y772539*
X670186Y774016*
X671689*
X673729Y770915D02*
X672656Y772982D01*
X674266*
X673729Y770915D02*
Y774016D01*
G54D39*
X643622Y719606D02*
Y720309D01*
X643656Y720450*
X643724Y720544*
X643827Y720591*
X643895*
X643997Y720544*
X644065Y720450*
X644099Y720309*
Y719606*
X644747D02*
X644406Y720262D01*
X644917*
X644747Y719606D02*
Y720591D01*
X813742Y757401D02*
X813836Y757367D01*
X813930Y757299*
X813977Y757231*
X813977D02*
Y757094D01*
X813977D02*
X813930Y757026D01*
X813836Y756958*
X813742Y756924*
X813602Y756890*
X813602D02*
X813367D01*
X813227Y756924*
X813227D02*
X813133Y756958D01*
X813039Y757026*
X812992Y757094*
Y757231*
X813039Y757299*
X813133Y757367*
X813227Y757401*
X813977Y757912D02*
X813930Y757844D01*
X813836Y757776*
X813742Y757742*
X813602Y757708*
X813602D02*
X813367D01*
X813227Y757742*
X813227D02*
X813133Y757776D01*
X813039Y757844*
X812992Y757912*
Y758049*
X813039Y758117*
X813133Y758185*
X813227Y758219*
X813227D02*
X813367Y758253D01*
X813602*
X813602D02*
X813742Y758219D01*
X813836Y758185*
X813930Y758117*
X813977Y758049*
X813977D02*
Y757912D01*
Y758560D02*
X812992D01*
X813977D02*
X812992Y759037D01*
X813977D02*
X812992D01*
X812805Y759344D02*
Y760060D01*
X813836Y760674D02*
X813930Y760640D01*
X813977Y760537*
X813977D02*
Y760469D01*
X813977D02*
X813930Y760367D01*
X813789Y760299*
X813555Y760265*
X813320*
X813133Y760299*
X813039Y760367*
X812992Y760469*
Y760503*
X813039Y760606*
X813133Y760674*
X813273Y760708*
X813320*
X813461Y760674*
X813555Y760606*
X813602Y760503*
X813602D02*
Y760469D01*
X813602D02*
X813555Y760367D01*
X813461Y760299*
X813320Y760265*
X812805Y761015D02*
Y761731D01*
X813977Y761935D02*
X812992D01*
X813977D02*
Y762174D01*
X813977D02*
X813930Y762276D01*
X813836Y762344*
X813742Y762378*
X813602Y762412*
X813602D02*
X813367D01*
X813227Y762378*
X813227D02*
X813133Y762344D01*
X813039Y762276*
X812992Y762174*
Y761935*
X813977Y762924D02*
X813930Y762856D01*
X813836Y762787*
X813742Y762753*
X813602Y762719*
X813602D02*
X813367D01*
X813227Y762753*
X813227D02*
X813133Y762787D01*
X813039Y762856*
X812992Y762924*
Y763060*
X813039Y763128*
X813133Y763197*
X813227Y763231*
X813227D02*
X813367Y763265D01*
X813602*
X813602D02*
X813742Y763231D01*
X813836Y763197*
X813930Y763128*
X813977Y763060*
X813977D02*
Y762924D01*
Y763572D02*
X812992Y763742D01*
X813977Y763912D02*
X812992Y763742D01*
X813977Y763912D02*
X812992Y764083D01*
X813977Y764253D02*
X812992Y764083D01*
X813977Y764560D02*
X812992D01*
X813977D02*
X812992Y765037D01*
X813977D02*
X812992D01*
X813789Y765344D02*
X813836Y765412D01*
X813977Y765515*
X813977D02*
X812992D01*
X809134Y743858D02*
X810118D01*
X809134D02*
Y743620D01*
X809181Y743517*
X809274Y743449*
X809368Y743415*
X809509Y743381*
X809743*
X809884Y743415*
X809977Y743449*
X810071Y743517*
X810118Y743620*
Y743858*
X809134Y743074D02*
X810118D01*
X809134D02*
Y742631D01*
X809602Y743074D02*
Y742801D01*
X809134Y742324D02*
X810118D01*
X809134D02*
Y742017D01*
X809181Y741915*
X809227Y741881*
X809321Y741847*
X809462*
X809556Y741881*
X809602Y741915*
X809649Y742017*
Y742324*
X809134Y741540D02*
X810118D01*
Y741131*
X809134Y740551D02*
X810118Y740824D01*
X809134Y740551D02*
X810118Y740279D01*
X809790Y740722D02*
Y740381D01*
X809134Y739972D02*
X809602Y739699D01*
X810118*
X809134Y739426D02*
X809602Y739699D01*
X809134Y739120D02*
X810118D01*
X809134D02*
Y738676D01*
X809602Y739120D02*
Y738847D01*
X810118Y739120D02*
Y738676D01*
X809134Y738370D02*
X810118D01*
X809134D02*
Y738063D01*
X809181Y737961*
X809227Y737926*
X809321Y737892*
X809415*
X809509Y737926*
X809556Y737961*
X809602Y738063*
Y738370*
Y738131D02*
X810118Y737892D01*
X810306Y737586D02*
Y736870D01*
X809134Y736665D02*
X810118D01*
X809134D02*
X810118Y736392D01*
X809134Y736120D02*
X810118Y736392D01*
X809134Y736120D02*
X810118D01*
X809134Y735813D02*
X810118D01*
X809134Y735506D02*
X810118D01*
X809134D02*
X810118Y735029D01*
X809134D02*
X810118D01*
X809134Y734722D02*
X810118D01*
X809321Y734415D02*
X809274Y734347D01*
X809134Y734245*
X810118*
G74*
X0Y0D02*
M02*
