*
*
G04 PADS VX.2 Build Number: 5060570 generated Gerber (RS-274-X) file*
G04 PC Version=2.1*
*
%IN "NumberKing_rev7.pcb"*%
*
%MOIN*%
*
%FSLAX35Y35*%
*
*
*
*
G04 PC Standard Apertures*
*
*
G04 Thermal Relief Aperture macro.*
%AMTER*
1,1,$1,0,0*
1,0,$1-$2,0,0*
21,0,$3,$4,0,0,45*
21,0,$3,$4,0,0,135*
%
*
*
G04 Annular Aperture macro.*
%AMANN*
1,1,$1,0,0*
1,0,$2,0,0*
%
*
*
G04 Odd Aperture macro.*
%AMODD*
1,1,$1,0,0*
1,0,$1-0.005,0,0*
%
*
*
G04 PC Custom Aperture Macros*
*
*
*
*
*
*
G04 PC Aperture Table*
*
%ADD010C,0.001*%
%ADD028C,0.01*%
%ADD041R,0.04937X0.04937*%
%ADD042R,0.07X0.07*%
%ADD043C,0.07*%
%ADD044R,0.02575X0.08874*%
%ADD045C,0.02969*%
%ADD046R,0.07398X0.04543*%
%ADD047O,0.06906X0.10843*%
%ADD048C,0.06906*%
%ADD049R,0.20685X0.08874*%
%ADD050R,0.10843X0.10843*%
%ADD051C,0.10843*%
%ADD052C,0.24622*%
%ADD053C,0.08874*%
%ADD063R,0.10055X0.08874*%
*
*
*
*
G04 PC Circuitry*
G04 Layer Name NumberKing_rev7.pcb - circuitry*
%LPD*%
*
*
G04 PC Custom Flashes*
G04 Layer Name NumberKing_rev7.pcb - flashes*
%LPD*%
*
*
G04 PC Circuitry*
G04 Layer Name NumberKing_rev7.pcb - circuitry*
%LPD*%
*
G54D10*
G54D28*
G01X393700Y419303D02*
G75*
G03X419303Y393700I26969J1366D01*
G01X419291Y393701D02*
X813010D01*
X813005D02*
G03X838601Y419297I177J25419D01*
G01Y419291D02*
Y832710D01*
Y832688D02*
G03X813033Y858301I-25479J134D01*
G01X813010D02*
X496850D01*
Y830709*
X444178*
Y858268*
X419291Y858301*
X419270Y858300D02*
G03X393699Y832685I1464J-27032D01*
G01X393701Y832710D02*
Y419291D01*
G54D41*
X435039Y710236D03*
Y716929D03*
X755512Y718504D03*
X748819D03*
X762205Y818110D03*
Y811417D03*
X680512Y761024D03*
X673819D03*
X684646Y730315D03*
X677953D03*
X554921Y700000D03*
Y693307D03*
X819488Y742126D03*
X826181D03*
X487087Y497717D03*
X480394D03*
X823228Y681890D03*
X829921D03*
X802756Y754921D03*
X809449D03*
X706260Y496417D03*
X699567D03*
X487323Y504961D03*
X480630D03*
X723031Y602953D03*
X729724D03*
X754528Y599016D03*
X761220D03*
X786024Y595079D03*
X792717D03*
X446260Y411417D03*
X439567D03*
X525000D03*
X518307D03*
X603740D03*
X597047D03*
X477756D03*
X471063D03*
X682480D03*
X675787D03*
X556496D03*
X549803D03*
X471063Y599016D03*
X477756D03*
X761220Y411417D03*
X754528D03*
X635236D03*
X628543D03*
X581299Y848031D03*
X587992D03*
X713976Y411417D03*
X707283D03*
X650984Y848031D03*
X644291D03*
X792717Y411417D03*
X786024D03*
X806102Y784843D03*
Y778150D03*
X706496Y502677D03*
X699803D03*
X612795Y848031D03*
X619488D03*
X441339Y723425D03*
X434646D03*
X755512Y725591D03*
X748819D03*
X671063Y779331D03*
X664370D03*
X788780Y452362D03*
Y459055D03*
X779921Y452362D03*
Y459055D03*
X791929Y491142D03*
X798622D03*
X439567Y595079D03*
X446260D03*
X819252Y734016D03*
X825945D03*
X823346Y689055D03*
X830039D03*
X752953Y811614D03*
Y818307D03*
X743504Y811654D03*
Y818346D03*
X782677Y724409D03*
X775984D03*
X502559Y602953D03*
X509252D03*
X534055Y599016D03*
X540748D03*
X565551Y595079D03*
X572244D03*
X660039D03*
X666732D03*
X691535Y599016D03*
X698228D03*
X439567Y587205D03*
X446260D03*
X786024D03*
X792717D03*
X471063Y591142D03*
X477756D03*
X502559Y595079D03*
X509252D03*
X534055Y591142D03*
X540748D03*
X565551Y587205D03*
X572244D03*
X660039D03*
X666732D03*
X691535Y591142D03*
X698228D03*
X723031Y595079D03*
X729724D03*
X754528Y591142D03*
X761220D03*
X455315Y411417D03*
X462008D03*
X534055D03*
X540748D03*
X612795D03*
X619488D03*
X691535D03*
X698228D03*
X770276D03*
X776969D03*
X581299Y840157D03*
X587992D03*
X612795D03*
X619488D03*
X644291D03*
X650984D03*
X782677Y714961D03*
X775984D03*
G54D42*
X448819Y422047D03*
X458661D03*
X468504D03*
X527559D03*
X537402D03*
X547244D03*
X606299D03*
X616142D03*
X625984D03*
X685039D03*
X694882D03*
X704724D03*
X763780D03*
X773622D03*
X783465D03*
G54D43*
X820866Y754921D03*
Y764921D03*
Y774921D03*
Y784921D03*
Y794921D03*
Y804921D03*
X414291Y794291D03*
X424291D03*
X707256Y779016D03*
Y769016D03*
Y759016D03*
Y749016D03*
Y739016D03*
Y729016D03*
Y719016D03*
Y709016D03*
X778504Y470787D03*
X788504D03*
X798504D03*
X808504D03*
X778504Y480787D03*
X788504D03*
X798504D03*
X808504D03*
G54D44*
X751181Y840118D03*
X748622D03*
X746063D03*
X743504D03*
X740945D03*
G54D45*
X753937Y843110D03*
X738189D03*
G54D46*
X758711Y842283D03*
X733415D03*
G54D47*
X759941Y851575D03*
X732185D03*
G54D48*
X796654Y735039D03*
Y725039D03*
Y715039D03*
Y705039D03*
Y695039D03*
Y685039D03*
Y675039D03*
Y665039D03*
X726654D03*
Y675039D03*
Y685039D03*
Y695039D03*
Y705039D03*
Y715039D03*
Y725039D03*
Y735039D03*
X686496Y846260D03*
X676496D03*
X505906Y553543D03*
Y518110D03*
X726378Y553543D03*
Y518110D03*
G54D49*
X527165Y644882D03*
X704331D03*
G54D50*
X433465Y764961D03*
X748425D03*
X451772Y812902D03*
G54D51*
X433465Y745276D03*
X483858Y764961D03*
Y745276D03*
X748425D03*
X798819Y764961D03*
Y745276D03*
X470472Y812902D03*
X489173D03*
G54D52*
X411417Y832677D03*
X820866D03*
Y419291D03*
X411417D03*
G54D53*
X821654Y700055D03*
Y719740D03*
X811811Y696118D03*
Y723677D03*
X821654Y653031D03*
Y672717D03*
X811811Y649094D03*
Y676654D03*
G54D63*
X478346Y545276D03*
Y525591D03*
X533465Y545276D03*
Y525591D03*
X698819Y545276D03*
Y525591D03*
X753937Y545276D03*
Y525591D03*
G74*
X0Y0D02*
M02*
