M48
;FILE_FORMAT=2:4
INCH,LZ
FMAT,2
ICI,OFF
;TYPE=PLATED
T2C.01181
T4C.02362
T5C.0315
T6C.035
T7C.03543
T8C.04724
T9C.05118
T11C.1811
;TYPE=NON_PLATED
T1C.01181
T3C.02165
T10C.05906
%
M72
G90
G93X0Y0
T1C.01181F095S3
X075733Y084228G85X076009Y084228
X073204Y084228G85X073479Y084228
T2C.01181F095S3
X044213Y042205
X04498Y045217
X045394Y045217
X045807Y045217
X047461Y045039
X047874Y045039
X048287Y045039
X04935Y043327
X049469Y044094
X049705Y045039
X049764Y043327
X049882Y044094
X050118Y045039
X050177Y043327
X050295Y044094
X050531Y045039
X052126Y042205
X052185Y045335
X052598Y045335
X053012Y045335
X054252Y045276
X054665Y045276
X055079Y045276
X056024Y045217
X056083Y043327
X056083Y044154
X056437Y045217
X056496Y043327
X056496Y044154
X05685Y045217
X056909Y044154
X056909Y043327
X057736Y044035
X057736Y043327
X057854Y045217
X05815Y044035
X05815Y043327
X058268Y045217
X058563Y044035
X058563Y043327
X058681Y045217
X060098Y042205
X060866Y045689
X060984Y045039
X06128Y045689
X061398Y045039
X061693Y045689
X061811Y045039
X063228Y04563
X063228Y044862
X063642Y04563
X063642Y044862
X063819Y043858
X063819Y04315
X064055Y04563
X064055Y044862
X064232Y04315
X064232Y043858
X064646Y04315
X064646Y043858
X065531Y043209
X065531Y043917
X065591Y044862
X06565Y04563
X065945Y043917
X065945Y043209
X066004Y044862
X066063Y04563
X066358Y043209
X066358Y043917
X066417Y044862
X066476Y04563
X067835Y042205
X068898Y045748
X068898Y045039
X069311Y045748
X069311Y045039
X069724Y045748
X069724Y045039
X07061Y044862
X070728Y04563
X071024Y044862
X071142Y04563
X071437Y044862
X071555Y04563
X071909Y041142
X074213Y044508
X074272Y045512
X074626Y044508
X074685Y045512
X075039Y044508
X075098Y045512
X075571Y042205
X080177Y040787
X080591Y040846
X07935Y045984
X076457Y046693
X072146Y046457
X070138Y046339
X06748Y046457
X059626Y046457
X058681Y046043
X058268Y046043
X057854Y046043
X05685Y046043
X056437Y046043
X056024Y046043
X05502Y046043
X054606Y046043
X054193Y046043
X053012Y045984
X052598Y045984
X052185Y045984
X051122Y046457
X050472Y045925
X050059Y045925
X049646Y045925
X048287Y045866
X047874Y045866
X047461Y045866
X045807Y045984
X045394Y045984
X04498Y045984
X043386Y047579
X039961Y052657
X040374Y052657
X040787Y052657
X046339Y05313
X046752Y05313
X047165Y05313
X049409Y050709
X050413Y053189
X050827Y053189
X05124Y053189
X05124Y052008
X057559Y050236
X057618Y049469
X057972Y050236
X057972Y052008
X058031Y049469
X058091Y05124
X058386Y050236
X058386Y052008
X058445Y049469
X058504Y05124
X058917Y052126
X058917Y05124
X060748Y049409
X060925Y050354
X061161Y049409
X061339Y050354
X061575Y049409
X061752Y050354
X06252Y052421
X062933Y052421
X063346Y052421
X067303Y052657
X067717Y052657
X06813Y052657
X068602Y048346
X072146Y05313
X072559Y05313
X072972Y05313
X079114Y051476
X07687Y05372
X072913Y053898
X0725Y053898
X072087Y053898
X06872Y05502
X068307Y05502
X068071Y053543
X067894Y05502
X067657Y053543
X067244Y053543
X066535Y055492
X066535Y054665
X066122Y055492
X066122Y054665
X065709Y055492
X065709Y054665
X062933Y053543
X06252Y053543
X062106Y053543
X055433Y055433
X051299Y054016
X050886Y054016
X050472Y054016
X047047Y053957
X046634Y053957
X04622Y053957
X04498Y054193
X04498Y053425
X044567Y054193
X044567Y053425
X044154Y053425
X044154Y054193
X040728Y055728
X040728Y053366
X040315Y053366
X040315Y055728
X039902Y055728
X039902Y053366
X039961Y05815
X039961Y056614
X040374Y056614
X040374Y05815
X040787Y05815
X040787Y056614
X046634Y056378
X046634Y057087
X047047Y056378
X047047Y057087
X047461Y056378
X047461Y057087
X050177Y056732
X050236Y057559
X050591Y056732
X05065Y057559
X051004Y056732
X051063Y057559
X06813Y056024
X068543Y056024
X068957Y056024
X083189Y059154
X080177Y059094
X079882Y059921
X064291Y058504
X064114Y059213
X063996Y060689
X063878Y058504
X063701Y059213
X063583Y060689
X063465Y058504
X063287Y059213
X063169Y060689
X044862Y060748
X044449Y060748
X044035Y060748
X040787Y058799
X040374Y058799
X039961Y058799
X04002Y061043
X04002Y062756
X040079Y061575
X040433Y061043
X040433Y062756
X040492Y061575
X040846Y062756
X040906Y061575
X040906Y060866
X043917Y062461
X043917Y06311
X043976Y061457
X044331Y062461
X044331Y06311
X04439Y061457
X044744Y062461
X044744Y06311
X044803Y061457
X047815Y062283
X047815Y06311
X048228Y062283
X048228Y06311
X048642Y062283
X048642Y06311
X050236Y063228
X050295Y062165
X05065Y063228
X050709Y062165
X051063Y063228
X051122Y062165
X05313Y062106
X05313Y062933
X053543Y062106
X053543Y062933
X053957Y062933
X053957Y062106
X063051Y061516
X063465Y061516
X063878Y061516
X064705Y062047
X064764Y061398
X065118Y062047
X065177Y061398
X065531Y062047
X065591Y061398
X072559Y063406
X067776Y063406
X057736Y064409
X057441Y064114
X057146Y064409
X05685Y064114
X056555Y064409
X047874Y065177
X047874Y064409
X047461Y065177
X047461Y064409
X047047Y065177
X047047Y064409
X044744Y065
X044744Y064173
X044331Y065
X044331Y064173
X043917Y064173
X043917Y065
X040965Y063819
X040906Y065709
X040551Y063819
X040492Y065709
X040138Y063819
X040079Y065709
X040138Y066831
X040551Y066831
X040965Y066831
X043976Y066122
X044035Y066949
X04439Y066122
X044449Y066949
X044803Y066122
X044862Y066949
X054252Y066949
X05437Y067717
X054665Y066949
X054783Y067717
X055079Y066949
X055197Y067717
X058031Y066713
X063996Y067303
X063996Y068248
X064409Y067303
X064409Y068248
X064823Y067303
X064823Y068248
X069902Y066063
X075335Y066654
X075394Y067421
X075748Y066654
X075807Y067421
X076161Y066654
X07622Y067421
X077224Y066831
X077224Y067539
X077638Y066831
X077638Y067539
X078051Y067539
X078051Y066831
X081831Y068898
X078228Y070492
X078228Y069961
X077815Y070492
X077815Y069961
X077402Y070492
X077402Y069961
X076575Y070492
X076457Y069488
X076161Y070492
X076043Y069488
X075748Y070492
X07563Y069488
X065768Y06937
X065531Y068839
X064232Y069252
X060748Y069724
X060453Y069961
X056024Y069252
X04563Y068661
X044272Y070138
X043504Y070433
X040965Y069488
X040906Y07061
X040906Y068543
X040551Y069488
X040492Y068543
X040492Y07061
X040138Y069488
X040079Y07061
X040079Y068543
X040138Y071496
X040551Y071496
X040965Y071496
X050354Y071555
X050472Y072323
X050768Y071555
X050886Y072323
X051181Y071555
X051299Y072323
X058327Y072677
X059213Y072972
X059508Y071909
X059803Y071555
X060098Y071909
X060453Y071555
X060748Y071909
X061634Y071909
X063465Y071378
X065Y072854
X067303Y073031
X067421Y071083
X073386Y073268
X073799Y073268
X074213Y073268
X07628Y072441
X081299Y074744
X077874Y074567
X074272Y073917
X073858Y073917
X073445Y073917
X072205Y075512
X069429Y075394
X069016Y073858
X06878Y073563
X067717Y073858
X067717Y074803
X066949Y074449
X066713Y074744
X066476Y075098
X06624Y075394
X066004Y075689
X06063Y074744
X059035Y073858
X058031Y074094
X040846Y075394
X040433Y075394
X04002Y075394
X04002Y076102
X040433Y076102
X040846Y076102
X050886Y077756
X055079Y07752
X055079Y076929
X056555Y07687
X05685Y076575
X057146Y07687
X057441Y076575
X057736Y07628
X057854Y077933
X057913Y077224
X059094Y076339
X059921Y076043
X060394Y077165
X061988Y078051
X062283Y077638
X062579Y077283
X062874Y076988
X063169Y076634
X065177Y076043
X065768Y076043
X065827Y077874
X065827Y076634
X066772Y076634
X06813Y077402
X06878Y077165
X069016Y076929
X076811Y081713
X075394Y082539
X074213Y080059
X074094Y082539
X073799Y079823
X073799Y08065
X073681Y083071
X073268Y079173
X066713Y081831
X066476Y082185
X065354Y080413
X065177Y078524
X065059Y080768
X064823Y079528
X064705Y083071
X064291Y082776
X064232Y079941
X063051Y083071
X062461Y082776
X062283Y080236
X062224Y080945
X06187Y080236
X061811Y080945
X061398Y080945
X061398Y080236
X05874Y081594
X057677Y081004
X057441Y078346
X063465Y084783
X06565Y084783
X069606Y085197
X069665Y084547
X07002Y085197
X070079Y084547
X070433Y085197
X070492Y084547
X071201Y084961
X071496Y084193
X071614Y084961
X071909Y084193
X072028Y084961
X078996Y084311
X079055Y083602
X079409Y084311
X079469Y083602
X079823Y084311
X079882Y083602
T3C.02165F197S55
X073819Y084311
X075394Y084311
T4C.02362F197S55
X052047Y064488G85X053386Y064488
X069764Y064488G85X071102Y064488
T5C.0315F197S55
X075994Y085295G85X075994Y08502
X073219Y085295G85X073219Y08502
T6C.035F197S55
X07785Y047079
X07785Y048079
X07885Y047079
X07885Y048079
X07985Y047079
X07985Y048079
X08085Y047079
X08085Y048079
X070726Y072902
X070726Y071902
X070726Y070902
X041429Y079429
X042429Y079429
X070726Y076902
X070726Y075902
X070726Y077902
X070726Y074902
X070726Y073902
X082087Y077492
X082087Y078492
X082087Y079492
X082087Y080492
X082087Y075492
X082087Y076492
T7C.03543F197S55
X072665Y066504
X072665Y067504
X079665Y067504
X079665Y066504
X079665Y069504
X079665Y068504
X079665Y070504
X079665Y072504
X079665Y071504
X072665Y070504
X072665Y068504
X072665Y069504
X072665Y071504
X072665Y072504
X06765Y084626
X06865Y084626
X072665Y073504
X079665Y073504
T8C.04724F139S55
X043346Y074528
X048386Y074528
X074843Y074528
X079882Y074528
X079882Y076496
X074843Y076496
X048386Y076496
X043346Y076496
T9C.05118F107S55
X081181Y064909
X082165Y065303
X082165Y067272
X082165Y070006
X082165Y071974
X081181Y069612
X081181Y067665
X081181Y072368
X045177Y08129
X047047Y08129
X048917Y08129
T10C.05906F107S55
X050591Y051811
X050591Y055354
X072638Y055354
X072638Y051811
T11C.1811F035S1033
X041142Y041929
X082087Y041929
X082087Y083268
X041142Y083268
M30
