*
*
G04 PADS VX.2 Build Number: 5060570 generated Gerber (RS-274-X) file*
G04 PC Version=2.1*
*
%IN "MASTER_rev3.pcb"*%
*
%MOIN*%
*
%FSLAX35Y35*%
*
*
*
*
G04 PC Standard Apertures*
*
*
G04 Thermal Relief Aperture macro.*
%AMTER*
1,1,$1,0,0*
1,0,$1-$2,0,0*
21,0,$3,$4,0,0,45*
21,0,$3,$4,0,0,135*
%
*
*
G04 Annular Aperture macro.*
%AMANN*
1,1,$1,0,0*
1,0,$2,0,0*
%
*
*
G04 Odd Aperture macro.*
%AMODD*
1,1,$1,0,0*
1,0,$1-0.005,0,0*
%
*
*
G04 PC Custom Aperture Macros*
*
*
*
*
*
*
G04 PC Aperture Table*
*
%ADD010C,0.001*%
%ADD011C,0.05906*%
%ADD013C,0.01*%
%ADD018C,0.23622*%
%ADD020C,0.01969*%
%ADD027C,0.06*%
%ADD032C,0.03937*%
%ADD034C,0.00787*%
%ADD035C,0.02362*%
%ADD036C,0.015*%
%ADD059R,0.09843X0.09843*%
%ADD060C,0.09843*%
%ADD061C,0.0689*%
%ADD062C,0.17717*%
%ADD064R,0.09843X0.19685*%
%ADD065O,0.09843X0.19685*%
%ADD070C,0.00984*%
%ADD084R,0.19685X0.07874*%
*
*
*
*
G04 PC Circuitry*
G04 Layer Name MASTER_rev3.pcb - circuitry*
%LPD*%
*
*
G04 PC Custom Flashes*
G04 Layer Name MASTER_rev3.pcb - flashes*
%LPD*%
*
*
G04 PC Circuitry*
G04 Layer Name MASTER_rev3.pcb - circuitry*
%LPD*%
*
G54D10*
G54D11*
G01X639961Y529724D03*
Y565157D03*
G54D13*
X822004Y617323D02*
G75*
G03X822004I-4484J0D01*
G01Y627323D02*
G03X822004I-4484J0D01*
G01Y637323D02*
G03X822004I-4484J0D01*
G01Y647323D02*
G03X822004I-4484J0D01*
G01Y657323D02*
G03X822004I-4484J0D01*
G01Y667323D02*
G03X822004I-4484J0D01*
G01X798138Y707283D02*
G03X798138I-2666J0D01*
G01X773728Y608071D02*
G03X773728I-2665J0D01*
G01X757783Y524803D02*
G03X757783I-2665J0D01*
G01X739476Y589764D02*
G03X739476I-2665J0D01*
G01X732390Y498819D02*
G03X732390I-2666J0D01*
G01X718217Y561417D02*
G03X718217I-2666J0D01*
G01X717035Y573819D02*
G03X717035I-2665J0D01*
G01X711130Y499409D02*
G03X711130I-2665J0D01*
G01X701091Y482283D02*
G03X701091I-2666J0D01*
G01X701287Y576772D02*
G03X701287I-3452J0D01*
G01X644398Y529724D02*
G03X644398I-4437J0D01*
G01X649909Y546063D02*
G03X649909I-3452J0D01*
G01X644398Y565157D02*
G03X644398I-4437J0D01*
G01Y580315D02*
G03X644398I-2666J0D01*
G01X642626Y590354D02*
G03X642626I-2665J0D01*
G01X580618Y437992D02*
G03X580618I-2665J0D01*
G01X557587Y442717D02*
G03X557587I-2666J0D01*
G01X546957Y446260D02*
G03X546957I-2666J0D01*
G01X537508Y449213D02*
G03X537508I-2665J0D01*
G01X525697Y455709D02*
G03X525697I-2666J0D01*
G01X520382Y460433D02*
G03X520382I-2665J0D01*
G01X514476Y466339D02*
G03X514476I-2665J0D01*
G01X619004Y469882D02*
G03X619004I-2665J0D01*
G01X611327Y592717D02*
G03X611327I-2666J0D01*
G01X580618Y557874D02*
G03X580618I-2665J0D01*
G01X584161Y577362D02*
G03X584161I-2665J0D01*
G01X565854Y494685D02*
G03X565854I-2665J0D01*
G01X567626Y577362D02*
G03X567626I-2665J0D01*
G01X555224Y511811D02*
G03X555224I-2665J0D01*
G01X558177Y582677D02*
G03X558177I-2665J0D01*
G01X544595Y505315D02*
G03X544595I-2666J0D01*
G01X536917Y518307D02*
G03X536917I-2665J0D01*
G01X513295Y576181D02*
G03X513295I-2665J0D01*
G01X727665Y623425D02*
G03X727665I-2665J0D01*
G01X750303Y721457D02*
G03X750303I-6405J0D01*
G01Y741142D02*
G03X750303I-6405J0D01*
G01X714673Y782283D02*
G03X714673I-2665J0D01*
G01X709358Y789961D02*
G03X709358I-2665J0D01*
G01X708177Y805906D02*
G03X708177I-2665J0D01*
G01X699909Y721457D02*
G03X699909I-6405J0D01*
G01X689280Y756890D02*
G03X689280I-2666J0D01*
G01Y777559D02*
G03X689280I-2666J0D01*
G01X682193Y688386D02*
G03X682193I-2665J0D01*
G01X675106Y619291D02*
G03X675106I-2665J0D01*
G01X646169Y717913D02*
G03X646169I-2665J0D01*
G01X638492Y751575D02*
G03X638492I-2665J0D01*
G01X644004Y810039D02*
G03X644004I-3453J0D01*
G01X632587Y619882D02*
G03X632587I-2666J0D01*
G01X630224Y683071D02*
G03X630224I-2665J0D01*
G01X629043Y724409D02*
G03X629043I-2665J0D01*
G01X698138Y834843D02*
G03X698138I-2666J0D01*
G01X647350Y848425D02*
G03X647350I-2665J0D01*
G01X611327Y703740D02*
G03X611327I-2666J0D01*
G01X604240Y681299D02*
G03X604240I-2665J0D01*
G01X601287Y700787D02*
G03X601287I-2665J0D01*
G01X583571Y622835D02*
G03X583571I-2665J0D01*
G01X592823Y721457D02*
G03X592823I-6406J0D01*
G01Y741142D02*
G03X592823I-6406J0D01*
G01X593610Y831890D02*
G03X593610I-2665J0D01*
G01X574122Y662992D02*
G03X574122I-2665J0D01*
G01X578256Y687795D02*
G03X578256I-2665J0D01*
G01X533374Y701378D02*
G03X533374I-2665J0D01*
G01X542429Y721457D02*
G03X542429I-6405J0D01*
G01X516642Y638386D02*
G03X516642I-2666J0D01*
G01X477272Y577362D02*
G03X477272I-2666J0D01*
G01X532783Y769882D02*
G03X532783I-2665J0D01*
G01X473335Y679528D02*
G03X473335I-3453J0D01*
G01X437114Y598031D02*
G03X437114I-2665J0D01*
G01X544004Y823622D02*
G03X544004I-2665J0D01*
G01X434752Y694291D02*
G03X434752I-2665J0D01*
G01X428256Y648819D02*
G03X428256I-2665J0D01*
G01X870760Y639370D02*
G03X806161Y799513I-230799J0D01*
X805301Y799166I-360J-347*
X805355Y798939I500J-0*
G01X806799Y792913D02*
G03X805355Y798939I-13295J0D01*
G01X780209Y792913D02*
G03X806799I13295J0D01*
G01X799530Y804765D02*
G03X780209Y792913I-6026J-11852D01*
G01X799530Y804765D02*
G03X800256Y805210I226J445D01*
X800103Y805570I-500J0*
X479818I-160142J-166200*
X479665Y805210I347J-360*
X480391Y804765I500J0*
G01X499713Y792913D02*
G03X480391Y804765I-13296J0D01*
G01X473122Y792913D02*
G03X499713I13295J0D01*
G01X474566Y798939D02*
G03X473122Y792913I11851J-6026D01*
G01X474566Y798939D02*
G03X474620Y799166I-446J227D01*
X473760Y799513I-500J-0*
X409161Y639370I166201J-160143*
G01X409161*
G03X473760Y479227I230800J0*
X474620Y479574I360J347*
X474566Y479801I-500J0*
G01X473122Y485827D02*
G03X474566Y479801I13295J-0D01*
G01X499713Y485827D02*
G03X473122I-13296J-0D01*
G01X480391Y473975D02*
G03X499713Y485827I6026J11852D01*
G01X480391Y473975D02*
G03X479665Y473530I-226J-445D01*
X479818Y473170I500J-0*
X800103I160143J166200*
X800256Y473530I-347J360*
X799530Y473975I-500J-0*
G01X780209Y485827D02*
G03X799530Y473975I13295J-0D01*
G01X806799Y485827D02*
G03X780209I-13295J-0D01*
G01X805355Y479801D02*
G03X806799Y485827I-11851J6026D01*
G01X805355Y479801D02*
G03X805301Y479574I446J-227D01*
X806161Y479227I500J0*
X870760Y639370I-166200J160143*
G01X870760*
X482948Y750042D02*
G03X482396Y750539I-500J-0D01*
G01X470982Y760826D02*
G03X482396Y750539I10342J-0D01*
G01X471161Y762744D02*
G03X470982Y760826I10163J-1918D01*
G01X471161Y762744D02*
G03X471170Y762837I-491J93D01*
X470316Y763191I-500J0*
G01X467871Y760745*
G03X467724Y760392I353J-353*
G01Y749648*
G03X467871Y749294I500J-0*
G01X476397Y740768*
G03X477013Y740696I354J354*
G01X480031Y741410D02*
G03X477013Y740696I-431J-4910D01*
G01X480031Y741410D02*
G03X480575Y741908I44J498D01*
X480484Y742195I-500J0*
G01X479592Y745024D02*
G03X480484Y742195I4929J-0D01*
G01X482639Y749580D02*
G03X479592Y745024I1882J-4556D01*
G01X482639Y749580D02*
G03X482948Y750042I-191J462D01*
G01X840756Y676772D02*
Y561614D01*
X840177Y560217D02*
G03X840756Y561614I-1397J1397D01*
G01X840177Y560217D02*
X819508Y539547D01*
X818110Y538968D02*
G03X819508Y539547I0J1977D01*
G01X818110Y538968D02*
X804227D01*
G03X803867Y538816I-0J-500*
G01X799890Y537330D02*
G03X803867Y538816I432J4910D01*
G01X799890Y537330D02*
G03X799347Y536832I-43J-498D01*
X799437Y536545I500J-0*
G01X800329Y533716D02*
G03X799437Y536545I-4929J0D01*
G01X797282Y529161D02*
G03X800329Y533716I-1882J4555D01*
G01X797282Y529161D02*
G03X796973Y528698I191J-463D01*
X797525Y528201I500J0*
G01X808939Y517914D02*
G03X797525Y528201I-10342J0D01*
G01X788254Y517914D02*
G03X808939I10343J0D01*
G01X795586Y527809D02*
G03X788254Y517914I3011J-9895D01*
G01X795586Y527809D02*
G03X795941Y528287I-145J478D01*
X795437Y528787I-500J0*
G01X790471Y533716D02*
G03X795437Y528787I4929J0D01*
G01X795832Y538626D02*
G03X790471Y533716I-432J-4910D01*
G01X795832Y538626D02*
G03X796375Y539125I43J499D01*
X796285Y539411I-500J-0*
G01X795449Y541497D02*
G03X796285Y539411I4873J743D01*
G01X795449Y541497D02*
G03X794955Y541921I-494J-76D01*
G01X787640*
G03X787286Y541775I-0J-500*
G01X781847Y536336*
G03X781701Y535982I354J-354*
G01Y522244*
X781122Y520847D02*
G03X781701Y522244I-1398J1397D01*
G01X781122Y520847D02*
X714193Y453917D01*
X712795Y453339D02*
G03X714193Y453917I0J1976D01*
G01X712795Y453339D02*
X696104D01*
X696104D02*
G03X695751Y453192I0J-500D01*
G01X669901Y427343*
X668504Y426764D02*
G03X669901Y427343I-0J1976D01*
G01X668504Y426764D02*
X662599D01*
X661201Y427343D02*
G03X662599Y426764I1397J1397D01*
G01X661201Y427343D02*
X648147Y440397D01*
G03X647793Y440543I-354J-354*
G01X641929*
X640532Y441122D02*
G03X641929Y440543I1397J1398D01*
G01X640532Y441122D02*
X634626Y447028D01*
X634501Y447165D02*
G03X634626Y447028I1523J1260D01*
G01X634501Y447165D02*
G03X634292Y447314I-385J-319D01*
G01X631556Y449847D02*
G03X634292Y447314I4468J2082D01*
G01X631556Y449847D02*
G03X630649I-454J-211D01*
G01X623177Y448021D02*
G03X630649Y449847I3004J3908D01*
G01X623177Y448021D02*
G03X622372Y447625I-305J-396D01*
X622467Y447331I500J-0*
G01X624437Y441260D02*
G03X622467Y447331I-10343J-0D01*
G01X603752Y441260D02*
G03X624437I10342J-0D01*
G01X621158Y448815D02*
G03X603752Y441260I-7064J-7555D01*
G01X621158Y448815D02*
G03X622000Y449180I342J365D01*
X621931Y449433I-500J-0*
G01X621252Y451929D02*
G03X621931Y449433I4929J0D01*
G01X630649Y454011D02*
G03X621252Y451929I-4468J-2082D01*
G01X630649Y454011D02*
G03X631556I453J211D01*
G01X632075Y454879D02*
G03X631556Y454011I3949J-2950D01*
G01X632075Y454879D02*
G03X632174Y455178I-401J299D01*
X632028Y455532I-500J0*
G01X628462Y459098*
G03X628108Y459244I-354J-354*
G01X559252*
X557854Y459823D02*
G03X559252Y459244I1398J1397D01*
G01X557854Y459823D02*
X496831Y520847D01*
X496252Y522244D02*
G03X496831Y520847I1976J0D01*
G01X496252Y522244D02*
Y537768D01*
G03X495583Y538239I-500J-0*
G01X494986Y538100D02*
G03X495583Y538239I-301J2648D01*
G01X494986Y538100D02*
G03X494688Y537956I56J-497D01*
G01X489417Y532685*
G03X489287Y532459I353J-354*
G01X484484Y528787D02*
G03X489287Y532459I37J4929D01*
G01X484484Y528787D02*
G03X483981Y528287I-3J-500D01*
X484335Y527809I500J0*
G01X491667Y517914D02*
G03X484335Y527809I-10343J0D01*
G01X470982Y517914D02*
G03X491667I10342J0D01*
G01X482396Y528201D02*
G03X470982Y517914I-1072J-10287D01*
G01X482396Y528201D02*
G03X482948Y528698I52J497D01*
X482639Y529161I-500J0*
G01X479592Y533716D02*
G03X482639Y529161I4929J0D01*
G01X480484Y536545D02*
G03X479592Y533716I4037J-2829D01*
G01X480484Y536545D02*
G03X480575Y536832I-409J287D01*
X480031Y537330I-500J-0*
G01X474671Y542240D02*
G03X480031Y537330I4929J0D01*
G01X474873Y543639D02*
G03X474671Y542240I4727J-1399D01*
G01X474873Y543639D02*
G03X474894Y543780I-479J141D01*
X474510Y544267I-500J0*
G01X470734Y549059D02*
G03X474510Y544267I4929J0D01*
G01X471626Y551888D02*
G03X470734Y549059I4037J-2829D01*
G01X471626Y551888D02*
G03X471716Y552175I-410J287D01*
X471173Y552673I-500J-0*
G01X465812Y557583D02*
G03X471173Y552673I4929J0D01*
G01X465855Y558231D02*
G03X465812Y557583I4886J-648D01*
G01X465855Y558231D02*
G03X465859Y558297I-496J66D01*
X464903Y558500I-500J-0*
G01X445116Y562716D02*
G03X464903Y558500I10342J-0D01*
G01X465801Y562716D02*
G03X445116I-10343J-0D01*
G01X465533Y560376D02*
G03X465801Y562716I-10075J2340D01*
G01X465533Y560376D02*
G03X465520Y560263I487J-113D01*
X466454Y560016I500J-0*
G01X475671Y557583D02*
G03X466454Y560016I-4930J0D01*
G01X474778Y554754D02*
G03X475671Y557583I-4037J2829D01*
G01X474778Y554754D02*
G03X474688Y554467I410J-287D01*
X475231Y553969I500J0*
G01X476286Y553949D02*
G03X475231Y553969I-623J-4890D01*
G01X476286Y553949D02*
G03X476355Y553945I63J496D01*
G01X476378D02*
G03X476355I-0J-1976D01*
G01X476378D02*
X487598D01*
X488996Y553366D02*
G03X487598Y553945I-1398J-1397D01*
G01X488996Y553366D02*
X499626Y542736D01*
X500205Y541339D02*
G03X499626Y542736I-1977J-0D01*
G01X500205Y541339D02*
Y523270D01*
G03X500351Y522916I500J-0*
G01X559924Y463343*
G03X560278Y463197I354J354*
G01X629134*
X630531Y462618D02*
G03X629134Y463197I-1397J-1398D01*
G01X630531Y462618D02*
X636167Y456982D01*
G03X636475Y456838I354J353*
G01X639598Y455323D02*
G03X636475Y456838I-3574J-3394D01*
G01X639598Y455323D02*
G03X640323I363J345D01*
G01X648366Y454011D02*
G03X640323Y455323I-4468J-2082D01*
G01X648366Y454011D02*
G03X649272I453J211D01*
G01X658669Y451929D02*
G03X649272Y454011I-4929J0D01*
G01X657991Y449433D02*
G03X658669Y451929I-4251J2496D01*
G01X657991Y449433D02*
G03X657922Y449180I431J-253D01*
X658763Y448815I500J-0*
G01X676169Y441260D02*
G03X658763Y448815I-10342J-0D01*
G01X676169Y441260D02*
X676169D01*
X676135Y440412D02*
G03X676169Y441260I-10308J848D01*
G01X676135Y440412D02*
G03X676133Y440371I498J-41D01*
X676986Y440018I500J0*
G01X693681Y456712*
X695079Y457291D02*
G03X693681Y456712I-0J-1976D01*
G01X695079Y457291D02*
X711770D01*
G03X712123Y457438I-0J500*
G01X777602Y522916*
G03X777748Y523270I-354J354*
G01Y537008*
X778327Y538405D02*
G03X777748Y537008I1397J-1397D01*
G01X778327Y538405D02*
X785217Y545295D01*
X786614Y545874D02*
G03X785217Y545295I0J-1976D01*
G01X786614Y545874D02*
X796802D01*
G03X797126Y545993I0J500*
G01X799169Y547033D02*
G03X797126Y545993I1153J-4793D01*
G01X799169Y547033D02*
G03X799553Y547519I-116J486D01*
X799532Y547661I-500J-0*
G01X799329Y549059D02*
G03X799532Y547661I4930J0D01*
G01X804690Y553969D02*
G03X799329Y549059I-431J-4910D01*
G01X804690Y553969D02*
G03X805234Y554467I44J498D01*
X805143Y554754I-500J0*
G01X804251Y557583D02*
G03X805143Y554754I4929J0D01*
G01X813467Y560016D02*
G03X804251Y557583I-4287J-2433D01*
G01X813467Y560016D02*
G03X814402Y560263I435J247D01*
X814389Y560376I-500J-0*
G01X834806Y562716D02*
G03X814389Y560376I-10343J-0D01*
G01X834749Y561635D02*
G03X834806Y562716I-10286J1081D01*
G01X834749Y561635D02*
G03X834746Y561583I497J-52D01*
G01X834746*
G03X835600Y561230I500J0*
G01X836657Y562286*
G03X836803Y562640I-354J354*
G01Y675746*
G03X836657Y676099I-500J-0*
G01X800965Y711791*
X800386Y713189D02*
G03X800965Y711791I1976J-0D01*
G01X800386Y713189D02*
Y726463D01*
G03X800289Y726760I-500J0*
G01X799329Y729681D02*
G03X800289Y726760I4930J0D01*
G01X799532Y731079D02*
G03X799329Y729681I4727J-1398D01*
G01X799532Y731079D02*
G03X799553Y731221I-479J142D01*
X799169Y731707I-500J0*
G01X795392Y736500D02*
G03X799169Y731707I4930J0D01*
G01X796285Y739329D02*
G03X795392Y736500I4037J-2829D01*
G01X796285Y739329D02*
G03X796375Y739616I-410J287D01*
X795832Y740114I-500J-0*
G01X790471Y745024D02*
G03X795832Y740114I4929J-0D01*
G01X795437Y749953D02*
G03X790471Y745024I-37J-4929D01*
G01X795437Y749953D02*
G03X795941Y750453I4J500D01*
X795586Y750931I-500J-0*
G01X788254Y760826D02*
G03X795586Y750931I10343J-0D01*
G01X792747Y769355D02*
G03X788254Y760826I5850J-8529D01*
G01X792747Y769355D02*
G03X792965Y769768I-282J413D01*
X792465Y770268I-500J-0*
G01X765077*
X763680Y770847D02*
G03X765077Y770268I1397J1397D01*
G01X763680Y770847D02*
X750290Y784236D01*
G03X750188Y784315I-354J-353*
G01X749784Y784626D02*
G03X750188Y784315I1397J1398D01*
G01X749784Y784626D02*
X719013Y815397D01*
G03X718659Y815543I-354J-354*
G01X651772*
X650374Y816122D02*
G03X651772Y815543I1398J1398D01*
G01X650374Y816122D02*
X644739Y821757D01*
G03X644340Y821902I-354J-353*
G01X640323Y823417D02*
G03X644340Y821902I3575J3394D01*
G01X640323Y823417D02*
G03X639598I-362J-344D01*
G01X631556Y824729D02*
G03X639598Y823417I4468J2082D01*
G01X631556Y824729D02*
G03X630649I-454J-211D01*
G01X621252Y826811D02*
G03X630649Y824729I4929J0D01*
G01X621931Y829307D02*
G03X621252Y826811I4250J-2496D01*
G01X621931Y829307D02*
G03X622000Y829560I-431J253D01*
X621158Y829926I-500J0*
G01X603752Y837480D02*
G03X621158Y829926I10342J0D01*
G01X608411Y846122D02*
G03X603752Y837480I5683J-8642D01*
G01X608411Y846122D02*
G03X608637Y846539I-274J417D01*
X608137Y847039I-500J0*
G01X584884*
G03X584530Y846893I0J-500*
G01X508484Y770847*
X507087Y770268D02*
G03X508484Y770847I-0J1976D01*
G01X507087Y770268D02*
X487457D01*
G03X486957Y769768I-0J-500*
X487174Y769355I500J-0*
G01X491667Y760826D02*
G03X487174Y769355I-10343J-0D01*
G01X484335Y750931D02*
G03X491667Y760826I-3011J9895D01*
G01X484335Y750931D02*
G03X483981Y750453I146J-478D01*
X484484Y749953I500J-0*
G01X489450Y745024D02*
G03X484484Y749953I-4929J-0D01*
G01X484090Y740114D02*
G03X489450Y745024I431J4910D01*
G01X484090Y740114D02*
G03X483546Y739616I-44J-498D01*
X483636Y739329I500J-0*
G01X484529Y736500D02*
G03X483636Y739329I-4929J0D01*
G01X480752Y731707D02*
G03X484529Y736500I-1152J4793D01*
G01X480752Y731707D02*
G03X480369Y731221I117J-486D01*
X480389Y731079I500J0*
G01X480592Y729681D02*
G03X480389Y731079I-4929J0D01*
G01X475231Y724771D02*
G03X480592Y729681I432J4910D01*
G01X475231Y724771D02*
G03X474688Y724273I-43J-498D01*
X474778Y723986I500J-0*
G01X475504Y722426D02*
G03X474778Y723986I-4763J-1269D01*
G01X475504Y722426D02*
G03X475987Y722055I483J129D01*
G01X477518*
G03X477871Y722202I-0J500*
G01X494137Y738467*
G03X494283Y738821I-354J354*
G01Y743573*
G03X494097Y743962I-500J-0*
G01X492807Y746654D02*
G03X494097Y743962I3453J-0D01*
G01X499713Y746654D02*
G03X492807I-3453J-0D01*
G01X498423Y743962D02*
G03X499713Y746654I-2163J2692D01*
G01X498423Y743962D02*
G03X498236Y743573I313J-389D01*
G01Y737795*
X497657Y736398D02*
G03X498236Y737795I-1397J1397D01*
G01X497657Y736398D02*
X479941Y718681D01*
X478543Y718102D02*
G03X479941Y718681I0J1977D01*
G01X478543Y718102D02*
X474845D01*
G03X474467Y717930I-0J-500*
G01X466454Y718724D02*
G03X474467Y717930I4287J2433D01*
G01X466454Y718724D02*
G03X465520Y718477I-434J-247D01*
X465533Y718364I500J0*
G01X445116Y716024D02*
G03X465533Y718364I10342J0D01*
G01X464903Y720240D02*
G03X445116Y716024I-9445J-4216D01*
G01X464903Y720240D02*
G03X465859Y720444I456J204D01*
X465855Y720509I-500J-0*
G01X465812Y721157D02*
G03X465855Y720509I4929J0D01*
G01X471173Y726067D02*
G03X465812Y721157I-432J-4910D01*
G01X471173Y726067D02*
G03X471716Y726565I43J498D01*
X471626Y726852I-500J0*
G01X470734Y729681D02*
G03X471626Y726852I4929J0D01*
G01X474510Y734474D02*
G03X470734Y729681I1153J-4793D01*
G01X474510Y734474D02*
G03X474894Y734960I-116J486D01*
X474873Y735102I-500J-0*
G01X474671Y736500D02*
G03X474873Y735102I4929J0D01*
G01X474674Y736676D02*
G03X474671Y736500I4926J-176D01*
G01X474674Y736676D02*
G03Y736694I-500J18D01*
G01X474674*
G03X474528Y737048I-500J-0*
G01X464351Y747225*
X463772Y748622D02*
G03X464351Y747225I1976J0D01*
G01X463772Y748622D02*
Y761417D01*
X464351Y762815D02*
G03X463772Y761417I1397J-1398D01*
G01X464351Y762815D02*
X475177Y773642D01*
X476575Y774220D02*
G03X475177Y773642I-0J-1976D01*
G01X476575Y774220D02*
X506061D01*
G03X506414Y774367I-0J500*
G01X582461Y850413*
X583858Y850992D02*
G03X582461Y850413I0J-1976D01*
G01X583858Y850992D02*
X627165D01*
X628563Y850413D02*
G03X627165Y850992I-1398J-1397D01*
G01X628563Y850413D02*
X645295Y833681D01*
X645874Y832283D02*
G03X645295Y833681I-1976J0D01*
G01X645874Y832283D02*
Y831643D01*
X645874D02*
G03X646146Y831198I500J-0D01*
G01X648366Y828893D02*
G03X646146Y831198I-4468J-2082D01*
G01X648366Y828893D02*
G03X649272I453J211D01*
G01X656744Y830719D02*
G03X649272Y828893I-3004J-3908D01*
G01X656744Y830719D02*
G03X657549Y831115I305J396D01*
X657454Y831409I-500J0*
G01X655484Y837480D02*
G03X657454Y831409I10343J0D01*
G01X676169Y837480D02*
G03X655484I-10342J0D01*
G01X658763Y829926D02*
G03X676169Y837480I7064J7554D01*
G01X658763Y829926D02*
G03X657922Y829560I-341J-366D01*
X657991Y829307I500J0*
G01X658669Y826811D02*
G03X657991Y829307I-4929J0D01*
G01X649272Y824729D02*
G03X658669Y826811I4468J2082D01*
G01X649272Y824729D02*
G03X648366I-453J-211D01*
G01X648199Y824403D02*
G03X648366Y824729I-4301J2408D01*
G01X648199Y824403D02*
G03X648135Y824159I436J-244D01*
X648281Y823805I500J-0*
G01X652444Y819643*
G03X652797Y819496I353J353*
G01X719685*
X721083Y818917D02*
G03X719685Y819496I-1398J-1397D01*
G01X721083Y818917D02*
X752189Y787811D01*
G03X752291Y787732I353J353*
G01X752695Y787421D02*
G03X752291Y787732I-1397J-1397D01*
G01X752695Y787421D02*
X765749Y774367D01*
G03X766103Y774220I354J353*
G01X805315*
X806712Y773642D02*
G03X805315Y774220I-1397J-1398D01*
G01X806712Y773642D02*
X812618Y767736D01*
X813197Y766339D02*
G03X812618Y767736I-1977J-0D01*
G01X813197Y766339D02*
Y733858D01*
X812618Y732461D02*
G03X813197Y733858I-1398J1397D01*
G01X812618Y732461D02*
X809252Y729095D01*
G03X809113Y728828I354J-354*
G01X808295Y726852D02*
G03X809113Y728828I-4036J2829D01*
G01X808295Y726852D02*
G03X808205Y726565I410J-287D01*
X808749Y726067I500J0*
G01X814109Y721157D02*
G03X808749Y726067I-4929J0D01*
G01X814066Y720509D02*
G03X814109Y721157I-4886J648D01*
G01X814066Y720509D02*
G03X814062Y720444I496J-65D01*
X815019Y720240I500J-0*
G01X834806Y716024D02*
G03X815019Y720240I-10343J0D01*
G01X814121Y716024D02*
G03X834806I10342J0D01*
G01X814389Y718364D02*
G03X814121Y716024I10074J-2340D01*
G01X814389Y718364D02*
G03X814402Y718477I-487J113D01*
X813467Y718724I-500J0*
G01X805238Y718197D02*
G03X813467Y718724I3942J2960D01*
G01X805238Y718197D02*
G03X804339Y717897I-399J-300D01*
G01Y714215*
G03X804485Y713861I500J-0*
G01X840177Y678169*
X840756Y676772D02*
G03X840177Y678169I-1976J-0D01*
G01X822004Y617323D02*
G03X822004I-4484J0D01*
G01Y627323D02*
G03X822004I-4484J0D01*
G01Y637323D02*
G03X822004I-4484J0D01*
G01Y647323D02*
G03X822004I-4484J0D01*
G01Y657323D02*
G03X822004I-4484J0D01*
G01Y667323D02*
G03X822004I-4484J0D01*
G01X798138Y707283D02*
G03X798138I-2666J0D01*
G01X773728Y608071D02*
G03X773728I-2665J0D01*
G01X757783Y524803D02*
G03X757783I-2665J0D01*
G01X739476Y589764D02*
G03X739476I-2665J0D01*
G01X732390Y498819D02*
G03X732390I-2666J0D01*
G01X718217Y561417D02*
G03X718217I-2666J0D01*
G01X717035Y573819D02*
G03X717035I-2665J0D01*
G01X711130Y499409D02*
G03X711130I-2665J0D01*
G01X701091Y482283D02*
G03X701091I-2666J0D01*
G01X701287Y576772D02*
G03X701287I-3452J0D01*
G01X644398Y529724D02*
G03X644398I-4437J0D01*
G01X649909Y546063D02*
G03X649909I-3452J0D01*
G01X644398Y565157D02*
G03X644398I-4437J0D01*
G01Y580315D02*
G03X644398I-2666J0D01*
G01X642626Y590354D02*
G03X642626I-2665J0D01*
G01X580618Y437992D02*
G03X580618I-2665J0D01*
G01X557587Y442717D02*
G03X557587I-2666J0D01*
G01X546957Y446260D02*
G03X546957I-2666J0D01*
G01X537508Y449213D02*
G03X537508I-2665J0D01*
G01X525697Y455709D02*
G03X525697I-2666J0D01*
G01X520382Y460433D02*
G03X520382I-2665J0D01*
G01X514476Y466339D02*
G03X514476I-2665J0D01*
G01X619004Y469882D02*
G03X619004I-2665J0D01*
G01X611327Y592717D02*
G03X611327I-2666J0D01*
G01X580618Y557874D02*
G03X580618I-2665J0D01*
G01X584161Y577362D02*
G03X584161I-2665J0D01*
G01X565854Y494685D02*
G03X565854I-2665J0D01*
G01X567626Y577362D02*
G03X567626I-2665J0D01*
G01X555224Y511811D02*
G03X555224I-2665J0D01*
G01X558177Y582677D02*
G03X558177I-2665J0D01*
G01X544595Y505315D02*
G03X544595I-2666J0D01*
G01X536917Y518307D02*
G03X536917I-2665J0D01*
G01X513295Y576181D02*
G03X513295I-2665J0D01*
G01X746573Y665466D02*
G03X747154Y667126I-2085J1660D01*
G01X746573Y665466D02*
G03X746465Y665154I392J-312D01*
G01Y608661*
X745886Y607264D02*
G03X746465Y608661I-1398J1397D01*
G01X745886Y607264D02*
X738799Y600177D01*
X737402Y599598D02*
G03X738799Y600177I-0J1977D01*
G01X737402Y599598D02*
X514373D01*
G03X514062Y599490I0J-500*
G01X509736Y601575D02*
G03X514062Y599490I2666J-0D01*
G01Y603660D02*
G03X509736Y601575I-1660J-2085D01*
G01X514062Y603660D02*
G03X514373Y603551I311J391D01*
G01X736376*
G03X736729Y603698I-0J500*
G01X742365Y609334*
G03X742512Y609687I-353J353*
G01Y665154*
G03X742403Y665466I-500J0*
G01X741823Y667126D02*
G03X742403Y665466I2665J-0D01*
G01X747154Y667126D02*
G03X741823I-2666J-0D01*
G01X727665Y623425D02*
G03X727665I-2665J0D01*
G01X739870Y694488D02*
Y686614D01*
X738386Y685130D02*
G03X739870Y686614I-0J1484D01*
G01X738386Y685130D02*
X718701D01*
X717217Y686614D02*
G03X718701Y685130I1484J0D01*
G01X717217Y686614D02*
Y694488D01*
X718701Y695972D02*
G03X717217Y694488I-0J-1484D01*
G01X718701Y695972D02*
X738386D01*
X739870Y694488D02*
G03X738386Y695972I-1484J0D01*
G01X750303Y721457D02*
G03X750303I-6405J0D01*
G01Y741142D02*
G03X750303I-6405J0D01*
G01X714673Y782283D02*
G03X714673I-2665J0D01*
G01X709358Y789961D02*
G03X709358I-2665J0D01*
G01X708177Y805906D02*
G03X708177I-2665J0D01*
G01X699329Y664875D02*
G03X699909Y666535I-2085J1660D01*
G01X699329Y664875D02*
G03X699220Y664564I391J-311D01*
G01Y638389*
G03X699329Y638077I500J-0*
G01X699909Y636417D02*
G03X699329Y638077I-2665J0D01*
G01X694579Y636417D02*
G03X699909I2665J0D01*
G01X695159Y638077D02*
G03X694579Y636417I2085J-1660D01*
G01X695159Y638077D02*
G03X695268Y638389I-391J312D01*
G01Y664564*
G03X695159Y664875I-500J-0*
G01X694579Y666535D02*
G03X695159Y664875I2665J0D01*
G01X699909Y666535D02*
G03X694579I-2665J0D01*
G01X699909Y721457D02*
G03X699909I-6405J0D01*
G01Y746063D02*
Y736220D01*
X698425Y734736D02*
G03X699909Y736220I0J1484D01*
G01X698425Y734736D02*
X688583D01*
X687098Y736220D02*
G03X688583Y734736I1485J0D01*
G01X687098Y736220D02*
Y746063D01*
X688583Y747547D02*
G03X687098Y746063I-0J-1484D01*
G01X688583Y747547D02*
X698425D01*
X699909Y746063D02*
G03X698425Y747547I-1484J-0D01*
G01X689280Y756890D02*
G03X689280I-2666J0D01*
G01Y777559D02*
G03X689280I-2666J0D01*
G01X682193Y688386D02*
G03X682193I-2665J0D01*
G01X675106Y619291D02*
G03X675106I-2665J0D01*
G01X652676Y665466D02*
G03X653256Y667126I-2085J1660D01*
G01X652676Y665466D02*
G03X652567Y665154I391J-312D01*
G01Y638389*
G03X652676Y638077I500J-0*
G01X653256Y636417D02*
G03X652676Y638077I-2665J0D01*
G01X647925Y636417D02*
G03X653256I2666J0D01*
G01X648505Y638077D02*
G03X647925Y636417I2086J-1660D01*
G01X648505Y638077D02*
G03X648614Y638389I-391J312D01*
G01Y665154*
G03X648505Y665466I-500J0*
G01X647925Y667126D02*
G03X648505Y665466I2666J-0D01*
G01X653256Y667126D02*
G03X647925I-2665J-0D01*
G01X665067Y789961D02*
Y780118D01*
X652256D02*
G03X665067I6405J0D01*
G01X652256D02*
Y789961D01*
X665067D02*
G03X652256I-6406J-0D01*
G01X646169Y717913D02*
G03X646169I-2665J0D01*
G01X638492Y751575D02*
G03X638492I-2665J0D01*
G01X646366Y789961D02*
Y780118D01*
X633555D02*
G03X646366I6406J0D01*
G01X633555D02*
Y789961D01*
X646366D02*
G03X633555I-6405J-0D01*
G01X644004Y810039D02*
G03X644004I-3453J0D01*
G01X632587Y619882D02*
G03X632587I-2666J0D01*
G01X630224Y683071D02*
G03X630224I-2665J0D01*
G01X629043Y724409D02*
G03X629043I-2665J0D01*
G01X627665Y794882D02*
Y775197D01*
X626181Y773713D02*
G03X627665Y775197I0J1484D01*
G01X626181Y773713D02*
X616339D01*
X614854Y775197D02*
G03X616339Y773713I1485J-0D01*
G01X614854Y775197D02*
Y794882D01*
X616339Y796366D02*
G03X614854Y794882I-0J-1484D01*
G01X616339Y796366D02*
X626181D01*
X627665Y794882D02*
G03X626181Y796366I-1484J-0D01*
G01X698138Y834843D02*
G03X698138I-2666J0D01*
G01X647350Y848425D02*
G03X647350I-2665J0D01*
G01X611327Y703740D02*
G03X611327I-2666J0D01*
G01X604841Y665466D02*
G03X605421Y667126I-2085J1660D01*
G01X604841Y665466D02*
G03X604732Y665154I391J-312D01*
G01Y638979*
G03X604841Y638668I500J0*
G01X605421Y637008D02*
G03X604841Y638668I-2665J-0D01*
G01X600091Y637008D02*
G03X605421I2665J-0D01*
G01X600671Y638668D02*
G03X600091Y637008I2085J-1660D01*
G01X600671Y638668D02*
G03X600780Y638979I-391J311D01*
G01Y665154*
G03X600671Y665466I-500J0*
G01X600091Y667126D02*
G03X600671Y665466I2665J-0D01*
G01X605421Y667126D02*
G03X600091I-2665J-0D01*
G01X604240Y681299D02*
G03X604240I-2665J0D01*
G01X601287Y700787D02*
G03X601287I-2665J0D01*
G01X583571Y622835D02*
G03X583571I-2665J0D01*
G01X592823Y721457D02*
G03X592823I-6406J0D01*
G01Y741142D02*
G03X592823I-6406J0D01*
G01X593610Y831890D02*
G03X593610I-2665J0D01*
G01X574122Y662992D02*
G03X574122I-2665J0D01*
G01X578256Y687795D02*
G03X578256I-2665J0D01*
G01X558188Y664875D02*
G03X558768Y666535I-2086J1660D01*
G01X558188Y664875D02*
G03X558079Y664564I391J-311D01*
G01Y640161*
G03X558188Y639849I500J-0*
G01X558768Y638189D02*
G03X558188Y639849I-2666J-0D01*
G01X553437Y638189D02*
G03X558768I2665J-0D01*
G01X554017Y639849D02*
G03X553437Y638189I2085J-1660D01*
G01X554017Y639849D02*
G03X554126Y640161I-391J312D01*
G01Y664564*
G03X554017Y664875I-500J-0*
G01X553437Y666535D02*
G03X554017Y664875I2665J0D01*
G01X558768Y666535D02*
G03X553437I-2666J0D01*
G01X568641Y761476D02*
G03X568807Y762402I-2499J926D01*
G01X568641Y761476D02*
G03X568610Y761303I469J-173D01*
G01Y758465*
X567887Y756719D02*
G03X568610Y758465I-1745J1746D01*
G01X567887Y756719D02*
X564934Y753766D01*
X563189Y753043D02*
G03X564934Y753766I-0J2469D01*
G01X563189Y753043D02*
X535875D01*
G03X535522Y752897I0J-500*
G01X531026Y748401*
G03X530879Y748047I353J-354*
X531379Y747547I500J0*
G01X540945*
X542429Y746063D02*
G03X540945Y747547I-1484J-0D01*
G01X542429Y746063D02*
Y736220D01*
X540945Y734736D02*
G03X542429Y736220I-0J1484D01*
G01X540945Y734736D02*
X531102D01*
X529618Y736220D02*
G03X531102Y734736I1484J0D01*
G01X529618Y736220D02*
Y745786D01*
G03X528765Y746140I-500J0*
G01X509702Y727077*
G03X509555Y726723I353J-354*
G01Y692340*
G03X510391Y691970I500J0*
G01X515440Y696560*
G03X515547Y696700I-337J370*
G01X520579Y695472D02*
G03X515547Y696700I-2666J0D01*
G01X518910Y693000D02*
G03X520579Y695472I-997J2472D01*
G01X518910Y693000D02*
G03X518761Y692907I187J-463D01*
G01X509719Y684687*
G03X509555Y684317I336J-370*
G01Y676787*
G03X510055Y676287I500J0*
G01X521850*
X523596Y675564D02*
G03X521850Y676287I-1746J-1745D01*
G01X523596Y675564D02*
X540328Y658832D01*
X541051Y657087D02*
G03X540328Y658832I-2468J-0D01*
G01X541051Y657087D02*
Y633465D01*
X540328Y631719D02*
G03X541051Y633465I-1745J1746D01*
G01X540328Y631719D02*
X528517Y619908D01*
X526772Y619185D02*
G03X528517Y619908I-0J2469D01*
G01X526772Y619185D02*
X508087D01*
G03X507587Y618685I-0J-500*
G01Y591256*
G03X507618Y591083I500J0*
G01X507783Y590157D02*
G03X507618Y591083I-2665J0D01*
G01X502453Y590157D02*
G03X507783I2665J0D01*
G01X502618Y591083D02*
G03X502453Y590157I2500J-926D01*
G01X502618Y591083D02*
G03X502650Y591256I-468J173D01*
G01Y625476*
G03X502618Y625650I-500J-0*
G01X502453Y626575D02*
G03X502618Y625650I2665J-0D01*
G01X507783Y626575D02*
G03X502453I-2665J-0D01*
G01X507618Y625650D02*
G03X507783Y626575I-2500J925D01*
G01X507618Y625650D02*
G03X507587Y625476I469J-174D01*
G01Y624622*
G03X508087Y624122I500J0*
G01X525542*
G03X525896Y624269I0J500*
G01X535968Y634341*
G03X536114Y634694I-354J353*
G01Y655857*
G03X535968Y656211I-500J0*
G01X520974Y671204*
G03X520621Y671350I-353J-354*
G01X497359*
G03X497185Y671319I-0J-500*
G01X493594Y673819D02*
G03X497185Y671319I2666J-0D01*
G01Y676319D02*
G03X493594Y673819I-925J-2500D01*
G01X497185Y676319D02*
G03X497359Y676287I174J468D01*
G01X504118*
G03X504618Y676787I0J500*
G01Y684400*
G03X504472Y684754I-500J0*
G01X495499Y693727*
X494776Y695472D02*
G03X495499Y693727I2468J0D01*
G01X494776Y695472D02*
Y703232D01*
G03X494744Y703405I-500J-0*
G01X494579Y704331D02*
G03X494744Y703405I2665J-0D01*
G01X499909Y704331D02*
G03X494579I-2665J-0D01*
G01X499744Y703405D02*
G03X499909Y704331I-2500J926D01*
G01X499744Y703405D02*
G03X499713Y703232I469J-173D01*
G01Y696702*
G03X499859Y696348I500J0*
G01X503765Y692443*
G03X504618Y692797I353J354*
G01Y727953*
X505341Y729698D02*
G03X504618Y727953I1746J-1745D01*
G01X505341Y729698D02*
X532900Y757257D01*
X534646Y757980D02*
G03X532900Y757257I-0J-2468D01*
G01X534646Y757980D02*
X561959D01*
G03X562313Y758127I0J500*
G01X563527Y759341*
G03X563673Y759694I-354J353*
G01Y761303*
G03X563642Y761476I-500J-0*
G01X563476Y762402D02*
G03X563642Y761476I2666J-0D01*
G01X568807Y762402D02*
G03X563476I-2665J-0D01*
G01X587311Y773425D02*
Y764567D01*
X586300Y762125D02*
G03X587311Y764567I-2442J2442D01*
G01X586300Y762125D02*
X575056Y750882D01*
G03X574909Y750528I353J-354*
G01Y735039*
X573898Y732598D02*
G03X574909Y735039I-2441J2441D01*
G01X573898Y732598D02*
X554977Y713677D01*
G03X554831Y713323I354J-354*
G01Y696472*
G03X555331Y695972I500J0*
G01X561220*
X562705Y694488D02*
G03X561220Y695972I-1485J0D01*
G01X562705Y694488D02*
Y686614D01*
X561220Y685130D02*
G03X562705Y686614I0J1484D01*
G01X561220Y685130D02*
X541535D01*
X540051Y686614D02*
G03X541535Y685130I1484J0D01*
G01X540051Y686614D02*
Y694488D01*
X541535Y695972D02*
G03X540051Y694488I0J-1484D01*
G01X541535Y695972D02*
X547425D01*
G03X547925Y696472I0J500*
G01Y714961*
X548936Y717402D02*
G03X547925Y714961I2442J-2441D01*
G01X548936Y717402D02*
X567857Y736323D01*
G03X568004Y736677I-353J354*
G01Y752165*
X569015Y754607D02*
G03X568004Y752165I2442J-2442D01*
G01X569015Y754607D02*
X580259Y765851D01*
G03X580405Y766204I-354J353*
G01Y773425*
X587311D02*
G03X580405I-3453J0D01*
G01X533374Y701378D02*
G03X533374I-2665J0D01*
G01X542429Y721457D02*
G03X542429I-6405J0D01*
G01X516642Y638386D02*
G03X516642I-2666J0D01*
G01X477272Y577362D02*
G03X477272I-2666J0D01*
G01X524152Y656471D02*
G03X527469Y659055I651J2584D01*
G01X524152Y656471D02*
G03X523530Y656004I-123J-485D01*
G01X519206Y654017D02*
G03X523530Y656004I1660J2085D01*
G01X519206Y654017D02*
G03X518895Y654126I-311J-391D01*
G01X473625*
G03X473314Y654017I0J-500*
G01X468990Y656004D02*
G03X473314Y654017I2664J98D01*
G01X468990Y656004D02*
G03X468368Y656471I-500J-18D01*
G01X465051Y659055D02*
G03X468368Y656471I2666J0D01*
G01X469377Y661140D02*
G03X465051Y659055I-1660J-2085D01*
G01X469377Y661140D02*
G03X469688Y661032I311J392D01*
G01X471477*
G03X471977Y661532I-0J500*
X471971Y661607I-500J-0*
G01X471941Y662008D02*
G03X471971Y661607I2665J-0D01*
G01X476266Y664093D02*
G03X471941Y662008I-1660J-2085D01*
G01X476266Y664093D02*
G03X476578Y663984I312J391D01*
G01X518895*
G03X519206Y664093I-0J500*
G01X523530Y662106D02*
G03X519206Y664093I-2664J-98D01*
G01X523530Y662106D02*
G03X524152Y661640I499J18D01*
G01X527469Y659055D02*
G03X524152Y661640I-2666J0D01*
G01X532783Y769882D02*
G03X532783I-2665J0D01*
G01X473335Y679528D02*
G03X473335I-3453J0D01*
G01X437114Y598031D02*
G03X437114I-2665J0D01*
G01X453261Y627442D02*
G03X457587Y629528I1660J2086D01*
G01X453261Y627442D02*
G03X452950Y627551I-311J-391D01*
G01X431302*
G03X430991Y627442I0J-500*
G01X426665Y629528D02*
G03X430991Y627442I2666J-0D01*
G01Y631613D02*
G03X426665Y629528I-1660J-2085D01*
G01X430991Y631613D02*
G03X431302Y631504I311J391D01*
G01X452950*
G03X453261Y631613I-0J500*
G01X457587Y629528D02*
G03X453261Y631613I-2666J-0D01*
G01X544004Y823622D02*
G03X544004I-2665J0D01*
G01X434752Y694291D02*
G03X434752I-2665J0D01*
G01X428256Y648819D02*
G03X428256I-2665J0D01*
G01X840756Y638970D02*
X870759D01*
X840756Y639870D02*
X870759D01*
X840756Y638070D02*
X870756D01*
X840756Y640770D02*
X870756D01*
X840756Y637170D02*
X870749D01*
X840756Y641670D02*
X870748D01*
X840756Y636270D02*
X870739D01*
X840756Y642570D02*
X870738D01*
X840756Y635370D02*
X870725D01*
X840756Y643470D02*
X870723D01*
X840756Y634470D02*
X870708D01*
X840756Y644370D02*
X870706D01*
X840756Y633570D02*
X870687D01*
X840756Y645270D02*
X870684D01*
X840756Y632670D02*
X870663D01*
X840756Y646170D02*
X870660D01*
X840756Y631770D02*
X870635D01*
X840756Y647070D02*
X870631D01*
X840756Y630870D02*
X870603D01*
X840756Y647970D02*
X870600D01*
X840756Y629970D02*
X870568D01*
X840756Y648870D02*
X870564D01*
X840756Y629070D02*
X870530D01*
X840756Y649770D02*
X870525D01*
X840756Y628170D02*
X870488D01*
X840756Y650670D02*
X870483D01*
X840756Y627270D02*
X870442D01*
X840756Y651570D02*
X870437D01*
X840756Y626370D02*
X870393D01*
X840756Y652470D02*
X870388D01*
X840756Y625470D02*
X870341D01*
X840756Y653370D02*
X870335D01*
X840756Y624570D02*
X870285D01*
X840756Y654270D02*
X870278D01*
X840756Y623670D02*
X870225D01*
X840756Y655170D02*
X870218D01*
X840756Y622770D02*
X870162D01*
X840756Y656070D02*
X870155D01*
X840756Y621870D02*
X870095D01*
X840756Y656970D02*
X870088D01*
X840756Y620970D02*
X870025D01*
X840756Y657870D02*
X870017D01*
X840756Y620070D02*
X869951D01*
X840756Y658770D02*
X869943D01*
X840756Y619170D02*
X869874D01*
X840756Y659670D02*
X869865D01*
X840756Y618270D02*
X869793D01*
X840756Y660570D02*
X869784D01*
X840756Y617370D02*
X869709D01*
X840756Y661470D02*
X869699D01*
X840756Y616470D02*
X869621D01*
X840756Y662370D02*
X869611D01*
X840756Y615570D02*
X869529D01*
X840756Y663270D02*
X869519D01*
X840756Y614670D02*
X869434D01*
X840756Y664170D02*
X869424D01*
X840756Y613770D02*
X869336D01*
X840756Y665070D02*
X869325D01*
X840756Y612870D02*
X869233D01*
X840756Y665970D02*
X869222D01*
X840756Y611970D02*
X869128D01*
X840756Y666870D02*
X869116D01*
X840756Y611070D02*
X869018D01*
X840756Y667770D02*
X869006D01*
X840756Y610170D02*
X868905D01*
X840756Y668670D02*
X868893D01*
X840756Y609270D02*
X868789D01*
X840756Y669570D02*
X868776D01*
X840756Y608370D02*
X868668D01*
X840756Y670470D02*
X868655D01*
X840756Y607470D02*
X868545D01*
X840756Y671370D02*
X868531D01*
X840756Y606570D02*
X868417D01*
X840756Y672270D02*
X868403D01*
X840756Y605670D02*
X868286D01*
X840756Y673170D02*
X868272D01*
X840756Y604770D02*
X868151D01*
X840756Y674070D02*
X868136D01*
X840756Y603870D02*
X868013D01*
X840756Y674970D02*
X867998D01*
X840756Y602970D02*
X867871D01*
X840756Y675870D02*
X867855D01*
X840756Y602070D02*
X867726D01*
X840756Y676770D02*
X867709D01*
X840756Y601170D02*
X867577D01*
X840540Y677670D02*
X867560D01*
X840756Y600270D02*
X867424D01*
X839777Y678570D02*
X867407D01*
X840756Y599370D02*
X867267D01*
X838877Y679470D02*
X867250D01*
X840756Y598470D02*
X867107D01*
X837977Y680370D02*
X867089D01*
X840756Y597570D02*
X866943D01*
X837077Y681270D02*
X866925D01*
X840756Y596670D02*
X866775D01*
X836177Y682170D02*
X866757D01*
X840756Y595770D02*
X866604D01*
X835277Y683070D02*
X866585D01*
X840756Y594870D02*
X866429D01*
X834377Y683970D02*
X866410D01*
X840756Y593970D02*
X866250D01*
X833477Y684870D02*
X866231D01*
X840756Y593070D02*
X866068D01*
X832577Y685770D02*
X866048D01*
X840756Y592170D02*
X865882D01*
X831677Y686670D02*
X865861D01*
X840756Y591270D02*
X865692D01*
X830777Y687570D02*
X865671D01*
X840756Y590370D02*
X865498D01*
X829877Y688470D02*
X865477D01*
X840756Y589470D02*
X865301D01*
X828977Y689370D02*
X865279D01*
X840756Y588570D02*
X865100D01*
X828077Y690270D02*
X865077D01*
X840756Y587670D02*
X864895D01*
X827177Y691170D02*
X864872D01*
X840756Y586770D02*
X864686D01*
X826277Y692070D02*
X864663D01*
X840756Y585870D02*
X864473D01*
X825377Y692970D02*
X864450D01*
X840756Y584970D02*
X864257D01*
X824477Y693870D02*
X864233D01*
X840756Y584070D02*
X864037D01*
X823577Y694770D02*
X864012D01*
X840756Y583170D02*
X863813D01*
X822677Y695670D02*
X863788D01*
X840756Y582270D02*
X863585D01*
X821777Y696570D02*
X863560D01*
X840756Y581370D02*
X863353D01*
X820877Y697470D02*
X863327D01*
X840756Y580470D02*
X863118D01*
X819977Y698370D02*
X863091D01*
X840756Y579570D02*
X862878D01*
X819077Y699270D02*
X862851D01*
X840756Y578670D02*
X862635D01*
X818177Y700170D02*
X862608D01*
X840756Y577770D02*
X862387D01*
X817277Y701070D02*
X862360D01*
X840756Y576870D02*
X862136D01*
X816377Y701970D02*
X862108D01*
X840756Y575970D02*
X861881D01*
X815477Y702870D02*
X861853D01*
X840756Y575070D02*
X861622D01*
X814577Y703770D02*
X861593D01*
X840756Y574170D02*
X861359D01*
X813677Y704670D02*
X861330D01*
X840756Y573270D02*
X861092D01*
X812777Y705570D02*
X861062D01*
X840756Y572370D02*
X860821D01*
X828422Y706470D02*
X860791D01*
X840756Y571470D02*
X860546D01*
X830125Y707370D02*
X860515D01*
X840756Y570570D02*
X860267D01*
X831306Y708270D02*
X860236D01*
X840756Y569670D02*
X859984D01*
X832208Y709170D02*
X859952D01*
X840756Y568770D02*
X859696D01*
X832919Y710070D02*
X859665D01*
X840756Y567870D02*
X859405D01*
X833486Y710970D02*
X859373D01*
X840756Y566970D02*
X859110D01*
X833934Y711870D02*
X859077D01*
X840756Y566070D02*
X858811D01*
X834280Y712770D02*
X858777D01*
X840756Y565170D02*
X858507D01*
X834534Y713670D02*
X858473D01*
X840756Y564270D02*
X858199D01*
X834703Y714570D02*
X858165D01*
X840756Y563370D02*
X857888D01*
X834791Y715470D02*
X857853D01*
X840756Y562470D02*
X857572D01*
X834800Y716370D02*
X857537D01*
X840755Y561570D02*
X857252D01*
X834730Y717270D02*
X857216D01*
X840516Y560670D02*
X856927D01*
X834581Y718170D02*
X856891D01*
X839730Y559770D02*
X856599D01*
X834347Y719070D02*
X856562D01*
X838830Y558870D02*
X856266D01*
X834024Y719970D02*
X856229D01*
X837930Y557970D02*
X855929D01*
X833601Y720870D02*
X855891D01*
X837030Y557070D02*
X855587D01*
X833063Y721770D02*
X855550D01*
X836130Y556170D02*
X855242D01*
X832388Y722670D02*
X855203D01*
X835230Y555270D02*
X854892D01*
X831537Y723570D02*
X854853D01*
X834330Y554370D02*
X854537D01*
X830434Y724470D02*
X854498D01*
X833430Y553470D02*
X854179D01*
X828894Y725370D02*
X854139D01*
X832530Y552570D02*
X853816D01*
X825879Y726270D02*
X853775D01*
X831630Y551670D02*
X853448D01*
X808500Y727170D02*
X853407D01*
X830730Y550770D02*
X853076D01*
X808917Y728070D02*
X853035D01*
X829830Y549870D02*
X852700D01*
X809161Y728970D02*
X852658D01*
X828930Y548970D02*
X852319D01*
X810027Y729870D02*
X852277D01*
X828030Y548070D02*
X851933D01*
X810927Y730770D02*
X851891D01*
X827130Y547170D02*
X851544D01*
X811827Y731670D02*
X851500D01*
X826230Y546270D02*
X851149D01*
X812719Y732570D02*
X851105D01*
X825330Y545370D02*
X850750D01*
X813158Y733470D02*
X850706D01*
X824430Y544470D02*
X850346D01*
X813197Y734370D02*
X850302D01*
X823530Y543570D02*
X849938D01*
X813197Y735270D02*
X849893D01*
X822630Y542670D02*
X849525D01*
X813197Y736170D02*
X849479D01*
X821730Y541770D02*
X849107D01*
X813197Y737070D02*
X849061D01*
X820830Y540870D02*
X848685D01*
X813197Y737970D02*
X848638D01*
X819930Y539970D02*
X848258D01*
X813197Y738870D02*
X848211D01*
X818734Y539070D02*
X847826D01*
X813197Y739770D02*
X847778D01*
X803101Y538170D02*
X847389D01*
X813197Y740670D02*
X847341D01*
X799605Y537270D02*
X846948D01*
X813197Y741570D02*
X846899D01*
X799554Y536370D02*
X846502D01*
X813197Y742470D02*
X846452D01*
X800007Y535470D02*
X846050D01*
X813197Y743370D02*
X846000D01*
X800255Y534570D02*
X845594D01*
X813197Y744270D02*
X845544D01*
X800329Y533670D02*
X845133D01*
X813197Y745170D02*
X845082D01*
X800238Y532770D02*
X844667D01*
X813197Y746070D02*
X844615D01*
X799971Y531870D02*
X844196D01*
X813197Y746970D02*
X844143D01*
X799493Y530970D02*
X843719D01*
X813197Y747870D02*
X843667D01*
X798717Y530070D02*
X843238D01*
X813197Y748770D02*
X843185D01*
X797304Y529170D02*
X842751D01*
X813197Y749670D02*
X842698D01*
X797216Y528270D02*
X842260D01*
X813197Y750570D02*
X842205D01*
X802788Y527370D02*
X841763D01*
X813197Y751470D02*
X841708D01*
X804408Y526470D02*
X841261D01*
X813197Y752370D02*
X841205D01*
X805551Y525570D02*
X840753D01*
X813197Y753270D02*
X840697D01*
X806428Y524670D02*
X840241D01*
X813197Y754170D02*
X840184D01*
X807122Y523770D02*
X839722D01*
X813197Y755070D02*
X839665D01*
X807675Y522870D02*
X839199D01*
X813197Y755970D02*
X839141D01*
X808111Y521970D02*
X838670D01*
X813197Y756870D02*
X838611D01*
X808446Y521070D02*
X838135D01*
X813197Y757770D02*
X838076D01*
X808691Y520170D02*
X837595D01*
X813197Y758670D02*
X837536D01*
X808850Y519270D02*
X837050D01*
X813197Y759570D02*
X836989D01*
X524191Y674970D02*
X836803D01*
X525091Y674070D02*
X836803D01*
X525991Y673170D02*
X836803D01*
X526891Y672270D02*
X836803D01*
X819452Y671370D02*
X836803D01*
X820714Y670470D02*
X836803D01*
X821401Y669570D02*
X836803D01*
X821797Y668670D02*
X836803D01*
X821982Y667770D02*
X836803D01*
X821981Y666870D02*
X836803D01*
X821795Y665970D02*
X836803D01*
X821397Y665070D02*
X836803D01*
X820708Y664170D02*
X836803D01*
X819438Y663270D02*
X836803D01*
X746465Y662370D02*
X836803D01*
X819227Y661470D02*
X836803D01*
X820613Y660570D02*
X836803D01*
X821341Y659670D02*
X836803D01*
X821764Y658770D02*
X836803D01*
X821971Y657870D02*
X836803D01*
X821990Y656970D02*
X836803D01*
X821825Y656070D02*
X836803D01*
X821453Y655170D02*
X836803D01*
X820804Y654270D02*
X836803D01*
X819636Y653370D02*
X836803D01*
X746465Y652470D02*
X836803D01*
X818960Y651570D02*
X836803D01*
X820504Y650670D02*
X836803D01*
X821278Y649770D02*
X836803D01*
X821729Y648870D02*
X836803D01*
X821957Y647970D02*
X836803D01*
X821997Y647070D02*
X836803D01*
X821853Y646170D02*
X836803D01*
X821506Y645270D02*
X836803D01*
X820894Y644370D02*
X836803D01*
X819813Y643470D02*
X836803D01*
X746465Y642570D02*
X836803D01*
X818622Y641670D02*
X836803D01*
X820388Y640770D02*
X836803D01*
X821211Y639870D02*
X836803D01*
X821691Y638970D02*
X836803D01*
X821941Y638070D02*
X836803D01*
X822001Y637170D02*
X836803D01*
X821879Y636270D02*
X836803D01*
X821556Y635370D02*
X836803D01*
X820979Y634470D02*
X836803D01*
X819974Y633570D02*
X836803D01*
X746465Y632670D02*
X836803D01*
X818099Y631770D02*
X836803D01*
X820264Y630870D02*
X836803D01*
X821140Y629970D02*
X836803D01*
X821650Y629070D02*
X836803D01*
X821923Y628170D02*
X836803D01*
X822004Y627270D02*
X836803D01*
X821901Y626370D02*
X836803D01*
X821603Y625470D02*
X836803D01*
X821059Y624570D02*
X836803D01*
X820120Y623670D02*
X836803D01*
X746465Y622770D02*
X836803D01*
X746465Y621870D02*
X836803D01*
X820129Y620970D02*
X836803D01*
X821064Y620070D02*
X836803D01*
X821606Y619170D02*
X836803D01*
X821903Y618270D02*
X836803D01*
X822004Y617370D02*
X836803D01*
X821922Y616470D02*
X836803D01*
X821647Y615570D02*
X836803D01*
X821135Y614670D02*
X836803D01*
X820255Y613770D02*
X836803D01*
X818046Y612870D02*
X836803D01*
X746465Y611970D02*
X836803D01*
X746465Y611070D02*
X836803D01*
X772706Y610170D02*
X836803D01*
X773444Y609270D02*
X836803D01*
X773712Y608370D02*
X836803D01*
X773660Y607470D02*
X836803D01*
X773265Y606570D02*
X836803D01*
X772220Y605670D02*
X836803D01*
X743391Y604770D02*
X836803D01*
X742491Y603870D02*
X836803D01*
X741591Y602970D02*
X836803D01*
X740691Y602070D02*
X836803D01*
X739791Y601170D02*
X836803D01*
X738891Y600270D02*
X836803D01*
X513899Y599370D02*
X836803D01*
X507587Y598470D02*
X836803D01*
X507587Y597570D02*
X836803D01*
X507587Y596670D02*
X836803D01*
X507587Y595770D02*
X836803D01*
X610233Y594870D02*
X836803D01*
X611014Y593970D02*
X836803D01*
X611303Y593070D02*
X836803D01*
X737958Y592170D02*
X836803D01*
X739010Y591270D02*
X836803D01*
X739407Y590370D02*
X836803D01*
X739460Y589470D02*
X836803D01*
X739194Y588570D02*
X836803D01*
X738460Y587670D02*
X836803D01*
X415235Y586770D02*
X836803D01*
X415448Y585870D02*
X836803D01*
X556872Y584970D02*
X836803D01*
X557785Y584070D02*
X836803D01*
X558131Y583170D02*
X836803D01*
X643544Y582270D02*
X836803D01*
X644180Y581370D02*
X836803D01*
X644393Y580470D02*
X836803D01*
X699858Y579570D02*
X836803D01*
X700719Y578670D02*
X836803D01*
X701140Y577770D02*
X836803D01*
X701286Y576870D02*
X836803D01*
X715945Y575970D02*
X836803D01*
X716724Y575070D02*
X836803D01*
X717012Y574170D02*
X836803D01*
X716978Y573270D02*
X836803D01*
X828174Y572370D02*
X836803D01*
X829971Y571470D02*
X836803D01*
X831192Y570570D02*
X836803D01*
X832119Y569670D02*
X836803D01*
X832849Y568770D02*
X836803D01*
X833430Y567870D02*
X836803D01*
X833890Y566970D02*
X836803D01*
X834247Y566070D02*
X836803D01*
X834510Y565170D02*
X836803D01*
X834688Y564270D02*
X836803D01*
X834785Y563370D02*
X836803D01*
X523225Y675870D02*
X836788D01*
X834803Y562470D02*
X836773D01*
X808929Y518370D02*
X836499D01*
X813197Y760470D02*
X836438D01*
X509555Y676770D02*
X835987D01*
X808930Y517470D02*
X835942D01*
X834746Y561570D02*
X835940D01*
X813197Y761370D02*
X835880D01*
X808852Y516570D02*
X835379D01*
X813197Y762270D02*
X835317D01*
X509555Y677670D02*
X835087D01*
X808693Y515670D02*
X834810D01*
X813197Y763170D02*
X834748D01*
X808450Y514770D02*
X834236D01*
X509555Y678570D02*
X834187D01*
X813197Y764070D02*
X834173D01*
X808116Y513870D02*
X833656D01*
X813197Y764970D02*
X833592D01*
X603513Y679470D02*
X833287D01*
X807681Y512970D02*
X833070D01*
X813197Y765870D02*
X833005D01*
X807130Y512070D02*
X832478D01*
X813149Y766770D02*
X832412D01*
X604073Y680370D02*
X832387D01*
X806438Y511170D02*
X831880D01*
X812682Y767670D02*
X831813D01*
X629524Y681270D02*
X831487D01*
X805563Y510270D02*
X831275D01*
X811785Y768570D02*
X831209D01*
X804424Y509370D02*
X830665D01*
X810885Y769470D02*
X830597D01*
X630067Y682170D02*
X830587D01*
X802812Y508470D02*
X830048D01*
X809985Y770370D02*
X829980D01*
X630224Y683070D02*
X829687D01*
X767845Y507570D02*
X829425D01*
X809085Y771270D02*
X829356D01*
X766945Y506670D02*
X828796D01*
X630068Y683970D02*
X828787D01*
X808185Y772170D02*
X828727D01*
X766045Y505770D02*
X828160D01*
X807285Y773070D02*
X828090D01*
X629526Y684870D02*
X827887D01*
X765145Y504870D02*
X827518D01*
X806279Y773970D02*
X827447D01*
X739606Y685770D02*
X826987D01*
X764245Y503970D02*
X826870D01*
X765247Y774870D02*
X826798D01*
X763345Y503070D02*
X826214D01*
X764347Y775770D02*
X826142D01*
X739870Y686670D02*
X826087D01*
X762445Y502170D02*
X825552D01*
X763447Y776670D02*
X825479D01*
X739870Y687570D02*
X825187D01*
X761545Y501270D02*
X824884D01*
X762547Y777570D02*
X824810D01*
X739870Y688470D02*
X824287D01*
X760645Y500370D02*
X824208D01*
X761647Y778470D02*
X824133D01*
X759745Y499470D02*
X823526D01*
X760747Y779370D02*
X823450D01*
X739870Y689370D02*
X823387D01*
X808302Y726270D02*
X823047D01*
X797297Y498570D02*
X822836D01*
X797615Y780270D02*
X822760D01*
X739870Y690270D02*
X822487D01*
X799547Y497670D02*
X822140D01*
X799737Y781170D02*
X822063D01*
X739870Y691170D02*
X821587D01*
X801055Y496770D02*
X821436D01*
X801197Y782070D02*
X821358D01*
X716607Y572370D02*
X820752D01*
X802216Y495870D02*
X820725D01*
X739870Y692070D02*
X820687D01*
X802329Y782970D02*
X820647D01*
X811877Y706470D02*
X820504D01*
X811740Y725370D02*
X820032D01*
X803157Y494970D02*
X820007D01*
X803249Y783870D02*
X819928D01*
X739870Y692970D02*
X819787D01*
X803936Y494070D02*
X819282D01*
X804013Y784770D02*
X819201D01*
X715629Y571470D02*
X818955D01*
X739870Y693870D02*
X818887D01*
X810977Y707370D02*
X818801D01*
X804588Y493170D02*
X818549D01*
X812830Y724470D02*
X818492D01*
X804653Y785670D02*
X818468D01*
X739843Y694770D02*
X817987D01*
X805134Y492270D02*
X817808D01*
X462188Y570570D02*
X817734D01*
X805188Y786570D02*
X817726D01*
X810077Y708270D02*
X817620D01*
X813478Y723570D02*
X817389D01*
X739284Y695670D02*
X817087D01*
X805589Y491370D02*
X817060D01*
X746465Y612870D02*
X816993D01*
X805634Y787470D02*
X816977D01*
X746465Y631770D02*
X816941D01*
X463114Y569670D02*
X816807D01*
X809177Y709170D02*
X816718D01*
X813871Y722670D02*
X816538D01*
X746465Y641670D02*
X816418D01*
X805962Y490470D02*
X816304D01*
X805999Y788370D02*
X816220D01*
X554831Y696570D02*
X816187D01*
X746465Y651570D02*
X816080D01*
X642537Y568770D02*
X816077D01*
X808277Y710070D02*
X816007D01*
X814071Y721770D02*
X815863D01*
X746465Y661470D02*
X815813D01*
X746465Y663270D02*
X815601D01*
X527791Y671370D02*
X815588D01*
X806262Y489570D02*
X815540D01*
X643472Y567870D02*
X815496D01*
X806290Y789270D02*
X815455D01*
X807377Y710970D02*
X815440D01*
X746465Y653370D02*
X815403D01*
X814101Y720870D02*
X815326D01*
X554831Y697470D02*
X815287D01*
X746465Y643470D02*
X815226D01*
X746465Y633570D02*
X815066D01*
X644011Y566970D02*
X815036D01*
X806477Y711870D02*
X814992D01*
X746465Y623670D02*
X814919D01*
X746465Y620970D02*
X814910D01*
X746465Y613770D02*
X814784D01*
X746465Y630870D02*
X814776D01*
X806492Y488670D02*
X814768D01*
X814403Y719970D02*
X814721D01*
X806513Y790170D02*
X814683D01*
X644303Y566070D02*
X814679D01*
X746465Y640770D02*
X814651D01*
X805577Y712770D02*
X814646D01*
X746465Y650670D02*
X814535D01*
X746465Y660570D02*
X814427D01*
X644398Y565170D02*
X814416D01*
X804677Y713670D02*
X814392D01*
X599744Y698370D02*
X814387D01*
X813100Y718170D02*
X814345D01*
X746465Y664170D02*
X814331D01*
X813023Y560670D02*
X814325D01*
X528691Y670470D02*
X814325D01*
X644308Y564270D02*
X814238D01*
X746465Y654270D02*
X814235D01*
X804339Y714570D02*
X814223D01*
X812210Y717270D02*
X814196D01*
X812079Y561570D02*
X814184D01*
X746465Y644370D02*
X814145D01*
X717366Y563370D02*
X814141D01*
X804339Y715470D02*
X814135D01*
X810353Y716370D02*
X814126D01*
X809827Y562470D02*
X814123D01*
X746465Y634470D02*
X814060D01*
X806657Y487770D02*
X813988D01*
X813819Y559770D02*
X813984D01*
X746465Y624570D02*
X813980D01*
X746465Y620070D02*
X813975D01*
X746465Y614670D02*
X813905D01*
X806671Y791070D02*
X813902D01*
X746465Y629970D02*
X813900D01*
X746465Y639870D02*
X813829D01*
X746465Y649770D02*
X813762D01*
X746465Y659670D02*
X813698D01*
X746465Y665070D02*
X813643D01*
X745553Y669570D02*
X813639D01*
X746465Y655170D02*
X813586D01*
X746465Y645270D02*
X813533D01*
X600813Y699270D02*
X813487D01*
X746465Y635370D02*
X813483D01*
X746465Y625470D02*
X813436D01*
X746465Y619170D02*
X813433D01*
X746465Y615570D02*
X813392D01*
X746465Y629070D02*
X813390D01*
X746465Y638970D02*
X813349D01*
X746465Y648870D02*
X813311D01*
X746465Y658770D02*
X813275D01*
X746890Y665970D02*
X813244D01*
X746661Y668670D02*
X813242D01*
X746465Y656070D02*
X813214D01*
X806758Y486870D02*
X813200D01*
X746465Y646170D02*
X813186D01*
X746465Y636270D02*
X813161D01*
X746465Y626370D02*
X813138D01*
X746465Y618270D02*
X813136D01*
X746465Y616470D02*
X813117D01*
X746465Y628170D02*
X813116D01*
X806766Y791970D02*
X813113D01*
X746465Y638070D02*
X813098D01*
X746465Y647970D02*
X813082D01*
X746465Y657870D02*
X813069D01*
X747141Y666870D02*
X813058D01*
X747075Y667770D02*
X813058D01*
X746465Y656970D02*
X813049D01*
X746465Y647070D02*
X813043D01*
X746465Y637170D02*
X813038D01*
X746465Y627270D02*
X813036D01*
X746465Y617370D02*
X813036D01*
X601215Y700170D02*
X812587D01*
X806798Y485970D02*
X812404D01*
X806799Y792870D02*
X812315D01*
X601272Y701070D02*
X811687D01*
X806778Y485070D02*
X811599D01*
X806772Y793770D02*
X811510D01*
X610654Y701970D02*
X810787D01*
X806696Y484170D02*
X810785D01*
X806683Y794670D02*
X810695D01*
X806551Y483270D02*
X809963D01*
X611181Y702870D02*
X809887D01*
X806531Y795570D02*
X809872D01*
X806342Y482370D02*
X809132D01*
X806315Y796470D02*
X809041D01*
X611327Y703770D02*
X808987D01*
X718000Y562470D02*
X808533D01*
X806065Y481470D02*
X808293D01*
X806030Y797370D02*
X808200D01*
X795994Y704670D02*
X808087D01*
X804339Y716370D02*
X808007D01*
X805716Y480570D02*
X807444D01*
X805673Y798270D02*
X807350D01*
X797514Y705570D02*
X807187D01*
X805310Y479670D02*
X806586D01*
X805301Y799170D02*
X806491D01*
X798011Y706470D02*
X806287D01*
X718212Y561570D02*
X806281D01*
X804339Y717270D02*
X806149D01*
X798136Y707370D02*
X805387D01*
X718110Y560670D02*
X805337D01*
X804420Y718170D02*
X805259D01*
X474697Y554370D02*
X805224D01*
X578519Y555270D02*
X804827D01*
X717646Y559770D02*
X804762D01*
X797949Y708270D02*
X804487D01*
X580002Y556170D02*
X804458D01*
X716334Y558870D02*
X804422D01*
X580494Y557070D02*
X804278D01*
X580616Y557970D02*
X804266D01*
X797356Y709170D02*
X803587D01*
X554831Y710070D02*
X802687D01*
X488884Y553470D02*
X802058D01*
X554831Y710970D02*
X801787D01*
X554831Y711870D02*
X800891D01*
X489792Y552570D02*
X800798D01*
X554831Y712770D02*
X800431D01*
X748125Y726270D02*
X800386D01*
X748969Y725370D02*
X800386D01*
X749550Y724470D02*
X800386D01*
X749945Y723570D02*
X800386D01*
X750187Y722670D02*
X800386D01*
X750296Y721770D02*
X800386D01*
X750276Y720870D02*
X800386D01*
X750128Y719970D02*
X800386D01*
X749842Y719070D02*
X800386D01*
X749395Y718170D02*
X800386D01*
X748745Y717270D02*
X800386D01*
X747790Y716370D02*
X800386D01*
X746175Y715470D02*
X800386D01*
X555870Y714570D02*
X800386D01*
X554970Y713670D02*
X800386D01*
X798150Y473370D02*
X800230D01*
X797875Y805470D02*
X800184D01*
X490692Y551670D02*
X800077D01*
X746795Y727170D02*
X800017D01*
X491592Y550770D02*
X799636D01*
X569370Y728070D02*
X799600D01*
X572070Y730770D02*
X799451D01*
X649267Y548070D02*
X799430D01*
X649727Y547170D02*
X799410D01*
X492492Y549870D02*
X799397D01*
X570270Y728970D02*
X799381D01*
X732745Y472470D02*
X799374D01*
X571170Y729870D02*
X799333D01*
X648320Y548970D02*
X799330D01*
X572970Y731670D02*
X799274D01*
X733630Y806370D02*
X799270D01*
X731845Y471570D02*
X798426D01*
X732730Y807270D02*
X798321D01*
X649903Y546270D02*
X797483D01*
X730945Y470670D02*
X797467D01*
X731830Y808170D02*
X797361D01*
X573870Y732570D02*
X797347D01*
X730045Y469770D02*
X796498D01*
X574532Y733470D02*
X796434D01*
X730930Y809070D02*
X796391D01*
X784581Y539070D02*
X796372D01*
X750154Y739770D02*
X796351D01*
X749887Y738870D02*
X795999D01*
X785481Y539970D02*
X795947D01*
X781701Y528270D02*
X795940D01*
X638295Y750570D02*
X795927D01*
X574844Y734370D02*
X795877D01*
X749463Y737970D02*
X795617D01*
X786381Y540870D02*
X795587D01*
X746457Y735270D02*
X795549D01*
X729145Y468870D02*
X795517D01*
X748842Y737070D02*
X795425D01*
X730030Y809970D02*
X795409D01*
X747936Y736170D02*
X795404D01*
X787281Y541770D02*
X795313D01*
X611159Y704670D02*
X794951D01*
X728245Y467970D02*
X794525D01*
X729130Y810870D02*
X794415D01*
X781701Y527370D02*
X794406D01*
X768745Y508470D02*
X794382D01*
X638490Y751470D02*
X794189D01*
X637691Y749670D02*
X793753D01*
X554831Y709170D02*
X793589D01*
X727345Y467070D02*
X793521D01*
X781701Y529170D02*
X793496D01*
X610600Y705570D02*
X793431D01*
X728230Y811770D02*
X793410D01*
X783681Y538170D02*
X793288D01*
X750286Y740670D02*
X793090D01*
X554831Y708270D02*
X792996D01*
X554831Y706470D02*
X792934D01*
X587311Y769470D02*
X792866D01*
X554831Y707370D02*
X792808D01*
X781701Y526470D02*
X792785D01*
X769645Y509370D02*
X792770D01*
X638371Y752370D02*
X792642D01*
X726445Y466170D02*
X792505D01*
X727330Y812670D02*
X792393D01*
X574909Y748770D02*
X792196D01*
X781701Y530070D02*
X792084D01*
X782781Y537270D02*
X791984D01*
X750289Y741570D02*
X791884D01*
X587311Y768570D02*
X791741D01*
X781701Y525570D02*
X791642D01*
X770545Y510270D02*
X791631D01*
X637884Y753270D02*
X791535D01*
X725545Y465270D02*
X791477D01*
X574909Y747870D02*
X791376D01*
X726430Y813570D02*
X791363D01*
X781701Y530970D02*
X791307D01*
X781881Y536370D02*
X791246D01*
X750164Y742470D02*
X791185D01*
X746556Y746970D02*
X790871D01*
X587311Y767670D02*
X790842D01*
X781701Y531870D02*
X790830D01*
X781701Y535470D02*
X790794D01*
X781701Y524670D02*
X790765D01*
X749903Y743370D02*
X790757D01*
X771445Y511170D02*
X790756D01*
X636436Y754170D02*
X790681D01*
X747990Y746070D02*
X790583D01*
X781701Y532770D02*
X790563D01*
X781701Y534570D02*
X790546D01*
X749488Y744270D02*
X790529D01*
X748878Y745170D02*
X790473D01*
X781701Y533670D02*
X790471D01*
X724645Y464370D02*
X790437D01*
X725530Y814470D02*
X790322D01*
X587311Y766770D02*
X790133D01*
X781701Y523770D02*
X790071D01*
X772345Y512070D02*
X790064D01*
X688561Y755070D02*
X790004D01*
X758845Y498570D02*
X789711D01*
X587311Y765870D02*
X789568D01*
X781701Y522870D02*
X789519D01*
X773245Y512970D02*
X789513D01*
X689116Y755970D02*
X789465D01*
X759847Y780270D02*
X789393D01*
X723745Y463470D02*
X789384D01*
X724630Y815370D02*
X789267D01*
X734530Y805470D02*
X789133D01*
X587311Y764970D02*
X789121D01*
X781682Y521970D02*
X789083D01*
X774145Y513870D02*
X789078D01*
X689279Y756870D02*
X789041D01*
X733645Y473370D02*
X788858D01*
X587275Y764070D02*
X788776D01*
X781314Y521070D02*
X788747D01*
X775045Y514770D02*
X788744D01*
X689130Y757770D02*
X788716D01*
X587016Y763170D02*
X788523D01*
X780445Y520170D02*
X788503D01*
X775945Y515670D02*
X788501D01*
X688598Y758670D02*
X788482D01*
X586436Y762270D02*
X788356D01*
X779545Y519270D02*
X788344D01*
X776845Y516570D02*
X788342D01*
X583744Y759570D02*
X788331D01*
X722845Y462570D02*
X788318D01*
X585544Y761370D02*
X788269D01*
X778645Y518370D02*
X788264D01*
X777745Y517470D02*
X788264D01*
X584644Y760470D02*
X788261D01*
X723730Y816270D02*
X788200D01*
X757945Y497670D02*
X787461D01*
X758947Y781170D02*
X787271D01*
X721945Y461670D02*
X787239D01*
X722830Y817170D02*
X787119D01*
X735430Y804570D02*
X787109D01*
X734545Y474270D02*
X786932D01*
X721045Y460770D02*
X786146D01*
X721930Y818070D02*
X786025D01*
X757045Y496770D02*
X785953D01*
X758047Y782070D02*
X785811D01*
X736330Y803670D02*
X785689D01*
X735445Y475170D02*
X785555D01*
X649839Y545370D02*
X785295D01*
X720145Y459870D02*
X785039D01*
X721028Y818970D02*
X784917D01*
X756145Y495870D02*
X784791D01*
X757147Y782970D02*
X784679D01*
X737230Y802770D02*
X784581D01*
X736345Y476070D02*
X784473D01*
X649520Y544470D02*
X784391D01*
X719245Y458970D02*
X783919D01*
X755245Y494970D02*
X783851D01*
X652217Y819870D02*
X783795D01*
X756247Y783870D02*
X783758D01*
X738130Y801870D02*
X783678D01*
X737245Y476970D02*
X783589D01*
X648845Y543570D02*
X783491D01*
X754345Y494070D02*
X783072D01*
X755347Y784770D02*
X782995D01*
X739030Y800970D02*
X782927D01*
X738145Y477870D02*
X782853D01*
X718345Y458070D02*
X782784D01*
X651317Y820770D02*
X782658D01*
X647094Y542670D02*
X782591D01*
X753445Y493170D02*
X782420D01*
X754447Y785670D02*
X782355D01*
X739930Y800070D02*
X782299D01*
X739045Y478770D02*
X782236D01*
X752545Y492270D02*
X781874D01*
X753547Y786570D02*
X781820D01*
X740830Y799170D02*
X781773D01*
X739945Y479670D02*
X781720D01*
X500157Y541770D02*
X781691D01*
X717445Y457170D02*
X781634D01*
X650417Y821670D02*
X781506D01*
X751645Y491370D02*
X781419D01*
X752645Y787470D02*
X781374D01*
X741730Y798270D02*
X781335D01*
X740845Y480570D02*
X781292D01*
X750745Y490470D02*
X781046D01*
X751630Y788370D02*
X781009D01*
X742630Y797370D02*
X780978D01*
X741745Y481470D02*
X780943D01*
X500205Y540870D02*
X780791D01*
X749845Y489570D02*
X780746D01*
X750730Y789270D02*
X780718D01*
X743530Y796470D02*
X780693D01*
X742645Y482370D02*
X780666D01*
X748945Y488670D02*
X780516D01*
X749830Y790170D02*
X780495D01*
X744430Y795570D02*
X780477D01*
X716545Y456270D02*
X780469D01*
X743545Y483270D02*
X780457D01*
X748045Y487770D02*
X780351D01*
X656251Y822570D02*
X780339D01*
X748930Y791070D02*
X780337D01*
X745330Y794670D02*
X780325D01*
X744445Y484170D02*
X780312D01*
X747145Y486870D02*
X780250D01*
X748030Y791970D02*
X780242D01*
X746230Y793770D02*
X780236D01*
X745345Y485070D02*
X780230D01*
X746245Y485970D02*
X780209D01*
X747130Y792870D02*
X780209D01*
X500205Y539970D02*
X779891D01*
X715645Y455370D02*
X779288D01*
X657364Y823470D02*
X779157D01*
X500205Y539070D02*
X778991D01*
X500205Y538170D02*
X778125D01*
X714745Y454470D02*
X778091D01*
X658022Y824370D02*
X777959D01*
X500205Y537270D02*
X777765D01*
X500205Y536370D02*
X777748D01*
X500205Y535470D02*
X777748D01*
X500205Y534570D02*
X777748D01*
X641991Y533670D02*
X777748D01*
X643188Y532770D02*
X777748D01*
X643845Y531870D02*
X777748D01*
X644219Y530970D02*
X777748D01*
X644384Y530070D02*
X777748D01*
X644363Y529170D02*
X777748D01*
X644152Y528270D02*
X777748D01*
X755838Y527370D02*
X777748D01*
X757198Y526470D02*
X777748D01*
X757671Y525570D02*
X777748D01*
X757780Y524670D02*
X777748D01*
X757575Y523770D02*
X777748D01*
X756953Y522870D02*
X777555D01*
X713723Y453570D02*
X776878D01*
X658422Y825270D02*
X776744D01*
X501298Y521970D02*
X776655D01*
X502198Y521070D02*
X775755D01*
X695228Y452670D02*
X775648D01*
X658627Y826170D02*
X775512D01*
X536159Y520170D02*
X774855D01*
X694328Y451770D02*
X774401D01*
X658663Y827070D02*
X774263D01*
X536737Y519270D02*
X773955D01*
X693428Y450870D02*
X773137D01*
X536917Y518370D02*
X773055D01*
X669891Y827970D02*
X772996D01*
X536782Y517470D02*
X772155D01*
X692528Y449970D02*
X771853D01*
X671556Y828870D02*
X771711D01*
X536273Y516570D02*
X771255D01*
X691628Y449070D02*
X770552D01*
X672720Y829770D02*
X770407D01*
X534636Y515670D02*
X770355D01*
X744291Y605670D02*
X769906D01*
X508498Y514770D02*
X769455D01*
X746465Y610170D02*
X769420D01*
X690728Y448170D02*
X769230D01*
X673610Y830670D02*
X769084D01*
X745191Y606570D02*
X768861D01*
X746465Y609270D02*
X768682D01*
X554252Y513870D02*
X768555D01*
X746065Y607470D02*
X768466D01*
X746443Y608370D02*
X768414D01*
X689828Y447270D02*
X767889D01*
X674314Y831570D02*
X767740D01*
X554959Y512970D02*
X767655D01*
X555212Y512070D02*
X766755D01*
X688928Y446370D02*
X766527D01*
X696686Y832470D02*
X766376D01*
X555146Y511170D02*
X765855D01*
X688028Y445470D02*
X765144D01*
X697694Y833370D02*
X764990D01*
X554733Y510270D02*
X764955D01*
X587311Y770370D02*
X764451D01*
X553628Y509370D02*
X764055D01*
X687128Y444570D02*
X763739D01*
X698076Y834270D02*
X763583D01*
X587311Y771270D02*
X763257D01*
X514798Y508470D02*
X763155D01*
X587311Y772170D02*
X762357D01*
X686228Y443670D02*
X762311D01*
X543351Y507570D02*
X762255D01*
X698118Y835170D02*
X762152D01*
X587311Y773070D02*
X761457D01*
X544225Y506670D02*
X761355D01*
X685328Y442770D02*
X760859D01*
X697839Y836070D02*
X760698D01*
X660458Y773970D02*
X760557D01*
X544555Y505770D02*
X760455D01*
X662333Y774870D02*
X759657D01*
X544557Y504870D02*
X759555D01*
X684428Y441870D02*
X759383D01*
X697079Y836970D02*
X759220D01*
X688590Y775770D02*
X758757D01*
X544230Y503970D02*
X758655D01*
X683528Y440970D02*
X757882D01*
X689127Y776670D02*
X757857D01*
X543365Y503070D02*
X757755D01*
X676162Y837870D02*
X757716D01*
X689280Y777570D02*
X756957D01*
X521098Y502170D02*
X756855D01*
X682628Y440070D02*
X756355D01*
X676089Y838770D02*
X756185D01*
X689119Y778470D02*
X756057D01*
X730772Y501270D02*
X755955D01*
X688570Y779370D02*
X755157D01*
X731892Y500370D02*
X755055D01*
X681728Y439170D02*
X754800D01*
X675935Y839670D02*
X754627D01*
X643721Y527370D02*
X754399D01*
X713754Y780270D02*
X754257D01*
X732309Y499470D02*
X754155D01*
X714429Y781170D02*
X753357D01*
X500398Y522870D02*
X753284D01*
X732378Y498570D02*
X753255D01*
X680828Y438270D02*
X753216D01*
X675697Y840570D02*
X753040D01*
X642976Y526470D02*
X753038D01*
X500205Y523770D02*
X752661D01*
X641518Y525570D02*
X752565D01*
X714665Y782070D02*
X752457D01*
X500205Y524670D02*
X752456D01*
X732129Y497670D02*
X752355D01*
X679928Y437370D02*
X751603D01*
X714583Y782970D02*
X751557D01*
X731429Y496770D02*
X751455D01*
X675369Y841470D02*
X751424D01*
X714150Y783870D02*
X750657D01*
X565577Y495870D02*
X750555D01*
X679028Y436470D02*
X749959D01*
X674941Y842370D02*
X749776D01*
X565839Y494970D02*
X749655D01*
X712969Y784770D02*
X749640D01*
X565782Y494070D02*
X748755D01*
X665067Y785670D02*
X748740D01*
X678128Y435570D02*
X748282D01*
X674397Y843270D02*
X748096D01*
X565382Y493170D02*
X747855D01*
X665067Y786570D02*
X747840D01*
X564316Y492270D02*
X746955D01*
X707641Y787470D02*
X746940D01*
X677228Y434670D02*
X746572D01*
X673715Y844170D02*
X746382D01*
X531898Y491370D02*
X746055D01*
X708831Y788370D02*
X746040D01*
X532798Y490470D02*
X745155D01*
X709267Y789270D02*
X745140D01*
X676328Y433770D02*
X744826D01*
X672853Y845070D02*
X744631D01*
X533698Y489570D02*
X744255D01*
X709350Y790170D02*
X744240D01*
X651655Y669570D02*
X743424D01*
X534598Y488670D02*
X743355D01*
X709117Y791070D02*
X743340D01*
X675428Y432870D02*
X743042D01*
X671734Y845970D02*
X742844D01*
X699470Y665070D02*
X742512D01*
X699220Y664170D02*
X742512D01*
X699220Y663270D02*
X742512D01*
X699220Y662370D02*
X742512D01*
X699220Y661470D02*
X742512D01*
X699220Y660570D02*
X742512D01*
X699220Y659670D02*
X742512D01*
X699220Y658770D02*
X742512D01*
X699220Y657870D02*
X742512D01*
X699220Y656970D02*
X742512D01*
X699220Y656070D02*
X742512D01*
X699220Y655170D02*
X742512D01*
X699220Y654270D02*
X742512D01*
X699220Y653370D02*
X742512D01*
X699220Y652470D02*
X742512D01*
X699220Y651570D02*
X742512D01*
X699220Y650670D02*
X742512D01*
X699220Y649770D02*
X742512D01*
X699220Y648870D02*
X742512D01*
X699220Y647970D02*
X742512D01*
X699220Y647070D02*
X742512D01*
X699220Y646170D02*
X742512D01*
X699220Y645270D02*
X742512D01*
X699220Y644370D02*
X742512D01*
X699220Y643470D02*
X742512D01*
X699220Y642570D02*
X742512D01*
X699220Y641670D02*
X742512D01*
X699220Y640770D02*
X742512D01*
X699220Y639870D02*
X742512D01*
X699220Y638970D02*
X742512D01*
X699336Y638070D02*
X742512D01*
X699801Y637170D02*
X742512D01*
X699905Y636270D02*
X742512D01*
X699695Y635370D02*
X742512D01*
X699064Y634470D02*
X742512D01*
X541051Y633570D02*
X742512D01*
X540920Y632670D02*
X742512D01*
X540377Y631770D02*
X742512D01*
X539479Y630870D02*
X742512D01*
X538579Y629970D02*
X742512D01*
X537679Y629070D02*
X742512D01*
X536779Y628170D02*
X742512D01*
X535879Y627270D02*
X742512D01*
X534979Y626370D02*
X742512D01*
X726710Y625470D02*
X742512D01*
X727407Y624570D02*
X742512D01*
X727654Y623670D02*
X742512D01*
X727583Y622770D02*
X742512D01*
X727164Y621870D02*
X742512D01*
X726036Y620970D02*
X742512D01*
X674990Y620070D02*
X742512D01*
X675104Y619170D02*
X742512D01*
X674903Y618270D02*
X742512D01*
X674288Y617370D02*
X742512D01*
X507587Y616470D02*
X742512D01*
X507587Y615570D02*
X742512D01*
X507587Y614670D02*
X742512D01*
X507587Y613770D02*
X742512D01*
X507587Y612870D02*
X742512D01*
X507587Y611970D02*
X742512D01*
X507587Y611070D02*
X742512D01*
X507587Y610170D02*
X742512D01*
X535498Y487770D02*
X742455D01*
X708445Y791970D02*
X742440D01*
X698841Y668670D02*
X742315D01*
X507587Y609270D02*
X742301D01*
X699849Y665970D02*
X742087D01*
X699607Y667770D02*
X741902D01*
X699888Y666870D02*
X741835D01*
X695781Y715470D02*
X741621D01*
X536398Y486870D02*
X741555D01*
X664368Y792870D02*
X741540D01*
X507587Y608370D02*
X741401D01*
X699565Y735270D02*
X741339D01*
X699600Y746970D02*
X741239D01*
X674528Y431970D02*
X741219D01*
X670164Y846870D02*
X741016D01*
X696401Y727170D02*
X741000D01*
X537298Y485970D02*
X740655D01*
X663811Y793770D02*
X740640D01*
X507587Y607470D02*
X740501D01*
X697397Y716370D02*
X740005D01*
X699909Y736170D02*
X739859D01*
X699909Y746070D02*
X739805D01*
X538198Y485070D02*
X739755D01*
X663004Y794670D02*
X739740D01*
X697731Y726270D02*
X739671D01*
X507587Y606570D02*
X739601D01*
X673628Y431070D02*
X739355D01*
X666875Y847770D02*
X739147D01*
X698352Y717270D02*
X739050D01*
X699909Y737070D02*
X738953D01*
X699909Y745170D02*
X738917D01*
X700308Y484170D02*
X738855D01*
X661755Y795570D02*
X738840D01*
X698575Y725370D02*
X738826D01*
X507587Y605670D02*
X738701D01*
X699002Y718170D02*
X738400D01*
X699909Y737970D02*
X738333D01*
X699909Y744270D02*
X738308D01*
X699157Y724470D02*
X738245D01*
X700901Y483270D02*
X737955D01*
X699448Y719070D02*
X737954D01*
X534107Y796470D02*
X737940D01*
X699909Y738870D02*
X737909D01*
X699909Y743370D02*
X737892D01*
X699551Y723570D02*
X737851D01*
X507587Y604770D02*
X737801D01*
X699734Y719970D02*
X737667D01*
X699909Y739770D02*
X737641D01*
X699909Y742470D02*
X737631D01*
X699794Y722670D02*
X737608D01*
X699883Y720870D02*
X737519D01*
X699909Y740670D02*
X737510D01*
X699909Y741570D02*
X737506D01*
X699902Y721770D02*
X737500D01*
X672728Y430170D02*
X737446D01*
X647339Y848670D02*
X737233D01*
X701089Y482370D02*
X737055D01*
X535007Y797370D02*
X737040D01*
X513757Y603870D02*
X736901D01*
X700963Y481470D02*
X736155D01*
X535907Y798270D02*
X736140D01*
X641912Y592170D02*
X735664D01*
X671828Y429270D02*
X735491D01*
X647092Y849570D02*
X735273D01*
X700466Y480570D02*
X735255D01*
X536807Y799170D02*
X735240D01*
X506074Y587670D02*
X735162D01*
X642464Y591270D02*
X734612D01*
X641940Y588570D02*
X734428D01*
X698947Y479670D02*
X734355D01*
X537707Y800070D02*
X734340D01*
X642626Y590370D02*
X734215D01*
X642475Y589470D02*
X734162D01*
X670928Y428370D02*
X733486D01*
X544498Y478770D02*
X733455D01*
X538607Y800970D02*
X733440D01*
X646395Y850470D02*
X733263D01*
X545398Y477870D02*
X732555D01*
X539507Y801870D02*
X732540D01*
X546298Y476970D02*
X731655D01*
X540407Y802770D02*
X731640D01*
X670028Y427470D02*
X731429D01*
X548722Y851370D02*
X731199D01*
X547198Y476070D02*
X730755D01*
X706963Y803670D02*
X730740D01*
X548098Y475170D02*
X729855D01*
X707818Y804570D02*
X729840D01*
X550606Y426570D02*
X729315D01*
X550842Y852270D02*
X729079D01*
X548998Y474270D02*
X728955D01*
X708141Y805470D02*
X728940D01*
X710374Y501270D02*
X728676D01*
X549898Y473370D02*
X728055D01*
X708136Y806370D02*
X728040D01*
X708832Y496770D02*
X728020D01*
X710951Y500370D02*
X727557D01*
X710484Y497670D02*
X727320D01*
X616977Y472470D02*
X727155D01*
X552781Y425670D02*
X727141D01*
X707802Y807270D02*
X727140D01*
X711129Y499470D02*
X727140D01*
X710994Y498570D02*
X727071D01*
X553024Y853170D02*
X726898D01*
X618402Y471570D02*
X726255D01*
X706918Y808170D02*
X726240D01*
X618885Y470670D02*
X725355D01*
X643865Y809070D02*
X725340D01*
X555020Y424770D02*
X724901D01*
X555271Y854070D02*
X724651D01*
X619002Y469770D02*
X724455D01*
X644003Y809970D02*
X724440D01*
X674512Y620970D02*
X723964D01*
X618804Y468870D02*
X723555D01*
X643903Y810870D02*
X723540D01*
X581307Y625470D02*
X723290D01*
X673117Y621870D02*
X722836D01*
X618195Y467970D02*
X722655D01*
X643539Y811770D02*
X722640D01*
X582929Y624570D02*
X722593D01*
X557330Y423870D02*
X722591D01*
X583570Y622770D02*
X722417D01*
X583437Y623670D02*
X722346D01*
X557589Y854970D02*
X722333D01*
X556198Y467070D02*
X721755D01*
X642788Y812670D02*
X721740D01*
X557098Y466170D02*
X720855D01*
X551207Y813570D02*
X720840D01*
X559717Y422970D02*
X720205D01*
X557998Y465270D02*
X719955D01*
X552107Y814470D02*
X719940D01*
X559984Y855870D02*
X719937D01*
X558898Y464370D02*
X719055D01*
X553007Y815370D02*
X719040D01*
X559798Y463470D02*
X718155D01*
X562119Y695670D02*
X717802D01*
X562187Y422070D02*
X717734D01*
X680037Y685770D02*
X717480D01*
X562464Y856770D02*
X717457D01*
X630580Y462570D02*
X717255D01*
X562678Y694770D02*
X717243D01*
X562705Y693870D02*
X717217D01*
X562705Y692970D02*
X717217D01*
X562705Y692070D02*
X717217D01*
X562705Y691170D02*
X717217D01*
X681413Y690270D02*
X717217D01*
X682005Y689370D02*
X717217D01*
X682192Y688470D02*
X717217D01*
X682065Y687570D02*
X717217D01*
X681567Y686670D02*
X717217D01*
X631480Y461670D02*
X716355D01*
X632380Y460770D02*
X715455D01*
X564749Y421170D02*
X715172D01*
X565037Y857670D02*
X714885D01*
X580425Y558870D02*
X714768D01*
X633280Y459870D02*
X714555D01*
X644021Y563370D02*
X713737D01*
X634180Y458970D02*
X713655D01*
X579827Y559770D02*
X713456D01*
X460966Y571470D02*
X713111D01*
X643491Y562470D02*
X713102D01*
X474585Y560670D02*
X712993D01*
X642571Y561570D02*
X712890D01*
X701193Y575970D02*
X712796D01*
X635080Y458070D02*
X712755D01*
X567412Y420270D02*
X712509D01*
X567712Y858570D02*
X712209D01*
X459169Y572370D02*
X712133D01*
X700839Y575070D02*
X712016D01*
X418829Y573270D02*
X711762D01*
X700104Y574170D02*
X711728D01*
X665067Y784770D02*
X711047D01*
X665067Y780270D02*
X710262D01*
X665067Y783870D02*
X709866D01*
X570189Y419370D02*
X709732D01*
X665067Y781170D02*
X709586D01*
X665067Y782970D02*
X709432D01*
X570502Y859470D02*
X709419D01*
X665067Y782070D02*
X709351D01*
X564850Y496770D02*
X708097D01*
X573093Y418470D02*
X706828D01*
X521998Y501270D02*
X706556D01*
X573421Y860370D02*
X706500D01*
X525598Y497670D02*
X706445D01*
X522898Y500370D02*
X705978D01*
X524698Y498570D02*
X705935D01*
X523798Y499470D02*
X705800D01*
X665067Y787470D02*
X705745D01*
X664744Y791970D02*
X704941D01*
X665067Y788370D02*
X704555D01*
X664970Y791070D02*
X704269D01*
X665067Y789270D02*
X704119D01*
X643454Y808170D02*
X704105D01*
X541307Y803670D02*
X704061D01*
X665064Y790170D02*
X704036D01*
X576142Y417570D02*
X703779D01*
X576487Y861270D02*
X703434D01*
X642613Y807270D02*
X703222D01*
X542207Y804570D02*
X703205D01*
X544007Y806370D02*
X702887D01*
X543107Y805470D02*
X702882D01*
X579357Y416670D02*
X700564D01*
X579722Y862170D02*
X700199D01*
X543598Y479670D02*
X697904D01*
X582767Y415770D02*
X697154D01*
X583156Y863070D02*
X696766D01*
X539098Y484170D02*
X696542D01*
X542698Y480570D02*
X696384D01*
X539998Y483270D02*
X695949D01*
X541798Y481470D02*
X695887D01*
X644291Y579570D02*
X695811D01*
X540898Y482370D02*
X695761D01*
X652763Y668670D02*
X695647D01*
X512379Y574170D02*
X695565D01*
X652410Y634470D02*
X695425D01*
X652567Y664170D02*
X695268D01*
X652567Y663270D02*
X695268D01*
X652567Y662370D02*
X695268D01*
X652567Y661470D02*
X695268D01*
X652567Y660570D02*
X695268D01*
X652567Y659670D02*
X695268D01*
X652567Y658770D02*
X695268D01*
X652567Y657870D02*
X695268D01*
X652567Y656970D02*
X695268D01*
X652567Y656070D02*
X695268D01*
X652567Y655170D02*
X695268D01*
X652567Y654270D02*
X695268D01*
X652567Y653370D02*
X695268D01*
X652567Y652470D02*
X695268D01*
X652567Y651570D02*
X695268D01*
X652567Y650670D02*
X695268D01*
X652567Y649770D02*
X695268D01*
X652567Y648870D02*
X695268D01*
X652567Y647970D02*
X695268D01*
X652567Y647070D02*
X695268D01*
X652567Y646170D02*
X695268D01*
X652567Y645270D02*
X695268D01*
X652567Y644370D02*
X695268D01*
X652567Y643470D02*
X695268D01*
X652567Y642570D02*
X695268D01*
X652567Y641670D02*
X695268D01*
X652567Y640770D02*
X695268D01*
X652567Y639870D02*
X695268D01*
X652567Y638970D02*
X695268D01*
X652682Y638070D02*
X695153D01*
X652567Y665070D02*
X695018D01*
X643829Y578670D02*
X694950D01*
X653177Y667770D02*
X694882D01*
X582855Y575070D02*
X694831D01*
X653041Y635370D02*
X694793D01*
X653148Y637170D02*
X694687D01*
X652992Y665970D02*
X694639D01*
X653244Y666870D02*
X694600D01*
X653252Y636270D02*
X694583D01*
X642523Y577770D02*
X694529D01*
X583769Y575970D02*
X694476D01*
X635980Y457170D02*
X694396D01*
X584116Y576870D02*
X694383D01*
X674874Y832470D02*
X694259D01*
X676157Y836970D02*
X693866D01*
X586409Y414870D02*
X693512D01*
X675317Y833370D02*
X693251D01*
X656076Y456270D02*
X693238D01*
X676073Y836070D02*
X693106D01*
X586826Y863970D02*
X693096D01*
X675658Y834270D02*
X692869D01*
X675908Y835170D02*
X692827D01*
X657270Y455370D02*
X692338D01*
X657964Y454470D02*
X691438D01*
X644568Y715470D02*
X691227D01*
X589315Y727170D02*
X690607D01*
X658388Y453570D02*
X690538D01*
X658613Y452670D02*
X689638D01*
X645677Y716370D02*
X689611D01*
X590333Y413970D02*
X689588D01*
X628287Y726270D02*
X689277D01*
X590785Y864870D02*
X689136D01*
X658667Y451770D02*
X688738D01*
X646090Y717270D02*
X688656D01*
X628864Y725370D02*
X688432D01*
X646157Y718170D02*
X688006D01*
X629043Y724470D02*
X687851D01*
X669651Y450870D02*
X687838D01*
X645905Y719070D02*
X687560D01*
X628908Y723570D02*
X687457D01*
X588976Y735270D02*
X687443D01*
X589076Y746970D02*
X687407D01*
X645200Y719970D02*
X687273D01*
X628397Y722670D02*
X687214D01*
X592796Y720870D02*
X687125D01*
X626746Y721770D02*
X687106D01*
X590456Y736170D02*
X687099D01*
X590510Y746070D02*
X687098D01*
X591398Y745170D02*
X687098D01*
X592007Y744270D02*
X687098D01*
X592423Y743370D02*
X687098D01*
X592684Y742470D02*
X687098D01*
X592809Y741570D02*
X687098D01*
X592805Y740670D02*
X687098D01*
X592674Y739770D02*
X687098D01*
X592406Y738870D02*
X687098D01*
X591982Y737970D02*
X687098D01*
X591362Y737070D02*
X687098D01*
X671404Y449970D02*
X686938D01*
X672607Y449070D02*
X686038D01*
X594614Y413070D02*
X685308D01*
X673522Y448170D02*
X685138D01*
X595110Y865770D02*
X684811D01*
X579244Y755070D02*
X684667D01*
X665023Y779370D02*
X684658D01*
X663365Y775770D02*
X684639D01*
X582844Y758670D02*
X684630D01*
X674244Y447270D02*
X684238D01*
X580144Y755970D02*
X684113D01*
X664851Y778470D02*
X684109D01*
X664059Y776670D02*
X684102D01*
X581944Y757770D02*
X684098D01*
X581044Y756870D02*
X683949D01*
X664538Y777570D02*
X683949D01*
X674819Y446370D02*
X683338D01*
X675274Y445470D02*
X682438D01*
X675625Y444570D02*
X681538D01*
X675885Y443670D02*
X680638D01*
X599363Y412170D02*
X680559D01*
X599921Y866670D02*
X680001D01*
X676059Y442770D02*
X679738D01*
X577323Y685770D02*
X679018D01*
X676151Y441870D02*
X678838D01*
X676165Y440970D02*
X677938D01*
X576582Y690270D02*
X677642D01*
X578007Y686670D02*
X677488D01*
X577741Y689370D02*
X677050D01*
X676234Y440070D02*
X677038D01*
X578246Y687570D02*
X676990D01*
X578169Y688470D02*
X676863D01*
X604769Y411270D02*
X675152D01*
X605417Y867570D02*
X674504D01*
X631697Y621870D02*
X671765D01*
X630811Y617370D02*
X670594D01*
X632355Y620970D02*
X670370D01*
X632044Y618270D02*
X669979D01*
X632580Y620070D02*
X669892D01*
X632490Y619170D02*
X669778D01*
X611202Y410370D02*
X668719D01*
X612002Y868470D02*
X667919D01*
X647269Y847770D02*
X664778D01*
X658554Y450870D02*
X662003D01*
X658531Y827970D02*
X661763D01*
X646849Y846870D02*
X661490D01*
X548492Y427470D02*
X661074D01*
X619613Y409470D02*
X660308D01*
X658263Y449970D02*
X660249D01*
X546435Y428370D02*
X660174D01*
X658219Y828870D02*
X660098D01*
X645721Y845970D02*
X659919D01*
X544430Y429270D02*
X659274D01*
X620764Y869370D02*
X659157D01*
X657934Y449070D02*
X659046D01*
X657968Y829770D02*
X658934D01*
X633907Y845070D02*
X658800D01*
X542475Y430170D02*
X658374D01*
X634807Y844170D02*
X657939D01*
X615863Y431070D02*
X657474D01*
X655026Y831570D02*
X657340D01*
X656822Y830670D02*
X657276D01*
X635707Y843270D02*
X657256D01*
X641757Y773970D02*
X656865D01*
X645865Y832470D02*
X656779D01*
X636607Y842370D02*
X656713D01*
X618640Y431970D02*
X656574D01*
X645549Y833370D02*
X656336D01*
X637507Y841470D02*
X656285D01*
X644707Y834270D02*
X655995D01*
X638407Y840570D02*
X655956D01*
X643807Y835170D02*
X655746D01*
X639307Y839670D02*
X655719D01*
X620142Y432870D02*
X655674D01*
X642907Y836070D02*
X655581D01*
X643054Y795570D02*
X655568D01*
X640207Y838770D02*
X655565D01*
X642007Y836970D02*
X655497D01*
X641107Y837870D02*
X655492D01*
X643633Y774870D02*
X654989D01*
X621226Y433770D02*
X654774D01*
X644303Y794670D02*
X654319D01*
X644664Y775770D02*
X653958D01*
X622065Y434670D02*
X653874D01*
X645111Y793770D02*
X653511D01*
X645359Y776670D02*
X653263D01*
X622731Y435570D02*
X652974D01*
X645668Y792870D02*
X652954D01*
X645837Y777570D02*
X652785D01*
X646043Y791970D02*
X652579D01*
X646150Y778470D02*
X652472D01*
X645879Y831570D02*
X652455D01*
X646269Y791070D02*
X652353D01*
X646322Y779370D02*
X652300D01*
X646363Y790170D02*
X652259D01*
X646366Y789270D02*
X652256D01*
X646366Y788370D02*
X652256D01*
X646366Y787470D02*
X652256D01*
X646366Y786570D02*
X652256D01*
X646366Y785670D02*
X652256D01*
X646366Y784770D02*
X652256D01*
X646366Y783870D02*
X652256D01*
X646366Y782970D02*
X652256D01*
X646366Y782070D02*
X652256D01*
X646366Y781170D02*
X652256D01*
X646366Y780270D02*
X652256D01*
X623261Y436470D02*
X652074D01*
X646234Y456270D02*
X651404D01*
X649517Y822570D02*
X651229D01*
X623677Y437370D02*
X651174D01*
X646965Y830670D02*
X650673D01*
X623995Y438270D02*
X650274D01*
X553907Y816270D02*
X650227D01*
X647428Y455370D02*
X650210D01*
X648617Y823470D02*
X650116D01*
X647840Y829770D02*
X649798D01*
X603820Y669570D02*
X649526D01*
X648122Y454470D02*
X649516D01*
X648181Y824370D02*
X649458D01*
X624224Y439170D02*
X649374D01*
X554807Y817170D02*
X649327D01*
X648377Y828870D02*
X649261D01*
X603569Y634470D02*
X648771D01*
X604732Y665070D02*
X648614D01*
X604732Y664170D02*
X648614D01*
X604732Y663270D02*
X648614D01*
X604732Y662370D02*
X648614D01*
X604732Y661470D02*
X648614D01*
X604732Y660570D02*
X648614D01*
X604732Y659670D02*
X648614D01*
X604732Y658770D02*
X648614D01*
X604732Y657870D02*
X648614D01*
X604732Y656970D02*
X648614D01*
X604732Y656070D02*
X648614D01*
X604732Y655170D02*
X648614D01*
X604732Y654270D02*
X648614D01*
X604732Y653370D02*
X648614D01*
X604732Y652470D02*
X648614D01*
X604732Y651570D02*
X648614D01*
X604732Y650670D02*
X648614D01*
X604732Y649770D02*
X648614D01*
X604732Y648870D02*
X648614D01*
X604732Y647970D02*
X648614D01*
X604732Y647070D02*
X648614D01*
X604732Y646170D02*
X648614D01*
X604732Y645270D02*
X648614D01*
X604732Y644370D02*
X648614D01*
X604732Y643470D02*
X648614D01*
X604732Y642570D02*
X648614D01*
X604732Y641670D02*
X648614D01*
X604732Y640770D02*
X648614D01*
X604732Y639870D02*
X648614D01*
X604732Y638970D02*
X648614D01*
X605201Y638070D02*
X648499D01*
X624368Y440070D02*
X648474D01*
X555707Y818070D02*
X648427D01*
X604929Y668670D02*
X648418D01*
X605157Y665970D02*
X648189D01*
X604858Y635370D02*
X648140D01*
X605416Y637170D02*
X648034D01*
X605342Y667770D02*
X648004D01*
X605409Y666870D02*
X647938D01*
X605317Y636270D02*
X647929D01*
X556607Y818970D02*
X647527D01*
X557507Y819870D02*
X646627D01*
X499689Y542670D02*
X645819D01*
X558407Y820770D02*
X645727D01*
X559307Y821670D02*
X644827D01*
X493392Y548970D02*
X644593D01*
X498792Y543570D02*
X644068D01*
X633007Y845970D02*
X643649D01*
X494292Y548070D02*
X643647D01*
X497892Y544470D02*
X643394D01*
X495192Y547170D02*
X643186D01*
X496992Y545370D02*
X643074D01*
X496092Y546270D02*
X643010D01*
X628504Y850470D02*
X642975D01*
X632107Y846870D02*
X642521D01*
X588694Y715470D02*
X642440D01*
X629407Y849570D02*
X642278D01*
X631207Y847770D02*
X642102D01*
X630307Y848670D02*
X642031D01*
X592648Y719970D02*
X641808D01*
X638360Y456270D02*
X641562D01*
X638535Y822570D02*
X641386D01*
X590310Y716370D02*
X641331D01*
X592361Y719070D02*
X641102D01*
X584130Y577770D02*
X640942D01*
X591265Y717270D02*
X640917D01*
X591915Y718170D02*
X640851D01*
X624433Y440970D02*
X640703D01*
X639553Y455370D02*
X640368D01*
X639657Y823470D02*
X640265D01*
X558146Y582270D02*
X639920D01*
X624419Y441870D02*
X639784D01*
X583819Y578670D02*
X639635D01*
X557834Y581370D02*
X639284D01*
X582990Y579570D02*
X639173D01*
X557005Y580470D02*
X639071D01*
X624326Y442770D02*
X638884D01*
X544907Y807270D02*
X638490D01*
X500205Y525570D02*
X638404D01*
X550307Y812670D02*
X638314D01*
X627016Y773970D02*
X638164D01*
X611270Y592170D02*
X638009D01*
X624152Y443670D02*
X637984D01*
X507259Y588570D02*
X637981D01*
X500205Y533670D02*
X637930D01*
X545807Y808170D02*
X637649D01*
X549407Y811770D02*
X637563D01*
X610900Y591270D02*
X637457D01*
X507693Y589470D02*
X637446D01*
X463844Y568770D02*
X637384D01*
X473640Y561570D02*
X637350D01*
X609925Y590370D02*
X637295D01*
X546707Y809070D02*
X637237D01*
X548507Y810870D02*
X637200D01*
X547607Y809970D02*
X637099D01*
X623893Y444570D02*
X637084D01*
X500205Y526470D02*
X636945D01*
X627496Y795570D02*
X636867D01*
X500205Y532770D02*
X636734D01*
X464425Y567870D02*
X636449D01*
X471388Y562470D02*
X636430D01*
X627629Y774870D02*
X636289D01*
X500205Y527370D02*
X636200D01*
X623542Y445470D02*
X636184D01*
X500205Y531870D02*
X636077D01*
X464885Y566970D02*
X635911D01*
X465780Y563370D02*
X635900D01*
X500205Y528270D02*
X635769D01*
X500205Y530970D02*
X635702D01*
X465242Y566070D02*
X635618D01*
X627665Y794670D02*
X635618D01*
X465683Y564270D02*
X635613D01*
X500205Y529170D02*
X635558D01*
X500205Y530070D02*
X635537D01*
X465505Y565170D02*
X635524D01*
X623087Y446370D02*
X635284D01*
X627665Y775770D02*
X635257D01*
X578344Y754170D02*
X635217D01*
X627665Y793770D02*
X634811D01*
X627665Y776670D02*
X634563D01*
X627789Y447270D02*
X634382D01*
X627665Y792870D02*
X634254D01*
X627665Y777570D02*
X634084D01*
X574909Y749670D02*
X633963D01*
X627665Y791970D02*
X633878D01*
X627665Y778470D02*
X633771D01*
X577444Y753270D02*
X633770D01*
X627665Y791070D02*
X633652D01*
X627665Y779370D02*
X633599D01*
X627665Y790170D02*
X633559D01*
X627665Y789270D02*
X633555D01*
X627665Y788370D02*
X633555D01*
X627665Y787470D02*
X633555D01*
X627665Y786570D02*
X633555D01*
X627665Y785670D02*
X633555D01*
X627665Y784770D02*
X633555D01*
X627665Y783870D02*
X633555D01*
X627665Y782970D02*
X633555D01*
X627665Y782070D02*
X633555D01*
X627665Y781170D02*
X633555D01*
X627665Y780270D02*
X633555D01*
X628692Y822570D02*
X633512D01*
X574911Y750570D02*
X633358D01*
X576544Y752370D02*
X633283D01*
X575644Y751470D02*
X633163D01*
X629369Y448170D02*
X632836D01*
X629805Y823470D02*
X632400D01*
X629711Y455370D02*
X632136D01*
X630196Y449070D02*
X632009D01*
X630405Y454470D02*
X631800D01*
X630463Y824370D02*
X631742D01*
X630730Y449970D02*
X631475D01*
X628517Y456270D02*
X631290D01*
X525261Y457170D02*
X630390D01*
X524269Y458070D02*
X629490D01*
X507587Y617370D02*
X629031D01*
X519944Y458970D02*
X628590D01*
X583390Y621870D02*
X628145D01*
X507587Y618270D02*
X627799D01*
X582810Y620970D02*
X627488D01*
X507963Y619170D02*
X627353D01*
X528679Y620070D02*
X627263D01*
X592815Y721770D02*
X626010D01*
X604240Y681270D02*
X625594D01*
X509920Y684870D02*
X625592D01*
X604094Y682170D02*
X625051D01*
X509555Y683970D02*
X625050D01*
X603567Y683070D02*
X624894D01*
X622512Y447270D02*
X624573D01*
X590644Y726270D02*
X624469D01*
X592707Y722670D02*
X624359D01*
X591489Y725370D02*
X623892D01*
X592464Y723570D02*
X623848D01*
X525637Y456270D02*
X623845D01*
X592070Y724470D02*
X623713D01*
X560207Y822570D02*
X623670D01*
X525675Y455370D02*
X622651D01*
X561107Y823470D02*
X622557D01*
X620875Y449070D02*
X621987D01*
X525391Y454470D02*
X621957D01*
X620987Y829770D02*
X621954D01*
X562007Y824370D02*
X621899D01*
X619824Y828870D02*
X621702D01*
X619672Y449970D02*
X621658D01*
X524622Y453570D02*
X621533D01*
X562907Y825270D02*
X621499D01*
X618158Y827970D02*
X621390D01*
X617918Y450870D02*
X621367D01*
X504273Y452670D02*
X621308D01*
X563807Y826170D02*
X621294D01*
X564707Y827070D02*
X621259D01*
X535595Y451770D02*
X621255D01*
X550798Y472470D02*
X615700D01*
X587268Y773970D02*
X615504D01*
X533207Y795570D02*
X615023D01*
X586994Y774870D02*
X614891D01*
X532307Y794670D02*
X614854D01*
X531407Y793770D02*
X614854D01*
X530507Y792870D02*
X614854D01*
X529607Y791970D02*
X614854D01*
X528707Y791070D02*
X614854D01*
X527807Y790170D02*
X614854D01*
X526907Y789270D02*
X614854D01*
X526007Y788370D02*
X614854D01*
X525107Y787470D02*
X614854D01*
X524207Y786570D02*
X614854D01*
X523307Y785670D02*
X614854D01*
X522407Y784770D02*
X614854D01*
X521507Y783870D02*
X614854D01*
X520607Y782970D02*
X614854D01*
X519707Y782070D02*
X614854D01*
X518807Y781170D02*
X614854D01*
X517907Y780270D02*
X614854D01*
X517007Y779370D02*
X614854D01*
X516107Y778470D02*
X614854D01*
X515207Y777570D02*
X614854D01*
X585040Y776670D02*
X614854D01*
X586393Y775770D02*
X614854D01*
X555298Y467970D02*
X614482D01*
X551698Y471570D02*
X614276D01*
X554398Y468870D02*
X613873D01*
X552598Y470670D02*
X613792D01*
X553498Y469770D02*
X613676D01*
X540567Y431070D02*
X612326D01*
X536930Y450870D02*
X610271D01*
X565607Y827970D02*
X610031D01*
X538702Y431970D02*
X609549D01*
X537398Y449970D02*
X608517D01*
X584507Y846870D02*
X608512D01*
X566507Y828870D02*
X608365D01*
X583607Y845970D02*
X608187D01*
X536879Y432870D02*
X608047D01*
X507775Y590370D02*
X607398D01*
X537504Y449070D02*
X607314D01*
X592560Y829770D02*
X607202D01*
X507587Y594870D02*
X607090D01*
X582707Y845070D02*
X607068D01*
X535095Y433770D02*
X606963D01*
X554831Y705570D02*
X606723D01*
X601011Y701970D02*
X606669D01*
X507587Y591270D02*
X606423D01*
X546151Y448170D02*
X606399D01*
X593315Y830670D02*
X606311D01*
X507587Y593970D02*
X606309D01*
X581807Y844170D02*
X606206D01*
X554831Y704670D02*
X606163D01*
X600286Y702870D02*
X606142D01*
X533349Y434670D02*
X606124D01*
X507587Y592170D02*
X606053D01*
X507587Y593070D02*
X606020D01*
X554831Y703770D02*
X605996D01*
X546758Y447270D02*
X605677D01*
X593591Y831570D02*
X605607D01*
X580907Y843270D02*
X605524D01*
X579064Y435570D02*
X605458D01*
X546954Y446370D02*
X605102D01*
X593546Y832470D02*
X605047D01*
X580007Y842370D02*
X604981D01*
X580140Y436470D02*
X604928D01*
X546837Y445470D02*
X604647D01*
X593162Y833370D02*
X604604D01*
X579107Y841470D02*
X604552D01*
X580544Y437370D02*
X604511D01*
X556837Y444570D02*
X604296D01*
X592145Y834270D02*
X604263D01*
X578207Y840570D02*
X604224D01*
X580604Y438270D02*
X604194D01*
X557410Y443670D02*
X604037D01*
X572807Y835170D02*
X604013D01*
X577307Y839670D02*
X603986D01*
X580344Y439170D02*
X603965D01*
X557586Y442770D02*
X603863D01*
X573707Y836070D02*
X603849D01*
X576407Y838770D02*
X603833D01*
X579623Y440070D02*
X603821D01*
X557448Y441870D02*
X603770D01*
X574607Y836970D02*
X603765D01*
X575507Y837870D02*
X603759D01*
X556934Y440970D02*
X603756D01*
X541051Y634470D02*
X601943D01*
X529591Y669570D02*
X601691D01*
X573127Y665070D02*
X600780D01*
X573848Y664170D02*
X600780D01*
X574108Y663270D02*
X600780D01*
X574048Y662370D02*
X600780D01*
X573644Y661470D02*
X600780D01*
X572568Y660570D02*
X600780D01*
X558079Y659670D02*
X600780D01*
X558079Y658770D02*
X600780D01*
X558079Y657870D02*
X600780D01*
X558079Y656970D02*
X600780D01*
X558079Y656070D02*
X600780D01*
X558079Y655170D02*
X600780D01*
X558079Y654270D02*
X600780D01*
X558079Y653370D02*
X600780D01*
X558079Y652470D02*
X600780D01*
X558079Y651570D02*
X600780D01*
X558079Y650670D02*
X600780D01*
X558079Y649770D02*
X600780D01*
X558079Y648870D02*
X600780D01*
X558079Y647970D02*
X600780D01*
X558079Y647070D02*
X600780D01*
X558079Y646170D02*
X600780D01*
X558079Y645270D02*
X600780D01*
X558079Y644370D02*
X600780D01*
X558079Y643470D02*
X600780D01*
X558079Y642570D02*
X600780D01*
X558079Y641670D02*
X600780D01*
X558079Y640770D02*
X600780D01*
X558172Y639870D02*
X600780D01*
X558651Y638970D02*
X600779D01*
X541051Y635370D02*
X600653D01*
X557699Y668670D02*
X600583D01*
X558707Y665970D02*
X600354D01*
X558765Y638070D02*
X600311D01*
X557952Y636270D02*
X600195D01*
X558465Y667770D02*
X600169D01*
X558747Y666870D02*
X600103D01*
X558565Y637170D02*
X600095D01*
X509555Y679470D02*
X599637D01*
X509555Y683070D02*
X599582D01*
X509555Y680370D02*
X599077D01*
X509555Y682170D02*
X599056D01*
X509555Y681270D02*
X598910D01*
X554831Y698370D02*
X597500D01*
X554831Y702870D02*
X596958D01*
X554831Y699270D02*
X596431D01*
X554831Y701970D02*
X596233D01*
X554831Y700170D02*
X596029D01*
X554831Y701070D02*
X595972D01*
X571907Y834270D02*
X589745D01*
X567407Y829770D02*
X589330D01*
X571007Y833370D02*
X588728D01*
X568307Y830670D02*
X588575D01*
X570107Y832470D02*
X588343D01*
X569207Y831570D02*
X588299D01*
X556770Y715470D02*
X584140D01*
X574909Y735270D02*
X583858D01*
X574909Y746970D02*
X583759D01*
X568470Y727170D02*
X583520D01*
X514307Y776670D02*
X582677D01*
X557670Y716370D02*
X582525D01*
X546659Y850470D02*
X582519D01*
X574909Y736170D02*
X582379D01*
X574909Y746070D02*
X582325D01*
X567570Y726270D02*
X582190D01*
X544648Y849570D02*
X581617D01*
X558570Y717270D02*
X581570D01*
X574909Y737070D02*
X581473D01*
X574909Y745170D02*
X581437D01*
X566670Y725370D02*
X581346D01*
X513407Y775770D02*
X581323D01*
X559470Y718170D02*
X580920D01*
X574909Y737970D02*
X580852D01*
X574909Y744270D02*
X580827D01*
X565770Y724470D02*
X580765D01*
X512507Y774870D02*
X580722D01*
X542688Y848670D02*
X580717D01*
X534079Y625470D02*
X580504D01*
X560370Y719070D02*
X580473D01*
X511607Y773970D02*
X580449D01*
X574909Y738870D02*
X580428D01*
X574909Y743370D02*
X580412D01*
X510707Y773070D02*
X580405D01*
X531486Y772170D02*
X580405D01*
X532394Y771270D02*
X580405D01*
X532738Y770370D02*
X580405D01*
X532751Y769470D02*
X580405D01*
X532438Y768570D02*
X580405D01*
X531605Y767670D02*
X580405D01*
X489788Y766770D02*
X580405D01*
X564870Y723570D02*
X580370D01*
X490354Y765870D02*
X580277D01*
X561270Y719970D02*
X580187D01*
X574909Y739770D02*
X580160D01*
X574909Y742470D02*
X580151D01*
X566320Y575070D02*
X580137D01*
X563970Y722670D02*
X580128D01*
X562170Y720870D02*
X580039D01*
X574909Y740670D02*
X580029D01*
X574909Y741570D02*
X580026D01*
X563070Y721770D02*
X580019D01*
X566455Y579570D02*
X580002D01*
X540774Y847770D02*
X579817D01*
X566856Y764970D02*
X579378D01*
X567233Y575970D02*
X579223D01*
X567283Y578670D02*
X579173D01*
X529579Y620970D02*
X579001D01*
X538905Y846870D02*
X578917D01*
X533179Y624570D02*
X578882D01*
X567580Y576870D02*
X578877D01*
X567595Y577770D02*
X578862D01*
X568221Y764070D02*
X578478D01*
X530479Y621870D02*
X578421D01*
X532279Y623670D02*
X578374D01*
X531379Y622770D02*
X578241D01*
X537078Y845970D02*
X578017D01*
X568694Y763170D02*
X577578D01*
X475094Y555270D02*
X577386D01*
X535290Y845070D02*
X577117D01*
X531639Y435570D02*
X576841D01*
X568804Y762270D02*
X576678D01*
X555234Y440070D02*
X576283D01*
X533540Y844170D02*
X576217D01*
X475159Y559770D02*
X576079D01*
X475464Y556170D02*
X575904D01*
X568615Y761370D02*
X575778D01*
X529962Y436470D02*
X575765D01*
X525122Y439170D02*
X575562D01*
X475500Y558870D02*
X575480D01*
X475644Y557070D02*
X575412D01*
X528318Y437370D02*
X575361D01*
X531825Y843270D02*
X575317D01*
X526705Y438270D02*
X575302D01*
X475655Y557970D02*
X575289D01*
X568610Y760470D02*
X574878D01*
X562705Y690270D02*
X574600D01*
X530145Y842370D02*
X574417D01*
X568610Y759570D02*
X573978D01*
X562441Y685770D02*
X573858D01*
X528497Y841470D02*
X573517D01*
X562705Y689370D02*
X573440D01*
X562705Y686670D02*
X573175D01*
X568610Y758670D02*
X573078D01*
X562705Y688470D02*
X573012D01*
X562705Y687570D02*
X572935D01*
X526881Y840570D02*
X572617D01*
X568510Y757770D02*
X572178D01*
X525294Y839670D02*
X571717D01*
X568026Y756870D02*
X571278D01*
X523736Y838770D02*
X570817D01*
X567138Y755970D02*
X570378D01*
X558079Y660570D02*
X570345D01*
X522206Y837870D02*
X569917D01*
X558328Y665070D02*
X569787D01*
X566238Y755070D02*
X569478D01*
X558079Y661470D02*
X569269D01*
X558079Y664170D02*
X569065D01*
X520702Y836970D02*
X569017D01*
X558079Y662370D02*
X568865D01*
X558079Y663270D02*
X568806D01*
X565338Y754170D02*
X568645D01*
X564221Y753270D02*
X568185D01*
X519223Y836070D02*
X568117D01*
X534994Y752370D02*
X568010D01*
X534094Y751470D02*
X568004D01*
X533194Y750570D02*
X568004D01*
X532294Y749670D02*
X568004D01*
X531394Y748770D02*
X568004D01*
X530912Y747870D02*
X568004D01*
X542120Y746970D02*
X568004D01*
X542429Y746070D02*
X568004D01*
X542429Y745170D02*
X568004D01*
X542429Y744270D02*
X568004D01*
X542429Y743370D02*
X568004D01*
X542429Y742470D02*
X568004D01*
X542429Y741570D02*
X568004D01*
X542429Y740670D02*
X568004D01*
X542429Y739770D02*
X568004D01*
X542429Y738870D02*
X568004D01*
X542429Y737970D02*
X568004D01*
X542429Y737070D02*
X568004D01*
X542428Y736170D02*
X567704D01*
X517769Y835170D02*
X567217D01*
X542085Y735270D02*
X566804D01*
X516338Y834270D02*
X566317D01*
X516994Y734370D02*
X565904D01*
X490801Y764970D02*
X565428D01*
X514931Y833370D02*
X565417D01*
X516094Y733470D02*
X565004D01*
X513545Y832470D02*
X564517D01*
X515194Y732570D02*
X564104D01*
X491145Y764070D02*
X564063D01*
X491661Y760470D02*
X563673D01*
X491653Y761370D02*
X563669D01*
X491590Y759570D02*
X563657D01*
X512181Y831570D02*
X563617D01*
X513052Y575070D02*
X563601D01*
X491398Y763170D02*
X563589D01*
X491566Y762270D02*
X563480D01*
X476100Y579570D02*
X563467D01*
X514294Y731670D02*
X563204D01*
X491440Y758670D02*
X562856D01*
X510838Y830670D02*
X562717D01*
X513287Y575970D02*
X562688D01*
X511585Y578670D02*
X562638D01*
X513205Y576870D02*
X562341D01*
X512770Y577770D02*
X562327D01*
X513394Y730770D02*
X562304D01*
X530998Y492270D02*
X562062D01*
X509514Y829770D02*
X561817D01*
X526498Y496770D02*
X561528D01*
X512494Y729870D02*
X561404D01*
X530098Y493170D02*
X560996D01*
X508210Y828870D02*
X560917D01*
X527398Y495870D02*
X560801D01*
X529198Y494070D02*
X560596D01*
X528298Y494970D02*
X560539D01*
X511594Y728970D02*
X560504D01*
X506925Y827970D02*
X560017D01*
X510694Y728070D02*
X559604D01*
X505658Y827070D02*
X559117D01*
X538921Y727170D02*
X558704D01*
X542122Y826170D02*
X558217D01*
X520322Y459870D02*
X557808D01*
X540251Y726270D02*
X557804D01*
X543434Y825270D02*
X557317D01*
X520361Y460770D02*
X556908D01*
X541095Y725370D02*
X556904D01*
X543897Y824370D02*
X556417D01*
X520078Y461670D02*
X556008D01*
X541676Y724470D02*
X556004D01*
X544000Y823470D02*
X555517D01*
X519310Y462570D02*
X555108D01*
X542071Y723570D02*
X555104D01*
X543787Y822570D02*
X554617D01*
X523567Y440070D02*
X554609D01*
X530491Y668670D02*
X554506D01*
X541051Y636270D02*
X554253D01*
X490537Y463470D02*
X554208D01*
X542313Y722670D02*
X554204D01*
X415664Y584970D02*
X554152D01*
X534991Y664170D02*
X554126D01*
X535891Y663270D02*
X554126D01*
X536791Y662370D02*
X554126D01*
X537691Y661470D02*
X554126D01*
X538591Y660570D02*
X554126D01*
X539491Y659670D02*
X554126D01*
X540389Y658770D02*
X554126D01*
X540924Y657870D02*
X554126D01*
X541051Y656970D02*
X554126D01*
X541051Y656070D02*
X554126D01*
X541051Y655170D02*
X554126D01*
X541051Y654270D02*
X554126D01*
X541051Y653370D02*
X554126D01*
X541051Y652470D02*
X554126D01*
X541051Y651570D02*
X554126D01*
X541051Y650670D02*
X554126D01*
X541051Y649770D02*
X554126D01*
X541051Y648870D02*
X554126D01*
X541051Y647970D02*
X554126D01*
X541051Y647070D02*
X554126D01*
X541051Y646170D02*
X554126D01*
X541051Y645270D02*
X554126D01*
X541051Y644370D02*
X554126D01*
X541051Y643470D02*
X554126D01*
X541051Y642570D02*
X554126D01*
X541051Y641670D02*
X554126D01*
X541051Y640770D02*
X554126D01*
X541051Y639870D02*
X554033D01*
X416804Y580470D02*
X554018D01*
X534091Y665070D02*
X553876D01*
X531391Y667770D02*
X553740D01*
X543153Y821670D02*
X553717D01*
X541051Y637170D02*
X553640D01*
X541051Y638970D02*
X553554D01*
X533191Y665970D02*
X553498D01*
X532291Y666870D02*
X553458D01*
X541051Y638070D02*
X553440D01*
X513607Y464370D02*
X553308D01*
X542422Y721770D02*
X553304D01*
X415884Y584070D02*
X553239D01*
X416568Y581370D02*
X553189D01*
X546352Y444570D02*
X553005D01*
X522039Y440970D02*
X552908D01*
X416109Y583170D02*
X552892D01*
X416336Y582270D02*
X552878D01*
X497263Y820770D02*
X552817D01*
X544920Y443670D02*
X552432D01*
X514253Y465270D02*
X552408D01*
X542402Y720870D02*
X552404D01*
X520538Y441870D02*
X552394D01*
X519062Y442770D02*
X552256D01*
X496127Y819870D02*
X551917D01*
X514471Y466170D02*
X551508D01*
X542254Y719970D02*
X551504D01*
X513898Y509370D02*
X551490D01*
X495004Y818970D02*
X551017D01*
X509398Y513870D02*
X550866D01*
X514374Y467070D02*
X550608D01*
X541968Y719070D02*
X550604D01*
X512998Y510270D02*
X550385D01*
X510298Y512970D02*
X550159D01*
X493896Y818070D02*
X550117D01*
X512098Y511170D02*
X549972D01*
X511198Y512070D02*
X549906D01*
X513919Y467970D02*
X549708D01*
X541521Y718170D02*
X549704D01*
X492802Y817170D02*
X549217D01*
X540871Y717270D02*
X548811D01*
X512647Y468870D02*
X548808D01*
X491722Y816270D02*
X548317D01*
X539916Y716370D02*
X548226D01*
X538301Y715470D02*
X547963D01*
X509555Y714570D02*
X547925D01*
X509555Y713670D02*
X547925D01*
X509555Y712770D02*
X547925D01*
X509555Y711870D02*
X547925D01*
X509555Y710970D02*
X547925D01*
X509555Y710070D02*
X547925D01*
X509555Y709170D02*
X547925D01*
X509555Y708270D02*
X547925D01*
X509555Y707370D02*
X547925D01*
X509555Y706470D02*
X547925D01*
X509555Y705570D02*
X547925D01*
X509555Y704670D02*
X547925D01*
X531885Y703770D02*
X547925D01*
X532918Y702870D02*
X547925D01*
X533308Y701970D02*
X547925D01*
X533356Y701070D02*
X547925D01*
X533084Y700170D02*
X547925D01*
X532339Y699270D02*
X547925D01*
X509555Y698370D02*
X547925D01*
X519679Y697470D02*
X547925D01*
X520342Y696570D02*
X547925D01*
X483423Y469770D02*
X547908D01*
X490654Y815370D02*
X547417D01*
X482454Y470670D02*
X547008D01*
X489600Y814470D02*
X546517D01*
X481495Y471570D02*
X546108D01*
X488558Y813570D02*
X545617D01*
X480548Y472470D02*
X545208D01*
X487529Y812670D02*
X544717D01*
X491063Y473370D02*
X544308D01*
X486511Y811770D02*
X543817D01*
X517610Y443670D02*
X543663D01*
X492990Y474270D02*
X543408D01*
X485506Y810870D02*
X542917D01*
X494366Y475170D02*
X542508D01*
X537295Y448170D02*
X542432D01*
X516182Y444570D02*
X542230D01*
X484513Y809970D02*
X542017D01*
X536667Y447270D02*
X541825D01*
X514777Y445470D02*
X541746D01*
X513394Y446370D02*
X541628D01*
X495448Y476070D02*
X541608D01*
X483531Y809070D02*
X541117D01*
X496333Y476970D02*
X540708D01*
X520571Y695670D02*
X540637D01*
X504409Y826170D02*
X540555D01*
X515698Y507570D02*
X540508D01*
X520198Y503070D02*
X540493D01*
X510910Y685770D02*
X540315D01*
X482560Y808170D02*
X540217D01*
X520484Y694770D02*
X540078D01*
X520043Y693870D02*
X540051D01*
X518847Y692970D02*
X540051D01*
X517840Y692070D02*
X540051D01*
X516850Y691170D02*
X540051D01*
X515860Y690270D02*
X540051D01*
X514870Y689370D02*
X540051D01*
X513880Y688470D02*
X540051D01*
X512890Y687570D02*
X540051D01*
X511900Y686670D02*
X540051D01*
X497069Y477870D02*
X539808D01*
X516598Y506670D02*
X539634D01*
X519298Y503970D02*
X539628D01*
X498415Y821670D02*
X539524D01*
X481600Y807270D02*
X539317D01*
X517498Y505770D02*
X539303D01*
X518398Y504870D02*
X539301D01*
X503177Y825270D02*
X539243D01*
X497685Y478770D02*
X538908D01*
X499582Y822570D02*
X538890D01*
X501963Y824370D02*
X538780D01*
X500764Y823470D02*
X538678D01*
X480651Y806370D02*
X538417D01*
X498201Y479670D02*
X538008D01*
X490788Y805470D02*
X537517D01*
X498629Y480570D02*
X537108D01*
X492812Y804570D02*
X536617D01*
X498978Y481470D02*
X536208D01*
X523363Y655170D02*
X536114D01*
X522801Y654270D02*
X536114D01*
X409586Y653370D02*
X536114D01*
X409533Y652470D02*
X536114D01*
X409484Y651570D02*
X536114D01*
X427509Y650670D02*
X536114D01*
X428081Y649770D02*
X536114D01*
X428255Y648870D02*
X536114D01*
X428117Y647970D02*
X536114D01*
X427602Y647070D02*
X536114D01*
X425883Y646170D02*
X536114D01*
X409237Y645270D02*
X536114D01*
X409216Y644370D02*
X536114D01*
X409198Y643470D02*
X536114D01*
X409184Y642570D02*
X536114D01*
X409173Y641670D02*
X536114D01*
X515169Y640770D02*
X536114D01*
X516191Y639870D02*
X536114D01*
X516577Y638970D02*
X536114D01*
X516623Y638070D02*
X536114D01*
X516348Y637170D02*
X536114D01*
X515597Y636270D02*
X536114D01*
X409196Y635370D02*
X536114D01*
X523536Y656070D02*
X536067D01*
X409213Y634470D02*
X536061D01*
X494232Y803670D02*
X535717D01*
X499255Y482370D02*
X535308D01*
X526463Y656970D02*
X535209D01*
X409234Y633570D02*
X535197D01*
X495340Y802770D02*
X534817D01*
X499464Y483270D02*
X534408D01*
X527190Y657870D02*
X534309D01*
X409259Y632670D02*
X534297D01*
X505520Y451770D02*
X534090D01*
X496243Y801870D02*
X533917D01*
X507598Y515670D02*
X533868D01*
X509555Y715470D02*
X533747D01*
X491205Y757770D02*
X533648D01*
X499609Y484170D02*
X533508D01*
X527453Y658770D02*
X533409D01*
X456363Y631770D02*
X533397D01*
X509794Y727170D02*
X533126D01*
X512032Y447270D02*
X533018D01*
X496994Y800970D02*
X533017D01*
X506785Y450870D02*
X532755D01*
X499691Y485070D02*
X532608D01*
X490880Y756870D02*
X532512D01*
X527397Y659670D02*
X532509D01*
X457224Y630870D02*
X532497D01*
X510691Y448170D02*
X532390D01*
X503098Y520170D02*
X532345D01*
X508068Y449970D02*
X532287D01*
X506698Y516570D02*
X532231D01*
X509370Y449070D02*
X532181D01*
X509555Y716370D02*
X532131D01*
X497622Y800070D02*
X532117D01*
X509555Y726270D02*
X531797D01*
X503998Y519270D02*
X531766D01*
X505798Y517470D02*
X531722D01*
X499712Y485970D02*
X531708D01*
X490456Y755970D02*
X531612D01*
X526996Y660570D02*
X531609D01*
X457550Y629970D02*
X531597D01*
X504898Y518370D02*
X531587D01*
X498149Y799170D02*
X531217D01*
X509555Y717270D02*
X531176D01*
X509555Y725370D02*
X530952D01*
X499672Y486870D02*
X530808D01*
X489917Y755070D02*
X530712D01*
X525932Y661470D02*
X530709D01*
X506056Y629070D02*
X530697D01*
X509555Y718170D02*
X530526D01*
X509555Y724470D02*
X530371D01*
X498586Y798270D02*
X530317D01*
X509555Y719070D02*
X530080D01*
X509555Y723570D02*
X529977D01*
X517894Y735270D02*
X529963D01*
X499570Y487770D02*
X529908D01*
X489240Y754170D02*
X529812D01*
X523507Y662370D02*
X529809D01*
X507254Y628170D02*
X529797D01*
X509555Y719970D02*
X529793D01*
X509555Y722670D02*
X529734D01*
X509555Y720870D02*
X529645D01*
X509555Y721770D02*
X529626D01*
X518794Y736170D02*
X529619D01*
X527794Y745170D02*
X529618D01*
X526894Y744270D02*
X529618D01*
X525994Y743370D02*
X529618D01*
X525094Y742470D02*
X529618D01*
X524194Y741570D02*
X529618D01*
X523294Y740670D02*
X529618D01*
X522394Y739770D02*
X529618D01*
X521494Y738870D02*
X529618D01*
X520594Y737970D02*
X529618D01*
X519694Y737070D02*
X529618D01*
X509555Y703770D02*
X529532D01*
X528694Y746070D02*
X529530D01*
X498944Y797370D02*
X529417D01*
X509555Y699270D02*
X529078D01*
X499405Y488670D02*
X529008D01*
X488386Y753270D02*
X528912D01*
X523214Y663270D02*
X528909D01*
X507691Y627270D02*
X528897D01*
X509807Y772170D02*
X528750D01*
X489079Y767670D02*
X528632D01*
X499228Y796470D02*
X528517D01*
X509555Y702870D02*
X528500D01*
X509555Y700170D02*
X528333D01*
X509555Y701970D02*
X528110D01*
X499175Y489570D02*
X528108D01*
X509555Y701070D02*
X528061D01*
X487279Y752370D02*
X528012D01*
X522425Y664170D02*
X528009D01*
X507776Y626370D02*
X527997D01*
X508907Y771270D02*
X527842D01*
X488180Y768570D02*
X527798D01*
X499445Y795570D02*
X527617D01*
X507713Y770370D02*
X527498D01*
X487055Y769470D02*
X527485D01*
X498876Y490470D02*
X527208D01*
X485732Y751470D02*
X527112D01*
X410597Y665070D02*
X527109D01*
X507587Y625470D02*
X527097D01*
X499596Y794670D02*
X526717D01*
X498502Y491370D02*
X526308D01*
X483994Y750570D02*
X526212D01*
X410699Y665970D02*
X526209D01*
X507589Y624570D02*
X526197D01*
X499685Y793770D02*
X525817D01*
X498047Y492270D02*
X525408D01*
X497941Y749670D02*
X525312D01*
X410806Y666870D02*
X525309D01*
X499713Y792870D02*
X524917D01*
X497501Y493170D02*
X524508D01*
X498988Y748770D02*
X524412D01*
X410915Y667770D02*
X524409D01*
X499679Y791970D02*
X524017D01*
X496849Y494070D02*
X523608D01*
X499491Y747870D02*
X523512D01*
X411029Y668670D02*
X523509D01*
X499584Y791070D02*
X523117D01*
X496070Y494970D02*
X522708D01*
X499698Y746970D02*
X522612D01*
X411146Y669570D02*
X522609D01*
X499426Y790170D02*
X522217D01*
X495130Y495870D02*
X521808D01*
X518949Y458070D02*
X521794D01*
X499663Y746070D02*
X521712D01*
X411266Y670470D02*
X521709D01*
X503043Y453570D02*
X521441D01*
X499204Y789270D02*
X521317D01*
X493968Y496770D02*
X520908D01*
X499377Y745170D02*
X520812D01*
X498288Y457170D02*
X520802D01*
X501830Y454470D02*
X520672D01*
X499453Y456270D02*
X520426D01*
X498912Y788370D02*
X520417D01*
X500633Y455370D02*
X520388D01*
X492460Y497670D02*
X520008D01*
X498758Y744270D02*
X519912D01*
X498547Y787470D02*
X519517D01*
X476166Y664170D02*
X519307D01*
X490210Y498570D02*
X519108D01*
X498236Y743370D02*
X519012D01*
X498102Y786570D02*
X518617D01*
X456396Y499470D02*
X518208D01*
X498236Y742470D02*
X518112D01*
X497566Y785670D02*
X517717D01*
X455713Y500370D02*
X517308D01*
X498236Y741570D02*
X517212D01*
X496927Y784770D02*
X516817D01*
X497138Y458070D02*
X516484D01*
X455038Y501270D02*
X516408D01*
X498236Y740670D02*
X516312D01*
X509555Y697470D02*
X516148D01*
X491603Y462570D02*
X516123D01*
X496163Y783870D02*
X515917D01*
X454369Y502170D02*
X515508D01*
X496003Y458970D02*
X515489D01*
X509555Y696570D02*
X515450D01*
X498236Y739770D02*
X515412D01*
X492683Y461670D02*
X515355D01*
X494882Y459870D02*
X515111D01*
X493775Y460770D02*
X515072D01*
X495243Y782970D02*
X515017D01*
X453707Y503070D02*
X514608D01*
X498236Y738870D02*
X514512D01*
X509555Y695670D02*
X514461D01*
X494110Y782070D02*
X514117D01*
X453052Y503970D02*
X513708D01*
X498236Y737970D02*
X513612D01*
X509555Y694770D02*
X513471D01*
X492650Y781170D02*
X513217D01*
X452403Y504870D02*
X512808D01*
X409166Y640770D02*
X512784D01*
X498098Y737070D02*
X512712D01*
X509555Y693870D02*
X512481D01*
X409182Y636270D02*
X512356D01*
X490528Y780270D02*
X512317D01*
X451761Y505770D02*
X511908D01*
X497429Y736170D02*
X511812D01*
X409162Y639870D02*
X511762D01*
X409172Y637170D02*
X511605D01*
X509555Y692970D02*
X511491D01*
X456471Y779370D02*
X511417D01*
X409162Y638970D02*
X511376D01*
X409165Y638070D02*
X511330D01*
X507587Y603870D02*
X511046D01*
X451125Y506670D02*
X511008D01*
X484404Y468870D02*
X510975D01*
X496529Y735270D02*
X510912D01*
X507587Y599370D02*
X510905D01*
X455788Y778470D02*
X510517D01*
X509635Y692070D02*
X510501D01*
X507587Y602970D02*
X510130D01*
X450496Y507570D02*
X510108D01*
X507587Y600270D02*
X510078D01*
X489484Y464370D02*
X510015D01*
X495629Y734370D02*
X510012D01*
X507587Y602070D02*
X509783D01*
X507587Y601170D02*
X509767D01*
X485396Y467970D02*
X509703D01*
X476929Y578670D02*
X509675D01*
X455112Y777570D02*
X509617D01*
X488444Y465270D02*
X509369D01*
X486400Y467070D02*
X509248D01*
X485539Y508470D02*
X509208D01*
X487416Y466170D02*
X509151D01*
X494729Y733470D02*
X509112D01*
X418562Y574170D02*
X508881D01*
X454442Y776670D02*
X508717D01*
X477240Y577770D02*
X508490D01*
X487152Y509370D02*
X508308D01*
X493829Y732570D02*
X508212D01*
X475966Y575070D02*
X508207D01*
X477226Y576870D02*
X508055D01*
X476879Y575970D02*
X507973D01*
X453779Y775770D02*
X507817D01*
X488291Y510270D02*
X507408D01*
X492929Y731670D02*
X507312D01*
X453123Y774870D02*
X506917D01*
X489165Y511170D02*
X506508D01*
X492029Y730770D02*
X506412D01*
X489857Y512070D02*
X505608D01*
X491129Y729870D02*
X505512D01*
X490229Y728970D02*
X504837D01*
X490408Y512970D02*
X504708D01*
X489329Y728070D02*
X504621D01*
X488429Y727170D02*
X504618D01*
X487529Y726270D02*
X504618D01*
X486629Y725370D02*
X504618D01*
X485729Y724470D02*
X504618D01*
X484829Y723570D02*
X504618D01*
X483929Y722670D02*
X504618D01*
X483029Y721770D02*
X504618D01*
X482129Y720870D02*
X504618D01*
X481229Y719970D02*
X504618D01*
X480329Y719070D02*
X504618D01*
X479054Y718170D02*
X504618D01*
X473772Y717270D02*
X504618D01*
X471914Y716370D02*
X504618D01*
X465786Y715470D02*
X504618D01*
X465698Y714570D02*
X504618D01*
X465529Y713670D02*
X504618D01*
X465275Y712770D02*
X504618D01*
X464929Y711870D02*
X504618D01*
X464481Y710970D02*
X504618D01*
X463914Y710070D02*
X504618D01*
X463203Y709170D02*
X504618D01*
X462301Y708270D02*
X504618D01*
X461120Y707370D02*
X504618D01*
X498835Y706470D02*
X504618D01*
X499604Y705570D02*
X504618D01*
X499888Y704670D02*
X504618D01*
X499850Y703770D02*
X504618D01*
X499713Y702870D02*
X504618D01*
X499713Y701970D02*
X504618D01*
X499713Y701070D02*
X504618D01*
X499713Y700170D02*
X504618D01*
X499713Y699270D02*
X504618D01*
X499713Y698370D02*
X504618D01*
X499713Y697470D02*
X504618D01*
X499730Y696570D02*
X504618D01*
X500538Y695670D02*
X504618D01*
X501438Y694770D02*
X504618D01*
X502338Y693870D02*
X504618D01*
X503238Y692970D02*
X504618D01*
X413512Y683970D02*
X504618D01*
X413336Y683070D02*
X504618D01*
X472105Y682170D02*
X504618D01*
X472863Y681270D02*
X504618D01*
X473230Y680370D02*
X504618D01*
X473334Y679470D02*
X504618D01*
X473199Y678570D02*
X504618D01*
X472792Y677670D02*
X504618D01*
X471959Y676770D02*
X504618D01*
X413691Y684870D02*
X504356D01*
X457547Y629070D02*
X504180D01*
X415027Y587670D02*
X504162D01*
X490843Y513870D02*
X503808D01*
X413874Y685770D02*
X503456D01*
X457215Y628170D02*
X502982D01*
X414822Y588570D02*
X502977D01*
X491177Y514770D02*
X502908D01*
X409580Y625470D02*
X502650D01*
X409636Y624570D02*
X502650D01*
X409696Y623670D02*
X502650D01*
X409759Y622770D02*
X502650D01*
X409826Y621870D02*
X502650D01*
X409896Y620970D02*
X502650D01*
X409970Y620070D02*
X502650D01*
X410047Y619170D02*
X502650D01*
X410128Y618270D02*
X502650D01*
X410212Y617370D02*
X502650D01*
X410300Y616470D02*
X502650D01*
X410392Y615570D02*
X502650D01*
X410487Y614670D02*
X502650D01*
X410586Y613770D02*
X502650D01*
X410688Y612870D02*
X502650D01*
X410794Y611970D02*
X502650D01*
X410903Y611070D02*
X502650D01*
X411016Y610170D02*
X502650D01*
X411133Y609270D02*
X502650D01*
X411253Y608370D02*
X502650D01*
X411377Y607470D02*
X502650D01*
X411504Y606570D02*
X502650D01*
X411635Y605670D02*
X502650D01*
X411770Y604770D02*
X502650D01*
X411908Y603870D02*
X502650D01*
X412050Y602970D02*
X502650D01*
X412196Y602070D02*
X502650D01*
X412345Y601170D02*
X502650D01*
X435896Y600270D02*
X502650D01*
X436754Y599370D02*
X502650D01*
X437078Y598470D02*
X502650D01*
X437074Y597570D02*
X502650D01*
X436740Y596670D02*
X502650D01*
X435859Y595770D02*
X502650D01*
X413492Y594870D02*
X502650D01*
X413671Y593970D02*
X502650D01*
X413853Y593070D02*
X502650D01*
X414039Y592170D02*
X502650D01*
X414229Y591270D02*
X502650D01*
X414060Y686670D02*
X502556D01*
X456337Y627270D02*
X502545D01*
X414620Y589470D02*
X502543D01*
X414423Y590370D02*
X502461D01*
X409528Y626370D02*
X502461D01*
X491420Y515670D02*
X502008D01*
X414250Y687570D02*
X501656D01*
X491579Y516570D02*
X501108D01*
X414445Y688470D02*
X500756D01*
X491657Y517470D02*
X500208D01*
X414642Y689370D02*
X499856D01*
X491657Y518370D02*
X499308D01*
X414844Y690270D02*
X498956D01*
X491578Y519270D02*
X498408D01*
X415049Y691170D02*
X498056D01*
X491418Y520170D02*
X497508D01*
X433559Y692070D02*
X497156D01*
X491174Y521070D02*
X496639D01*
X490839Y521970D02*
X496271D01*
X434401Y692970D02*
X496256D01*
X494002Y537270D02*
X496252D01*
X493102Y536370D02*
X496252D01*
X492202Y535470D02*
X496252D01*
X491302Y534570D02*
X496252D01*
X490402Y533670D02*
X496252D01*
X489502Y532770D02*
X496252D01*
X489091Y531870D02*
X496252D01*
X488614Y530970D02*
X496252D01*
X487837Y530070D02*
X496252D01*
X486425Y529170D02*
X496252D01*
X483981Y528270D02*
X496252D01*
X485515Y527370D02*
X496252D01*
X487136Y526470D02*
X496252D01*
X488279Y525570D02*
X496252D01*
X489156Y524670D02*
X496252D01*
X489850Y523770D02*
X496252D01*
X490402Y522870D02*
X496252D01*
X495360Y538170D02*
X496050D01*
X459417Y706470D02*
X495654D01*
X434718Y693870D02*
X495367D01*
X411391Y671370D02*
X495209D01*
X418859Y705570D02*
X494884D01*
X434709Y694770D02*
X494878D01*
X418069Y702870D02*
X494776D01*
X417813Y701970D02*
X494776D01*
X417561Y701070D02*
X494776D01*
X417314Y700170D02*
X494776D01*
X417070Y699270D02*
X494776D01*
X416830Y698370D02*
X494776D01*
X416594Y697470D02*
X494776D01*
X433470Y696570D02*
X494776D01*
X434368Y695670D02*
X494776D01*
X418328Y703770D02*
X494638D01*
X418592Y704670D02*
X494600D01*
X486169Y749670D02*
X494579D01*
X412066Y675870D02*
X494557D01*
X489164Y743370D02*
X494283D01*
X488737Y742470D02*
X494283D01*
X488037Y741570D02*
X494283D01*
X486831Y740670D02*
X494283D01*
X483570Y739770D02*
X494283D01*
X483922Y738870D02*
X494283D01*
X411518Y672270D02*
X494091D01*
X411923Y674970D02*
X493856D01*
X489392Y744270D02*
X493762D01*
X411650Y673170D02*
X493675D01*
X484305Y737970D02*
X493639D01*
X411785Y674070D02*
X493606D01*
X487725Y748770D02*
X493531D01*
X489448Y745170D02*
X493142D01*
X488546Y747870D02*
X493028D01*
X489338Y746070D02*
X492857D01*
X489050Y746970D02*
X492822D01*
X484496Y737070D02*
X492739D01*
X484518Y736170D02*
X491839D01*
X484373Y735270D02*
X490939D01*
X484045Y734370D02*
X490039D01*
X483487Y733470D02*
X489139D01*
X482574Y732570D02*
X488239D01*
X480647Y731670D02*
X487339D01*
X480470Y730770D02*
X486439D01*
X480588Y729870D02*
X485539D01*
X480540Y728970D02*
X484639D01*
X480321Y728070D02*
X483739D01*
X479904Y727170D02*
X482839D01*
X437661Y528270D02*
X482705D01*
X457085Y498570D02*
X482624D01*
X437170Y529170D02*
X482617D01*
X457161Y780270D02*
X482306D01*
X479737Y805470D02*
X482046D01*
X479221Y726270D02*
X481939D01*
X479691Y473370D02*
X481772D01*
X436683Y530070D02*
X481204D01*
X478052Y725370D02*
X481039D01*
X436202Y530970D02*
X480428D01*
X457782Y497670D02*
X480375D01*
X433420Y536370D02*
X480367D01*
X432973Y537270D02*
X480316D01*
X457859Y781170D02*
X480185D01*
X474728Y724470D02*
X480139D01*
X435726Y531870D02*
X479951D01*
X433871Y535470D02*
X479914D01*
X435255Y532770D02*
X479684D01*
X434327Y534570D02*
X479666D01*
X434788Y533670D02*
X479592D01*
X475040Y723570D02*
X479239D01*
X458485Y496770D02*
X478866D01*
X458563Y782070D02*
X478725D01*
X475433Y722670D02*
X478339D01*
X459196Y495870D02*
X477705D01*
X459275Y782970D02*
X477592D01*
X438158Y527370D02*
X477133D01*
X449873Y508470D02*
X477109D01*
X432532Y538170D02*
X476820D01*
X459914Y494970D02*
X476765D01*
X459994Y783870D02*
X476672D01*
X460640Y494070D02*
X475986D01*
X460720Y784770D02*
X475908D01*
X432095Y539070D02*
X475825D01*
X452474Y773970D02*
X475611D01*
X438660Y526470D02*
X475513D01*
X449256Y509370D02*
X475497D01*
X461373Y493170D02*
X475334D01*
X461454Y785670D02*
X475269D01*
X431663Y539970D02*
X475225D01*
X431236Y540870D02*
X474865D01*
X429983Y543570D02*
X474853D01*
X430028Y735270D02*
X474827D01*
X462113Y492270D02*
X474787D01*
X462195Y786570D02*
X474733D01*
X430814Y541770D02*
X474693D01*
X430396Y542670D02*
X474689D01*
X430442Y736170D02*
X474682D01*
X473430Y799170D02*
X474620D01*
X473335Y479670D02*
X474611D01*
X451831Y773070D02*
X474605D01*
X430860Y737070D02*
X474505D01*
X439168Y525570D02*
X474370D01*
X448646Y510270D02*
X474358D01*
X462861Y491370D02*
X474333D01*
X462944Y787470D02*
X474288D01*
X472571Y798270D02*
X474249D01*
X472477Y480570D02*
X474206D01*
X429620Y734370D02*
X474142D01*
X463617Y490470D02*
X473959D01*
X463701Y788370D02*
X473923D01*
X471721Y797370D02*
X473891D01*
X429575Y544470D02*
X473865D01*
X471629Y481470D02*
X473856D01*
X451195Y772170D02*
X473705D01*
X464381Y489570D02*
X473660D01*
X464466Y789270D02*
X473631D01*
X470881Y796470D02*
X473606D01*
X431283Y737970D02*
X473605D01*
X470789Y482370D02*
X473579D01*
X439681Y524670D02*
X473493D01*
X448042Y511170D02*
X473484D01*
X465153Y488670D02*
X473430D01*
X465239Y790170D02*
X473408D01*
X470049Y795570D02*
X473390D01*
X469958Y483270D02*
X473370D01*
X465933Y487770D02*
X473265D01*
X466019Y791070D02*
X473250D01*
X418299Y575070D02*
X473247D01*
X469226Y794670D02*
X473239D01*
X469136Y484170D02*
X473226D01*
X466721Y486870D02*
X473163D01*
X466808Y791970D02*
X473156D01*
X468412Y793770D02*
X473150D01*
X468323Y485070D02*
X473144D01*
X467518Y485970D02*
X473123D01*
X467606Y792870D02*
X473122D01*
X417043Y579570D02*
X473112D01*
X410498Y664170D02*
X473047D01*
X450565Y771270D02*
X472805D01*
X440199Y523770D02*
X472799D01*
X447443Y512070D02*
X472792D01*
X431710Y738870D02*
X472705D01*
X429215Y733470D02*
X472509D01*
X429171Y545370D02*
X472394D01*
X418040Y575970D02*
X472334D01*
X417287Y578670D02*
X472284D01*
X410402Y663270D02*
X472258D01*
X440722Y522870D02*
X472246D01*
X446851Y512970D02*
X472240D01*
X417785Y576870D02*
X471987D01*
X468846Y661470D02*
X471973D01*
X417534Y577770D02*
X471972D01*
X410310Y662370D02*
X471966D01*
X449941Y770370D02*
X471905D01*
X441251Y521970D02*
X471810D01*
X446265Y513870D02*
X471805D01*
X432143Y739770D02*
X471805D01*
X428816Y732570D02*
X471669D01*
X456874Y726270D02*
X471619D01*
X428772Y546270D02*
X471599D01*
X457464Y552570D02*
X471523D01*
X426473Y551670D02*
X471481D01*
X441786Y521070D02*
X471475D01*
X445685Y514770D02*
X471471D01*
X426514Y727170D02*
X471421D01*
X442326Y520170D02*
X471231D01*
X445111Y515670D02*
X471228D01*
X428421Y731670D02*
X471152D01*
X428378Y547170D02*
X471110D01*
X442871Y519270D02*
X471071D01*
X444542Y516570D02*
X471070D01*
X426845Y550770D02*
X471040D01*
X449324Y769470D02*
X471005D01*
X426886Y728070D02*
X471004D01*
X443423Y518370D02*
X470992D01*
X443980Y517470D02*
X470991D01*
X432580Y740670D02*
X470905D01*
X428030Y730770D02*
X470855D01*
X427988Y548070D02*
X470834D01*
X427222Y549870D02*
X470801D01*
X427263Y728970D02*
X470785D01*
X427645Y729870D02*
X470737D01*
X427602Y548970D02*
X470734D01*
X448713Y768570D02*
X470105D01*
X465798Y562470D02*
X470095D01*
X433022Y741570D02*
X470005D01*
X409643Y654270D02*
X469718D01*
X465795Y716370D02*
X469568D01*
X448108Y767670D02*
X469205D01*
X409703Y655170D02*
X469157D01*
X433469Y742470D02*
X469105D01*
X409766Y656070D02*
X468983D01*
X447509Y766770D02*
X468305D01*
X433921Y743370D02*
X468205D01*
X459890Y725370D02*
X468182D01*
X460093Y553470D02*
X468026D01*
X465737Y561570D02*
X467842D01*
X412212Y676770D02*
X467805D01*
X465726Y717270D02*
X467711D01*
X413165Y682170D02*
X467659D01*
X446916Y765870D02*
X467405D01*
X434378Y744270D02*
X467305D01*
X461429Y724470D02*
X467091D01*
X461566Y554370D02*
X467004D01*
X412361Y677670D02*
X466972D01*
X412997Y681270D02*
X466901D01*
X465596Y560670D02*
X466898D01*
X465576Y718170D02*
X466821D01*
X410222Y661470D02*
X466588D01*
X412515Y678570D02*
X466565D01*
X412832Y680370D02*
X466533D01*
X446329Y764970D02*
X466505D01*
X462532Y723570D02*
X466443D01*
X412672Y679470D02*
X466430D01*
X434839Y745170D02*
X466405D01*
X462636Y555270D02*
X466389D01*
X465937Y559770D02*
X466102D01*
X409833Y656970D02*
X466057D01*
X463384Y722670D02*
X466050D01*
X463465Y556170D02*
X466019D01*
X464058Y721770D02*
X465850D01*
X464124Y557070D02*
X465839D01*
X464647Y557970D02*
X465827D01*
X464596Y720870D02*
X465821D01*
X445749Y764070D02*
X465605D01*
X410137Y660570D02*
X465523D01*
X465200Y719970D02*
X465519D01*
X435306Y746070D02*
X465505D01*
X409904Y657870D02*
X465329D01*
X410056Y659670D02*
X465123D01*
X409978Y658770D02*
X465066D01*
X445174Y763170D02*
X464705D01*
X435778Y746970D02*
X464605D01*
X444605Y762270D02*
X463965D01*
X436255Y747870D02*
X463920D01*
X444041Y761370D02*
X463772D01*
X443484Y760470D02*
X463772D01*
X442932Y759570D02*
X463772D01*
X442386Y758670D02*
X463772D01*
X441845Y757770D02*
X463772D01*
X441310Y756870D02*
X463772D01*
X440780Y755970D02*
X463772D01*
X440256Y755070D02*
X463772D01*
X439737Y754170D02*
X463772D01*
X439224Y753270D02*
X463772D01*
X438716Y752370D02*
X463772D01*
X438213Y751470D02*
X463772D01*
X437716Y750570D02*
X463772D01*
X437224Y749670D02*
X463772D01*
X436737Y748770D02*
X463772D01*
X426146Y726270D02*
X454042D01*
X430747Y627270D02*
X453505D01*
X430772Y631770D02*
X453480D01*
X426106Y552570D02*
X453452D01*
X419100Y572370D02*
X451747D01*
X419131Y706470D02*
X451499D01*
X425782Y725370D02*
X451027D01*
X425743Y553470D02*
X450824D01*
X419376Y571470D02*
X449950D01*
X419406Y707370D02*
X449796D01*
X425423Y724470D02*
X449488D01*
X425384Y554370D02*
X449350D01*
X419655Y570570D02*
X448729D01*
X419686Y708270D02*
X448615D01*
X425068Y723570D02*
X448384D01*
X425030Y555270D02*
X448280D01*
X419938Y569670D02*
X447802D01*
X419969Y709170D02*
X447714D01*
X424718Y722670D02*
X447533D01*
X424680Y556170D02*
X447451D01*
X420225Y568770D02*
X447073D01*
X420257Y710070D02*
X447002D01*
X424372Y721770D02*
X446858D01*
X424334Y557070D02*
X446793D01*
X420516Y567870D02*
X446491D01*
X420548Y710970D02*
X446435D01*
X424030Y720870D02*
X446321D01*
X423993Y557970D02*
X446269D01*
X420811Y566970D02*
X446031D01*
X420844Y711870D02*
X445987D01*
X423692Y719970D02*
X445898D01*
X423655Y558870D02*
X445857D01*
X421111Y566070D02*
X445675D01*
X421144Y712770D02*
X445641D01*
X423359Y719070D02*
X445574D01*
X423323Y559770D02*
X445544D01*
X421414Y565170D02*
X445411D01*
X421448Y713670D02*
X445387D01*
X423030Y718170D02*
X445341D01*
X422994Y560670D02*
X445320D01*
X421722Y564270D02*
X445233D01*
X421756Y714570D02*
X445219D01*
X422705Y717270D02*
X445191D01*
X422670Y561570D02*
X445179D01*
X422034Y563370D02*
X445136D01*
X422068Y715470D02*
X445131D01*
X422385Y716370D02*
X445121D01*
X422350Y562470D02*
X445119D01*
X413317Y595770D02*
X433039D01*
X412498Y600270D02*
X433001D01*
X413146Y596670D02*
X432158D01*
X412654Y599370D02*
X432144D01*
X412978Y597570D02*
X431824D01*
X412814Y598470D02*
X431820D01*
X416362Y696570D02*
X430703D01*
X415259Y692070D02*
X430614D01*
X416133Y695670D02*
X429805D01*
X415472Y692970D02*
X429772D01*
X415909Y694770D02*
X429464D01*
X415688Y693870D02*
X429455D01*
X409479Y627270D02*
X427914D01*
X409287Y631770D02*
X427889D01*
X409433Y628170D02*
X427037D01*
X409318Y630870D02*
X427028D01*
X409391Y629070D02*
X426705D01*
X409353Y629970D02*
X426702D01*
X409262Y646170D02*
X425298D01*
X409438Y650670D02*
X423672D01*
X409290Y647070D02*
X423580D01*
X409396Y649770D02*
X423100D01*
X409322Y647970D02*
X423064D01*
X409357Y648870D02*
X422926D01*
X467724Y749670D02*
X482782D01*
X468396Y748770D02*
X481317D01*
X469296Y747870D02*
X480496D01*
X475596Y741570D02*
X480442D01*
X474696Y742470D02*
X480305D01*
X470196Y746970D02*
X479992D01*
X467724Y750570D02*
X479992D01*
X473796Y743370D02*
X479878D01*
X471096Y746070D02*
X479704D01*
X472896Y744270D02*
X479650D01*
X471996Y745170D02*
X479594D01*
X476537Y740670D02*
X476964D01*
X467724Y751470D02*
X476917D01*
X467724Y752370D02*
X475370D01*
X467724Y753270D02*
X474263D01*
X467724Y754170D02*
X473408D01*
X467724Y755070D02*
X472732D01*
X467724Y755970D02*
X472193D01*
X467724Y756870D02*
X471768D01*
X467724Y757770D02*
X471444D01*
X467724Y758670D02*
X471209D01*
X469395Y762270D02*
X471083D01*
X467724Y759570D02*
X471058D01*
X470295Y763170D02*
X471043D01*
X468495Y761370D02*
X470996D01*
X467731Y760470D02*
X470988D01*
G54D18*
X486417Y792913D03*
X793504D03*
Y485827D03*
X486417D03*
G54D20*
X505118Y590157D02*
Y621654D01*
X496260Y673819D02*
X507087D01*
Y685630*
X505118Y626575D02*
Y621654D01*
X526772*
X538583Y633465*
Y657087*
X521850Y673819*
X507087*
Y685630D02*
X497244Y695472D01*
Y704331*
X517913Y695472D02*
X507087Y685630D01*
Y727953*
X534646Y755512*
X563189*
X566142Y758465*
Y762402*
G54D27*
X817520Y667323D03*
Y657323D03*
Y647323D03*
Y637323D03*
Y627323D03*
Y617323D03*
G54D32*
X551378Y690551D02*
Y714961D01*
X571457Y735039*
Y752165*
X583858Y764567*
Y773425*
X646457Y546063D03*
X697835Y576772D03*
X469882Y679528D03*
X496260Y746654D03*
X583858Y773425D03*
X640551Y810039D03*
G54D34*
X872244Y639370D02*
G03X872244I-232283J0D01*
G54D35*
G01X577953Y437992D03*
X511811Y466339D03*
X517717Y460433D03*
X552559Y511811D03*
X541929Y505315D03*
X563189Y494685D03*
X534252Y518307D03*
X554921Y442717D03*
X544291Y446260D03*
X534843Y449213D03*
X523031Y455709D03*
X616339Y469882D03*
X729724Y498819D03*
X698425Y482283D03*
X708465Y499409D03*
X434449Y598031D03*
X510630Y576181D03*
X474606Y577362D03*
X505118Y590157D03*
X494685Y540748D03*
X555512Y582677D03*
X564961Y577362D03*
X581496D03*
X577953Y557874D03*
X641732Y580315D03*
X639961Y590354D03*
X608661Y592717D03*
X714370Y573819D03*
X736811Y589764D03*
X715551Y561417D03*
X755118Y524803D03*
X425591Y648819D03*
X429331Y629528D03*
X513976Y638386D03*
X496260Y673819D03*
X454921Y629528D03*
X505118Y626575D03*
X474606Y662008D03*
X471654Y656102D03*
X467717Y659055D03*
X512402Y601575D03*
X571457Y662992D03*
X580906Y622835D03*
X556102Y638189D03*
Y666535D03*
X520866Y662008D03*
Y656102D03*
X524803Y659055D03*
X629921Y619882D03*
X672441Y619291D03*
X602756Y667126D03*
X650591Y636417D03*
Y667126D03*
X602756Y637008D03*
X725000Y623425D03*
X697244Y666535D03*
X744488Y667126D03*
X697244Y636417D03*
X771063Y608071D03*
X432087Y694291D03*
X497244Y704331D03*
X517913Y695472D03*
X575591Y687795D03*
X598622Y700787D03*
X530709Y701378D03*
X635827Y751575D03*
X643504Y717913D03*
X626378Y724409D03*
X608661Y703740D03*
X601575Y681299D03*
X679528Y688386D03*
X627559Y683071D03*
X686614Y756890D03*
X795472Y707283D03*
X530118Y769882D03*
X541339Y823622D03*
X590945Y831890D03*
X566142Y762402D03*
X695472Y834843D03*
X705512Y805906D03*
X686614Y777559D03*
X706693Y789961D03*
X712008Y782283D03*
X644685Y848425D03*
G54D36*
X699475Y747113D02*
X696984Y744622D01*
X699475Y735171D02*
X696984Y737662D01*
X687533Y735171D02*
X690024Y737662D01*
X687533Y747113D02*
X690024Y744622D01*
X717651Y685565D02*
X719854Y687767D01*
X717651Y695538D02*
X719854Y693335D01*
X739435Y695538D02*
X737233Y693335D01*
X739435Y685565D02*
X737233Y687767D01*
X472017Y562344D02*
X471633Y560911D01*
X475503Y556307D02*
X474069Y556691D01*
X469466Y552822D02*
X469850Y554256D01*
X465980Y558859D02*
X467414Y558475D01*
X473575Y796354D02*
X475009Y795970D01*
X482976Y780071D02*
X483360Y781505D01*
X499260Y789472D02*
X497826Y789856D01*
X489858Y805756D02*
X489474Y804322D01*
X489858Y472985D02*
X489474Y474418D01*
X499260Y489268D02*
X497826Y488884D01*
X482976Y498669D02*
X483360Y497235D01*
X473575Y482386D02*
X475009Y482770D01*
X790063Y805756D02*
X790447Y804322D01*
X780662Y789472D02*
X782095Y789856D01*
X796945Y780071D02*
X796561Y781505D01*
X806346Y796354D02*
X804913Y795970D01*
X820691Y614152D02*
X819641Y615202D01*
X820691Y620494D02*
X819641Y619444D01*
X814349Y620494D02*
X815398Y619444D01*
X814349Y614152D02*
X815398Y615202D01*
X806346Y482386D02*
X804913Y482770D01*
X796945Y498669D02*
X796561Y497235D01*
X780662Y489268D02*
X782095Y488884D01*
X790063Y472985D02*
X790447Y474418D01*
X790639Y532440D02*
X792073Y532825D01*
X794125Y538477D02*
X794509Y537044D01*
X800162Y534992D02*
X798728Y534608D01*
X796676Y528955D02*
X796292Y530389D01*
X807904Y716396D02*
X808288Y717830D01*
X810456Y725918D02*
X810071Y724485D01*
X813941Y719881D02*
X812507Y720266D01*
X489282Y746300D02*
X487848Y745916D01*
X485797Y740263D02*
X485413Y741696D01*
X479760Y743748D02*
X481193Y744132D01*
X483245Y749785D02*
X483629Y748351D01*
X541994Y747113D02*
X539503Y744622D01*
X541994Y735171D02*
X539503Y737662D01*
X530053Y735171D02*
X532544Y737662D01*
X657226Y823326D02*
X656176Y824375D01*
X650255Y823326D02*
X651304Y824375D01*
X650255Y830296D02*
X651304Y829247D01*
X657226Y830296D02*
X656176Y829247D01*
X622696Y455415D02*
X623745Y454365D01*
X629667Y455415D02*
X628617Y454365D01*
X629667Y448444D02*
X628617Y449493D01*
X622696Y448444D02*
X623745Y449493D01*
X618223Y471767D02*
X617174Y470717D01*
X614454Y471767D02*
X615503Y470717D01*
X614454Y467997D02*
X615503Y469047D01*
X618223Y467997D02*
X617174Y469047D01*
X700276Y579213D02*
X699227Y578164D01*
X695393Y579213D02*
X696443Y578164D01*
X695393Y574330D02*
X696443Y575380D01*
X700276Y574330D02*
X699227Y575380D01*
X472323Y681969D02*
X471274Y680920D01*
X467440Y681969D02*
X468490Y680920D01*
X467440Y677086D02*
X468490Y678136D01*
X472323Y677086D02*
X471274Y678136D01*
X476491Y579247D02*
X475441Y578197D01*
X472722Y579247D02*
X473771Y578197D01*
X472722Y575478D02*
X473771Y576527D01*
X476491Y575478D02*
X475441Y576527D01*
X797357Y709168D02*
X796308Y708119D01*
X793588Y709168D02*
X794637Y708119D01*
X793588Y705399D02*
X794637Y706448D01*
X797357Y705399D02*
X796308Y706448D01*
X515861Y640271D02*
X514812Y639221D01*
X512092Y640271D02*
X513141Y639221D01*
X512092Y636501D02*
X513141Y637551D01*
X515861Y636501D02*
X514812Y637551D01*
X532593Y703263D02*
X531544Y702213D01*
X528824Y703263D02*
X529873Y702213D01*
X528824Y699493D02*
X529873Y700543D01*
X532593Y699493D02*
X531544Y700543D01*
X648898Y548504D02*
X647849Y547455D01*
X644015Y548504D02*
X645065Y547455D01*
X644015Y543622D02*
X645065Y544671D01*
X648898Y543622D02*
X647849Y544671D01*
X642993Y812481D02*
X641943Y811431D01*
X638110Y812481D02*
X639159Y811431D01*
X638110Y807598D02*
X639159Y808647D01*
X642993Y807598D02*
X641943Y808647D01*
X436334Y599916D02*
X435284Y598867D01*
X432564Y599916D02*
X433614Y598867D01*
X432564Y596147D02*
X433614Y597196D01*
X436334Y596147D02*
X435284Y597196D01*
X427475Y650704D02*
X426426Y649654D01*
X423706Y650704D02*
X424755Y649654D01*
X423706Y646934D02*
X424755Y647984D01*
X427475Y646934D02*
X426426Y647984D01*
X433971Y696176D02*
X432922Y695127D01*
X430202Y696176D02*
X431251Y695127D01*
X430202Y692407D02*
X431251Y693456D01*
X433971Y692407D02*
X432922Y693456D01*
X512515Y578066D02*
X511465Y577016D01*
X508745Y578066D02*
X509795Y577016D01*
X508745Y574296D02*
X509795Y575346D01*
X512515Y574296D02*
X511465Y575346D01*
X557396Y584562D02*
X556347Y583512D01*
X553627Y584562D02*
X554677Y583512D01*
X553627Y580792D02*
X554677Y581842D01*
X557396Y580792D02*
X556347Y581842D01*
X566845Y579247D02*
X565796Y578197D01*
X563076Y579247D02*
X564125Y578197D01*
X563076Y575478D02*
X564125Y576527D01*
X566845Y575478D02*
X565796Y576527D01*
X583381Y579247D02*
X582331Y578197D01*
X579611Y579247D02*
X580661Y578197D01*
X579611Y575478D02*
X580661Y576527D01*
X583381Y575478D02*
X582331Y576527D01*
X579837Y559759D02*
X578788Y558709D01*
X576068Y559759D02*
X577118Y558709D01*
X576068Y555989D02*
X577118Y557039D01*
X579837Y555989D02*
X578788Y557039D01*
X610546Y594601D02*
X609497Y593552D01*
X606777Y594601D02*
X607826Y593552D01*
X606777Y590832D02*
X607826Y591881D01*
X610546Y590832D02*
X609497Y591881D01*
X641845Y592239D02*
X640796Y591189D01*
X638076Y592239D02*
X639125Y591189D01*
X638076Y588470D02*
X639125Y589519D01*
X641845Y588470D02*
X640796Y589519D01*
X643617Y582200D02*
X642567Y581150D01*
X639848Y582200D02*
X640897Y581150D01*
X639848Y578430D02*
X640897Y579480D01*
X643617Y578430D02*
X642567Y579480D01*
X631806Y621767D02*
X630756Y620717D01*
X628037Y621767D02*
X629086Y620717D01*
X628037Y617997D02*
X629086Y619047D01*
X631806Y617997D02*
X630756Y619047D01*
X674326Y621176D02*
X673276Y620127D01*
X670556Y621176D02*
X671606Y620127D01*
X670556Y617407D02*
X671606Y618456D01*
X674326Y617407D02*
X673276Y618456D01*
X716255Y575704D02*
X715205Y574654D01*
X712485Y575704D02*
X713535Y574654D01*
X712485Y571934D02*
X713535Y572984D01*
X716255Y571934D02*
X715205Y572984D01*
X717436Y563302D02*
X716386Y562252D01*
X713666Y563302D02*
X714716Y562252D01*
X713666Y559533D02*
X714716Y560582D01*
X717436Y559533D02*
X716386Y560582D01*
X688499Y758774D02*
X687449Y757725D01*
X684729Y758774D02*
X685779Y757725D01*
X684729Y755005D02*
X685779Y756055D01*
X688499Y755005D02*
X687449Y756055D01*
X688499Y779444D02*
X687449Y778394D01*
X684729Y779444D02*
X685779Y778394D01*
X684729Y775674D02*
X685779Y776724D01*
X688499Y775674D02*
X687449Y776724D01*
X573341Y664877D02*
X572292Y663827D01*
X569572Y664877D02*
X570622Y663827D01*
X569572Y661107D02*
X570622Y662157D01*
X573341Y661107D02*
X572292Y662157D01*
X603459Y683184D02*
X602410Y682134D01*
X599690Y683184D02*
X600740Y682134D01*
X599690Y679415D02*
X600740Y680464D01*
X603459Y679415D02*
X602410Y680464D01*
X600507Y702672D02*
X599457Y701623D01*
X596737Y702672D02*
X597787Y701623D01*
X596737Y698903D02*
X597787Y699952D01*
X600507Y698903D02*
X599457Y699952D01*
X610546Y705625D02*
X609497Y704575D01*
X606777Y705625D02*
X607826Y704575D01*
X606777Y701855D02*
X607826Y702905D01*
X610546Y701855D02*
X609497Y702905D01*
X629444Y684956D02*
X628394Y683906D01*
X625674Y684956D02*
X626724Y683906D01*
X625674Y681186D02*
X626724Y682236D01*
X629444Y681186D02*
X628394Y682236D01*
X577475Y689680D02*
X576426Y688630D01*
X573706Y689680D02*
X574755Y688630D01*
X573706Y685911D02*
X574755Y686960D01*
X577475Y685911D02*
X576426Y686960D01*
X713893Y784168D02*
X712843Y783119D01*
X710123Y784168D02*
X711173Y783119D01*
X710123Y780399D02*
X711173Y781448D01*
X713893Y780399D02*
X712843Y781448D01*
X708578Y791845D02*
X707528Y790796D01*
X704808Y791845D02*
X705858Y790796D01*
X704808Y788076D02*
X705858Y789125D01*
X708578Y788076D02*
X707528Y789125D01*
X707396Y807790D02*
X706347Y806741D01*
X703627Y807790D02*
X704677Y806741D01*
X703627Y804021D02*
X704677Y805070D01*
X707396Y804021D02*
X706347Y805070D01*
X532003Y771767D02*
X530953Y770717D01*
X528233Y771767D02*
X529283Y770717D01*
X528233Y767997D02*
X529283Y769047D01*
X532003Y767997D02*
X530953Y769047D01*
X681412Y690271D02*
X680363Y689221D01*
X677643Y690271D02*
X678692Y689221D01*
X677643Y686501D02*
X678692Y687551D01*
X681412Y686501D02*
X680363Y687551D01*
X646570Y850310D02*
X645520Y849260D01*
X642800Y850310D02*
X643850Y849260D01*
X642800Y846541D02*
X643850Y847590D01*
X646570Y846541D02*
X645520Y847590D01*
X772948Y609956D02*
X771898Y608906D01*
X769178Y609956D02*
X770228Y608906D01*
X769178Y606186D02*
X770228Y607236D01*
X772948Y606186D02*
X771898Y607236D01*
X645389Y719798D02*
X644339Y718749D01*
X641619Y719798D02*
X642669Y718749D01*
X641619Y716029D02*
X642669Y717078D01*
X645389Y716029D02*
X644339Y717078D01*
X628263Y726294D02*
X627213Y725245D01*
X624493Y726294D02*
X625543Y725245D01*
X624493Y722525D02*
X625543Y723574D01*
X628263Y722525D02*
X627213Y723574D01*
X637711Y753459D02*
X636662Y752410D01*
X633942Y753459D02*
X634992Y752410D01*
X633942Y749690D02*
X634992Y750740D01*
X637711Y749690D02*
X636662Y750740D01*
X592830Y833774D02*
X591780Y832725D01*
X589060Y833774D02*
X590110Y832725D01*
X589060Y830005D02*
X590110Y831055D01*
X592830Y830005D02*
X591780Y831055D01*
X738696Y591648D02*
X737646Y590599D01*
X734926Y591648D02*
X735976Y590599D01*
X734926Y587879D02*
X735976Y588929D01*
X738696Y587879D02*
X737646Y588929D01*
X697357Y836727D02*
X696308Y835678D01*
X693588Y836727D02*
X694637Y835678D01*
X693588Y832958D02*
X694637Y834007D01*
X697357Y832958D02*
X696308Y834007D01*
X513696Y468223D02*
X512646Y467174D01*
X509926Y468223D02*
X510976Y467174D01*
X509926Y464454D02*
X510976Y465503D01*
X513696Y464454D02*
X512646Y465503D01*
X519601Y462318D02*
X518552Y461268D01*
X515832Y462318D02*
X516881Y461268D01*
X515832Y458548D02*
X516881Y459598D01*
X519601Y458548D02*
X518552Y459598D01*
X524916Y457593D02*
X523867Y456544D01*
X521147Y457593D02*
X522196Y456544D01*
X521147Y453824D02*
X522196Y454873D01*
X524916Y453824D02*
X523867Y454873D01*
X536727Y451097D02*
X535678Y450048D01*
X532958Y451097D02*
X534007Y450048D01*
X532958Y447328D02*
X534007Y448377D01*
X536727Y447328D02*
X535678Y448377D01*
X546176Y448145D02*
X545127Y447095D01*
X542407Y448145D02*
X543456Y447095D01*
X542407Y444375D02*
X543456Y445425D01*
X546176Y444375D02*
X545127Y445425D01*
X556806Y444601D02*
X555756Y443552D01*
X553037Y444601D02*
X554086Y443552D01*
X553037Y440832D02*
X554086Y441881D01*
X556806Y440832D02*
X555756Y441881D01*
X579837Y439877D02*
X578788Y438827D01*
X576068Y439877D02*
X577118Y438827D01*
X576068Y436107D02*
X577118Y437157D01*
X579837Y436107D02*
X578788Y437157D01*
X726885Y625310D02*
X725835Y624260D01*
X723115Y625310D02*
X724165Y624260D01*
X723115Y621541D02*
X724165Y622590D01*
X726885Y621541D02*
X725835Y622590D01*
X582790Y624719D02*
X581741Y623670D01*
X579021Y624719D02*
X580070Y623670D01*
X579021Y620950D02*
X580070Y621999D01*
X582790Y620950D02*
X581741Y621999D01*
X543223Y825507D02*
X542174Y824457D01*
X539454Y825507D02*
X540503Y824457D01*
X539454Y821737D02*
X540503Y822787D01*
X543223Y821737D02*
X542174Y822787D01*
X757003Y526688D02*
X755953Y525638D01*
X753233Y526688D02*
X754283Y525638D01*
X753233Y522918D02*
X754283Y523968D01*
X757003Y522918D02*
X755953Y523968D01*
X565074Y496570D02*
X564024Y495520D01*
X561304Y496570D02*
X562354Y495520D01*
X561304Y492800D02*
X562354Y493850D01*
X565074Y492800D02*
X564024Y493850D01*
X554444Y513696D02*
X553394Y512646D01*
X550674Y513696D02*
X551724Y512646D01*
X550674Y509926D02*
X551724Y510976D01*
X554444Y509926D02*
X553394Y510976D01*
X543814Y507200D02*
X542764Y506150D01*
X540044Y507200D02*
X541094Y506150D01*
X540044Y503430D02*
X541094Y504480D01*
X543814Y503430D02*
X542764Y504480D01*
X536137Y520192D02*
X535087Y519142D01*
X532367Y520192D02*
X533417Y519142D01*
X532367Y516422D02*
X533417Y517472D01*
X536137Y516422D02*
X535087Y517472D01*
X731609Y500704D02*
X730560Y499654D01*
X727840Y500704D02*
X728889Y499654D01*
X727840Y496934D02*
X728889Y497984D01*
X731609Y496934D02*
X730560Y497984D01*
X710349Y501294D02*
X709300Y500245D01*
X706580Y501294D02*
X707629Y500245D01*
X706580Y497525D02*
X707629Y498574D01*
X710349Y497525D02*
X709300Y498574D01*
X700310Y484168D02*
X699260Y483119D01*
X696541Y484168D02*
X697590Y483119D01*
X696541Y480399D02*
X697590Y481448D01*
X700310Y480399D02*
X699260Y481448D01*
G54D59*
X536024Y741142D03*
X693504D03*
G54D60*
X536024Y721457D03*
X586417Y741142D03*
Y721457D03*
X693504D03*
X743898Y741142D03*
Y721457D03*
G54D61*
X470741Y721157D03*
X475663Y729681D03*
X479600Y736500D03*
X484521Y745024D03*
X626181Y826811D03*
X636024D03*
X643898D03*
X653740D03*
X795400Y745024D03*
X800322Y736500D03*
X804259Y729681D03*
X809180Y721157D03*
Y557583D03*
X804259Y549059D03*
X800322Y542240D03*
X795400Y533716D03*
X653740Y451929D03*
X643898D03*
X636024D03*
X626181D03*
X484521Y533716D03*
X479600Y542240D03*
X475663Y549059D03*
X470741Y557583D03*
G54D62*
X481324Y760826D03*
X455458Y716024D03*
X665827Y837480D03*
X614094D03*
X824463Y716024D03*
X798597Y760826D03*
Y517914D03*
X824463Y562716D03*
X614094Y441260D03*
X665827D03*
X455458Y562716D03*
X481324Y517914D03*
G54D64*
X621260Y785039D03*
G54D65*
X639961D03*
X658661D03*
G54D70*
X662598Y428740D02*
X668504D01*
X695079Y455315*
X712795*
X779724Y522244*
Y537008*
X786614Y543898*
X798425*
X662598Y428740D02*
X648819Y442520D01*
X641929*
X636024Y448425*
Y451929*
Y454331*
X629134Y461220*
X559252*
X498228Y522244*
Y536024*
Y541339*
X487598Y551969*
X475663Y549059D02*
X474606Y550116D01*
Y550197*
X476378Y551969*
X487598*
X484521Y533716D02*
X487653D01*
X494685Y540748*
X801392Y540945D02*
X818110D01*
X838780Y561614*
Y676772*
X802362Y713189*
Y728937*
X803106Y729681*
X804259*
X801392Y540945D02*
X800322Y542240D01*
X798440Y543898*
X798425*
X429331Y629528D02*
X454921D01*
X474606Y662008D02*
X520866D01*
X471654Y656102D02*
X520866D01*
X467717Y659055D02*
X524803D01*
X512402Y601575D02*
X737402D01*
X744488Y608661*
Y667126*
X556102Y638189D02*
Y666535D01*
X650591Y636417D02*
Y667126D01*
X602756Y637008D02*
Y667126D01*
X697244Y636417D02*
Y666535D01*
X471749Y720079D02*
X478543D01*
X496260Y737795*
Y746654*
X471749Y720079D02*
X470741Y721157D01*
X479600Y736500D02*
X479218Y736811D01*
X477559*
X465748Y748622*
Y761417*
X476575Y772244*
X507087*
X583858Y849016*
X627165*
X804259Y729681D02*
X807043D01*
X811220Y733858*
Y766339*
X805315Y772244*
X765077*
X751298Y786024*
X751181*
X719685Y817520*
X651772*
X643898Y825394*
Y827362*
Y832283*
X627165Y849016*
X643898Y826811D02*
Y827362D01*
G54D84*
X728543Y690551D03*
X551378D03*
G74*
X0Y0D02*
M02*
