*
*
G04 PADS VX.2 Build Number: 5060570 generated Gerber (RS-274-X) file*
G04 PC Version=2.1*
*
%IN "MASTER_rev3.pcb"*%
*
%MOIN*%
*
%FSLAX35Y35*%
*
*
*
*
G04 PC Standard Apertures*
*
*
G04 Thermal Relief Aperture macro.*
%AMTER*
1,1,$1,0,0*
1,0,$1-$2,0,0*
21,0,$3,$4,0,0,45*
21,0,$3,$4,0,0,135*
%
*
*
G04 Annular Aperture macro.*
%AMANN*
1,1,$1,0,0*
1,0,$2,0,0*
%
*
*
G04 Odd Aperture macro.*
%AMODD*
1,1,$1,0,0*
1,0,$1-0.005,0,0*
%
*
*
G04 PC Custom Aperture Macros*
*
*
*
*
*
*
G04 PC Aperture Table*
*
%ADD010C,0.001*%
%ADD034C,0.00787*%
%ADD037C,0.00472*%
*
*
*
*
G04 PC Circuitry*
G04 Layer Name MASTER_rev3.pcb - circuitry*
%LPD*%
*
*
G04 PC Custom Flashes*
G04 Layer Name MASTER_rev3.pcb - flashes*
%LPD*%
*
*
G04 PC Circuitry*
G04 Layer Name MASTER_rev3.pcb - circuitry*
%LPD*%
*
G54D10*
G54D34*
G01X584843Y754921D02*
X537598D01*
Y707677*
X584843*
Y754921*
X568504Y724016D02*
X553937D01*
Y738583*
X568504*
Y724016*
X575000Y731299D02*
G75*
G03X575000I-13780J0D01*
G01X541535Y711614D02*
X580906D01*
Y750984*
X541535*
Y711614*
X547441Y715551D02*
G03X547441I-1969J0D01*
G01X578937D02*
G03X578937I-1968J0D01*
G01X547441Y747047D02*
G03X547441I-1969J0D01*
G01X578937D02*
G03X578937I-1968J0D01*
G01X742323Y754921D02*
X695079D01*
Y707677*
X742323*
Y754921*
X725984Y724016D02*
X711417D01*
Y738583*
X725984*
Y724016*
X732480Y731299D02*
G03X732480I-13779J0D01*
G01X699016Y711614D02*
X738386D01*
Y750984*
X699016*
Y711614*
X704921Y715551D02*
G03X704921I-1968J0D01*
G01X736417D02*
G03X736417I-1968J0D01*
G01X704921Y747047D02*
G03X704921I-1968J0D01*
G01X736417D02*
G03X736417I-1968J0D01*
G01X462008Y620472D02*
X489567D01*
Y648031*
X463583*
X462008Y646457*
Y620472*
X465945Y645079D02*
G03X465945I-984J0D01*
G01X441142Y694094D02*
Y698031D01*
X491535*
Y694094*
X441142Y682283D02*
Y678346D01*
X491535*
Y682283*
X600591Y789961D02*
X602146D01*
Y772244*
X600591*
X592717Y789961D02*
X591161D01*
Y772244*
X592717*
X601575Y784055D02*
Y783071D01*
X591732*
Y784055*
X601575*
Y788976D02*
Y785039D01*
X600591*
Y788976*
X601575*
X592717D02*
Y785039D01*
X591732*
Y788976*
X592717*
X822520Y672323D02*
Y612205D01*
X812520*
Y672323*
X822520*
X811614Y668307D02*
X809646Y670276D01*
Y666339*
X811614Y668307*
X507500Y722126D02*
X495295D01*
Y716614*
X507500*
Y722126*
X504744Y723307D02*
X507500Y726063D01*
X501988*
X504744Y723307*
X633858Y796614D02*
X646063D01*
Y802126*
X633858*
Y796614*
X636614Y795433D02*
X633858Y792677D01*
X639370*
X636614Y795433*
X772421Y716614D02*
X784626D01*
Y722126*
X772421*
Y716614*
X775177Y715433D02*
X772421Y712677D01*
X777933*
X775177Y715433*
X772421Y556614D02*
X784626D01*
Y562126*
X772421*
Y556614*
X775177Y555433D02*
X772421Y552677D01*
X777933*
X775177Y555433*
X646063Y482126D02*
X633858D01*
Y476614*
X646063*
Y482126*
X643307Y483307D02*
X646063Y486063D01*
X640551*
X643307Y483307*
X507283Y562402D02*
X495079D01*
Y556890*
X507283*
Y562402*
X504528Y563583D02*
X507283Y566339D01*
X501772*
X504528Y563583*
X586614Y656299D02*
X598819D01*
Y661811*
X586614*
Y656299*
X589370Y655118D02*
X586614Y652362D01*
X592126*
X589370Y655118*
X539370Y656299D02*
X551575D01*
Y661811*
X539370*
Y656299*
X542126Y655118D02*
X539370Y652362D01*
X544882*
X542126Y655118*
X728346Y656299D02*
X740551D01*
Y661811*
X728346*
Y656299*
X731102Y655118D02*
X728346Y652362D01*
X733858*
X731102Y655118*
X681102Y656299D02*
X693307D01*
Y661811*
X681102*
Y656299*
X683858Y655118D02*
X681102Y652362D01*
X686614*
X683858Y655118*
X633858Y656299D02*
X646063D01*
Y661811*
X633858*
Y656299*
X636614Y655118D02*
X633858Y652362D01*
X639370*
X636614Y655118*
X616339Y524213D02*
X663583D01*
Y571457*
X616339*
Y524213*
X632677Y555118D02*
X647244D01*
Y540551*
X632677*
Y555118*
X653740Y547835D02*
G03X653740I-13779J0D01*
G01X659646Y567520D02*
X620276D01*
Y528150*
X659646*
Y567520*
X657677Y563583D02*
G03X657677I-1968J0D01*
G01X626181D02*
G03X626181I-1968J0D01*
G01X657677Y532087D02*
G03X657677I-1968J0D01*
G01X626181D02*
G03X626181I-1968J0D01*
G01X872244Y639370D02*
G03X872244I-232283J0D01*
G54D37*
G01X678543Y579724D02*
X674409D01*
Y575000*
X678543*
X681693Y579724D02*
X685827D01*
Y575000*
X681693*
X528346Y690945D02*
Y686811D01*
X533071*
Y690945*
X528346Y694094D02*
Y698228D01*
X533071*
Y694094*
X673031Y709843D02*
Y705709D01*
X677756*
Y709843*
X673031Y712992D02*
Y717126D01*
X677756*
Y712992*
X502756Y633858D02*
Y629724D01*
X507480*
Y633858*
X502756Y637008D02*
Y641142D01*
X507480*
Y637008*
X439764Y631890D02*
Y627756D01*
X444488*
Y631890*
X439764Y635039D02*
Y639173D01*
X444488*
Y635039*
X431890Y631890D02*
Y627756D01*
X436614*
Y631890*
X431890Y635039D02*
Y639173D01*
X436614*
Y635039*
X495472Y712598D02*
X506890D01*
Y707874*
X495472*
Y712598*
X728740Y669291D02*
X740157D01*
Y664567*
X728740*
Y669291*
X681496D02*
X692913D01*
Y664567*
X681496*
Y669291*
X634252D02*
X645669D01*
Y664567*
X634252*
Y669291*
X587008D02*
X598425D01*
Y664567*
X587008*
Y669291*
X539764D02*
X551181D01*
Y664567*
X539764*
Y669291*
X610630Y819882D02*
X622047D01*
Y815157*
X610630*
Y819882*
X767520Y744685D02*
Y733268D01*
X762795*
Y744685*
X767520*
X761614Y570669D02*
Y559252D01*
X756890*
Y570669*
X761614*
X660039Y473031D02*
Y484449D01*
X664764*
Y473031*
X660039*
X519488Y552559D02*
Y563976D01*
X524213*
Y552559*
X519488*
X674409Y572835D02*
X685827D01*
Y568110*
X674409*
Y572835*
X521457Y686811D02*
Y698228D01*
X526181*
Y686811*
X521457*
X681693Y705709D02*
Y717126D01*
X686417*
Y705709*
X681693*
X461417Y671260D02*
X465551D01*
Y675984*
X461417*
X458268Y671260D02*
X454134D01*
Y675984*
X458268*
X444094D02*
X439961D01*
Y671260*
X444094*
X447244Y675984D02*
X451378D01*
Y671260*
X447244*
X795866Y669291D02*
X791732D01*
Y664567*
X795866*
X799016Y669291D02*
X803150D01*
Y664567*
X799016*
X509890Y738913D02*
X512390D01*
Y743913*
X503890Y738913D02*
X501390D01*
Y743913*
X659583Y800543D02*
Y798043D01*
X664583*
X659583Y806543D02*
Y809043D01*
X664583*
X784992Y699669D02*
X782492D01*
Y694669*
X790992Y699669D02*
X793492D01*
Y694669*
X784693Y573362D02*
X787193D01*
Y578362*
X778693Y573362D02*
X776193D01*
Y578362*
X617583Y482528D02*
Y485028D01*
X612583*
X617583Y476528D02*
Y474028D01*
X612583*
X487843Y576315D02*
X490343D01*
Y581315*
X481843Y576315D02*
X479343D01*
Y581315*
X512992Y751969D02*
X501575D01*
Y756693*
X512992*
Y751969*
X672244Y797047D02*
Y808465D01*
X676969*
Y797047*
X672244*
X782677Y686614D02*
X794094D01*
Y681890*
X782677*
Y686614*
X795669Y582677D02*
X807087D01*
Y577953*
X795669*
Y582677*
X604921Y485236D02*
Y473819D01*
X600197*
Y485236*
X604921*
X490551Y587795D02*
X479134D01*
Y592520*
X490551*
Y587795*
X486024Y665157D02*
Y676575D01*
X490748*
Y665157*
X486024*
X475197D02*
Y676575D01*
X479921*
Y665157*
X475197*
X597047Y803346D02*
Y807480D01*
X592323*
Y803346*
X597047Y800197D02*
Y796063D01*
X592323*
Y800197*
X563780Y765945D02*
X567913D01*
Y770669*
X563780*
X560630Y765945D02*
X556496D01*
Y770669*
X560630*
X568898Y773819D02*
X551181D01*
Y782480*
X568898*
Y773819*
X561024Y778150D02*
X559449D01*
X560236Y778937D02*
Y777362D01*
X569291Y773819D02*
X568898D01*
Y775394*
X569291*
Y773819*
Y780906D02*
X568898D01*
Y782480*
X569291*
Y780906*
X569685D02*
X569291D01*
Y782480*
X569685*
Y780906*
Y773819D02*
X569291D01*
Y775394*
X569685*
Y773819*
X570079Y780906D02*
X569685D01*
Y782480*
X570079*
Y780906*
Y773819D02*
X569685D01*
Y775394*
X570079*
Y773819*
X569291Y778150D02*
X571654D01*
X570472Y776969D02*
Y779331D01*
X608858Y812402D02*
Y794685D01*
X600197*
Y812402*
X608858*
X604528Y804528D02*
Y802953D01*
X603740Y803740D02*
X605315D01*
X608858Y812795D02*
Y812402D01*
X607283*
Y812795*
X608858*
X601772D02*
Y812402D01*
X600197*
Y812795*
X601772*
Y813189D02*
Y812795D01*
X600197*
Y813189*
X601772*
X608858D02*
Y812795D01*
X607283*
Y813189*
X608858*
X601772Y813583D02*
Y813189D01*
X600197*
Y813583*
X601772*
X608858D02*
Y813189D01*
X607283*
Y813583*
X608858*
X604528Y812795D02*
Y815157D01*
X605709Y813976D02*
X603346D01*
X552953Y798622D02*
X579331D01*
Y808858*
X552953*
Y798622*
X565354Y803740D02*
X566929D01*
X566142Y804528D02*
Y802953D01*
X832283Y669685D02*
Y658268D01*
X827559*
Y669685*
X832283*
X676020Y583465D02*
X675913Y583760D01*
X675698Y584055*
X675483Y584203*
X675054*
X674839Y584055*
X674624Y583760*
X674517Y583465*
X674409Y583022*
Y582283*
X674517Y581841*
X674624Y581545*
X674839Y581250*
X675054Y581102*
X675483*
X675698Y581250*
X675913Y581545*
X676020Y581841*
X676986Y583612D02*
X677201Y583760D01*
X677523Y584203*
Y581102*
X679134Y584203D02*
X678812Y584055D01*
X678597Y583612*
X678490Y582874*
Y582431*
X678597Y581693*
X678812Y581250*
X679134Y581102*
X679349*
X679671Y581250*
X679885Y581693*
X679993Y582431*
Y582874*
X679885Y583612*
X679671Y584055*
X679349Y584203*
X679134*
X529331Y684288D02*
X529035Y684180D01*
X528740Y683966*
X528593Y683751*
Y683321*
X528740Y683107*
X529035Y682892*
X529331Y682785*
X529774Y682677*
X530512*
X530955Y682785*
X531250Y682892*
X531545Y683107*
X531693Y683321*
Y683751*
X531545Y683966*
X531250Y684180*
X530955Y684288*
X529183Y685254D02*
X529035Y685469D01*
X528593Y685791*
X531693*
X529183Y686757D02*
X529035Y686972D01*
X528593Y687294*
X531693*
X674016Y707122D02*
X673720Y707015D01*
X673425Y706800*
X673278Y706586*
Y706156*
X673425Y705941*
X673720Y705727*
X674016Y705619*
X674459Y705512*
X675197*
X675640Y705619*
X675935Y705727*
X676230Y705941*
X676378Y706156*
Y706586*
X676230Y706800*
X675935Y707015*
X675640Y707122*
X673868Y708089D02*
X673720Y708304D01*
X673278Y708626*
X676378*
X674016Y709699D02*
X673868D01*
X673573Y709807*
X673425Y709914*
X673278Y710129*
Y710558*
X673425Y710773*
X673573Y710880*
X673868Y710988*
X674163*
X674459Y710880*
X674902Y710666*
X676378Y709592*
Y711095*
X509646Y631138D02*
X509350Y631031D01*
X509055Y630816*
X508907Y630601*
Y630172*
X509055Y629957*
X509350Y629742*
X509646Y629635*
X510089Y629528*
X510827*
X511270Y629635*
X511565Y629742*
X511860Y629957*
X512008Y630172*
Y630601*
X511860Y630816*
X511565Y631031*
X511270Y631138*
X509646Y632212D02*
X509498D01*
X509203Y632319*
X509055Y632427*
X508907Y632641*
Y633071*
X509055Y633286*
X509203Y633393*
X509498Y633500*
X509793*
X510089Y633393*
X510531Y633178*
X512008Y632105*
Y633608*
X441732Y624248D02*
X441437Y624141D01*
X441142Y623926*
X440994Y623712*
Y623282*
X441142Y623067*
X441437Y622853*
X441732Y622745*
X442175Y622638*
X442913*
X443356Y622745*
X443652Y622853*
X443947Y623067*
X444094Y623282*
Y623712*
X443947Y623926*
X443652Y624141*
X443356Y624248*
X440994Y625429D02*
Y626611D01*
X442175Y625966*
Y626288*
X442323Y626503*
X442470Y626611*
X442913Y626718*
X443209*
X443652Y626611*
X443947Y626396*
X444094Y626074*
Y625752*
X443947Y625429*
X443799Y625322*
X443504Y625215*
X433858Y624248D02*
X433563Y624141D01*
X433268Y623926*
X433120Y623712*
Y623282*
X433268Y623067*
X433563Y622853*
X433858Y622745*
X434301Y622638*
X435039*
X435482Y622745*
X435778Y622853*
X436073Y623067*
X436220Y623282*
Y623712*
X436073Y623926*
X435778Y624141*
X435482Y624248*
X434154Y626611D02*
X434596Y626503D01*
X434892Y626288*
X435039Y625966*
Y625859*
X434892Y625537*
X434596Y625322*
X434154Y625215*
X434006*
X433563Y625322*
X433268Y625537*
X433120Y625859*
Y625966*
X433268Y626288*
X433563Y626503*
X434154Y626611*
X434892*
X435630Y626503*
X436073Y626288*
X436220Y625966*
Y625752*
X436073Y625429*
X435778Y625322*
X496063Y716683D02*
Y713583D01*
Y716683D02*
X497029D01*
X497351Y716535*
X497459Y716388*
X497566Y716093*
Y715797*
X497459Y715502*
X497351Y715354*
X497029Y715207*
X496063*
X496815D02*
X497566Y713583D01*
X499069Y716683D02*
X498747Y716535D01*
X498640Y716240*
Y715945*
X498747Y715650*
X498962Y715502*
X499392Y715354*
X499714Y715207*
X499928Y714911*
X500036Y714616*
Y714173*
X499928Y713878*
X499821Y713730*
X499499Y713583*
X499069*
X498747Y713730*
X498640Y713878*
X498533Y714173*
Y714616*
X498640Y714911*
X498855Y715207*
X499177Y715354*
X499606Y715502*
X499821Y715650*
X499928Y715945*
Y716240*
X499821Y716535*
X499499Y716683*
X499069*
X722638Y668061D02*
Y664961D01*
Y668061D02*
X723604D01*
X723926Y667913*
X724034Y667766*
X724141Y667470*
Y667175*
X724034Y666880*
X723926Y666732*
X723604Y666585*
X722638*
X723389D02*
X724141Y664961D01*
X725322Y668061D02*
X726503D01*
X725859Y666880*
X726181*
X726396Y666732*
X726503Y666585*
X726611Y666142*
Y665846*
X726503Y665404*
X726288Y665108*
X725966Y664961*
X725644*
X725322Y665108*
X725215Y665256*
X725107Y665551*
X676378Y668061D02*
Y664961D01*
Y668061D02*
X677344D01*
X677666Y667913*
X677774Y667766*
X677881Y667470*
Y667175*
X677774Y666880*
X677666Y666732*
X677344Y666585*
X676378*
X677130D02*
X677881Y664961D01*
X679921Y668061D02*
X678848Y665994D01*
X680458*
X679921Y668061D02*
Y664961D01*
X628150Y669045D02*
Y665945D01*
Y669045D02*
X629116D01*
X629438Y668898*
X629545Y668750*
X629653Y668455*
Y668159*
X629545Y667864*
X629438Y667717*
X629116Y667569*
X628150*
X628901D02*
X629653Y665945D01*
X632015Y669045D02*
X630941D01*
X630834Y667717*
X630941Y667864*
X631263Y668012*
X631586*
X631908Y667864*
X632122Y667569*
X632230Y667126*
X632122Y666831*
X632015Y666388*
X631800Y666093*
X631478Y665945*
X631156*
X630834Y666093*
X630727Y666240*
X630619Y666535*
X580906Y668061D02*
Y664961D01*
Y668061D02*
X581872D01*
X582194Y667913*
X582301Y667766*
X582409Y667470*
Y667175*
X582301Y666880*
X582194Y666732*
X581872Y666585*
X580906*
X581657D02*
X582409Y664961D01*
X584664Y667618D02*
X584556Y667913D01*
X584234Y668061*
X584019*
X583697Y667913*
X583482Y667470*
X583375Y666732*
Y665994*
X583482Y665404*
X583697Y665108*
X584019Y664961*
X584127*
X584449Y665108*
X584664Y665404*
X584771Y665846*
Y665994*
X584664Y666437*
X584449Y666732*
X584127Y666880*
X584019*
X583697Y666732*
X583482Y666437*
X583375Y665994*
X534646Y668061D02*
Y664961D01*
Y668061D02*
X535612D01*
X535934Y667913*
X536042Y667766*
X536149Y667470*
Y667175*
X536042Y666880*
X535934Y666732*
X535612Y666585*
X534646*
X535397D02*
X536149Y664961D01*
X538618Y668061D02*
X537545Y664961D01*
X537115Y668061D02*
X538618D01*
X618307Y814715D02*
Y811614D01*
Y814715D02*
X619273D01*
X619596Y814567*
X619703Y814419*
X619810Y814124*
Y813829*
X619703Y813533*
X619596Y813386*
X619273Y813238*
X618307*
X619059D02*
X619810Y811614D01*
X622173Y813681D02*
X622065Y813238D01*
X621850Y812943*
X621528Y812795*
X621421*
X621099Y812943*
X620884Y813238*
X620777Y813681*
Y813829*
X620884Y814272*
X621099Y814567*
X621421Y814715*
X621528*
X621850Y814567*
X622065Y814272*
X622173Y813681*
Y812943*
X622065Y812205*
X621850Y811762*
X621528Y811614*
X621314*
X620991Y811762*
X620884Y812057*
X767077Y749606D02*
X763976D01*
X767077D02*
Y748640D01*
X766929Y748318*
X766781Y748210*
X766486Y748103*
X766191*
X765896Y748210*
X765748Y748318*
X765600Y748640*
Y749606*
Y748855D02*
X763976Y748103D01*
X766486Y747137D02*
X766634Y746922D01*
X767077Y746600*
X763976*
X767077Y744989D02*
X766929Y745311D01*
X766486Y745526*
X765748Y745634*
X765748D02*
X765305D01*
X765305D02*
X764567Y745526D01*
X764124Y745311*
X763976Y744989*
Y744775*
X764124Y744452*
X764567Y744238*
X765305Y744130*
X765748*
X766486Y744238*
X766929Y744452*
X767077Y744775*
Y744989*
X760187Y576378D02*
X757087D01*
X760187D02*
Y575412D01*
X760039Y575089*
X759892Y574982*
X759596Y574875*
X759301*
X759006Y574982*
X758858Y575089*
X758711Y575412*
Y576378*
Y575626D02*
X757087Y574875D01*
X759596Y573908D02*
X759744Y573694D01*
X760187Y573372*
X757087*
X760187Y571868D02*
X760039Y572190D01*
X759744Y572298*
X759449*
X759154Y572190*
X759006Y571976*
X758858Y571546*
X758711Y571224*
X758415Y571009*
X758120Y570902*
X757677*
X757382Y571009*
X757234Y571117*
X757087Y571439*
Y571868*
X757234Y572190*
X757382Y572298*
X757677Y572405*
X758120*
X758415Y572298*
X758711Y572083*
X758858Y571761*
X759006Y571331*
X759154Y571117*
X759449Y571009*
X759744*
X760039Y571117*
X760187Y571439*
Y571868*
X660482Y468110D02*
X663583D01*
X660482D02*
Y469077D01*
X660630Y469399*
X660778Y469506*
X661073Y469613*
X661368*
X661663Y469506*
X661811Y469399*
X661959Y469077*
Y468110*
Y468862D02*
X663583Y469613D01*
X661073Y470580D02*
X660925Y470795D01*
X660482Y471117*
X663583*
X661516Y473479D02*
X661959Y473372D01*
X662254Y473157*
X662402Y472835*
Y472727*
X662254Y472405*
X661959Y472190*
X661516Y472083*
X661368*
X660925Y472190*
X660630Y472405*
X660482Y472727*
Y472835*
X660630Y473157*
X660925Y473372*
X661516Y473479*
X662254*
X662992Y473372*
X663435Y473157*
X663583Y472835*
Y472620*
X663435Y472298*
X663140Y472190*
X520719Y547835D02*
X523819D01*
X520719D02*
Y548801D01*
X520866Y549123*
X521014Y549230*
X521309Y549338*
X521604*
X521900Y549230*
X522047Y549123*
X522195Y548801*
Y547835*
Y548586D02*
X523819Y549338D01*
X521457Y550412D02*
X521309D01*
X521014Y550519*
X520866Y550626*
X520719Y550841*
Y551271*
X520866Y551485*
X521014Y551593*
X521309Y551700*
X521604*
X521900Y551593*
X522343Y551378*
X523819Y550304*
Y551807*
X520719Y553418D02*
X520866Y553096D01*
X521309Y552881*
X522047Y552774*
X522490*
X523228Y552881*
X523671Y553096*
X523819Y553418*
Y553633*
X523671Y553955*
X523228Y554170*
X522490Y554277*
X522047*
X521309Y554170*
X520866Y553955*
X520719Y553633*
Y553418*
X674409Y567667D02*
Y564567D01*
Y567667D02*
X675376D01*
X675698Y567520*
X675805Y567372*
X675913Y567077*
Y566781*
X675805Y566486*
X675698Y566339*
X675376Y566191*
X674409*
X675161D02*
X675913Y564567D01*
X676879Y567077D02*
X677094Y567224D01*
X677416Y567667*
Y564567*
X678382Y567077D02*
X678597Y567224D01*
X678919Y567667*
Y564567*
X522687Y682677D02*
X525787D01*
X522687D02*
Y683644D01*
X522835Y683966*
X522982Y684073*
X523278Y684180*
X523573*
X523868Y684073*
X524016Y683966*
X524163Y683644*
Y682677*
Y683429D02*
X525787Y684180D01*
X523278Y685147D02*
X523130Y685361D01*
X522687Y685684*
X525787*
X523425Y686757D02*
X523278D01*
X522982Y686865*
X522835Y686972*
X522687Y687187*
Y687616*
X522835Y687831*
X522982Y687938*
X523278Y688046*
X523573*
X523868Y687938*
X524311Y687724*
X525787Y686650*
Y688153*
X682923Y705512D02*
X686024D01*
X682923D02*
Y706478D01*
X683071Y706800*
X683219Y706908*
X683514Y707015*
X683809*
X684104Y706908*
X684252Y706800*
X684400Y706478*
Y705512*
Y706263D02*
X686024Y707015D01*
X683514Y707981D02*
X683366Y708196D01*
X682923Y708518*
X686024*
X682923Y709699D02*
Y710880D01*
X684104Y710236*
Y710558*
X684252Y710773*
X684400Y710880*
X684843Y710988*
X685138*
X685581Y710880*
X685876Y710666*
X686024Y710344*
Y710021*
X685876Y709699*
X685728Y709592*
X685433Y709485*
X539102Y706791D02*
X538887Y707087D01*
X538565Y707234*
X538135*
X537813Y707087*
X537598Y706791*
Y706496*
X537706Y706201*
X537813Y706053*
X538028Y705906*
X538672Y705610*
X538887Y705463*
X538994Y705315*
X539102Y705020*
Y704577*
X538887Y704281*
X538565Y704134*
X538135*
X537813Y704281*
X537598Y704577*
X540283Y707234D02*
X541464D01*
X540820Y706053*
X541142*
X541356Y705906*
X541464Y705758*
X541571Y705315*
Y705020*
X541464Y704577*
X541249Y704281*
X540927Y704134*
X540605*
X540283Y704281*
X540175Y704429*
X540068Y704724*
X696582Y706791D02*
X696367Y707087D01*
X696045Y707234*
X695616*
X695293Y707087*
X695079Y706791*
Y706496*
X695186Y706201*
X695293Y706053*
X695508Y705906*
X696152Y705610*
X696367Y705463*
X696475Y705315*
X696582Y705020*
Y704577*
X696367Y704281*
X696045Y704134*
X695616*
X695293Y704281*
X695079Y704577*
X698622Y707234D02*
X697548Y705167D01*
X699159*
X698622Y707234D02*
Y704134D01*
X456890Y617864D02*
Y615650D01*
X456997Y615207*
X457212Y614911*
X457534Y614764*
X457749*
X458071Y614911*
X458286Y615207*
X458393Y615650*
Y617864*
X459359Y617274D02*
X459574Y617421D01*
X459896Y617864*
Y614764*
X441339Y706289D02*
Y704075D01*
X441446Y703632*
X441661Y703337*
X441983Y703189*
X442198*
X442520Y703337*
X442734Y703632*
X442842Y704075*
Y706289*
X443916Y705551D02*
Y705699D01*
X444023Y705994*
X444130Y706142*
X444345Y706289*
X444775*
X444989Y706142*
X445097Y705994*
X445204Y705699*
Y705404*
X445097Y705108*
X444882Y704665*
X443808Y703189*
X445311*
X463941Y666929D02*
X464048Y666634D01*
X464263Y666339*
X464477Y666191*
X464907*
X465122Y666339*
X465336Y666634*
X465444Y666929*
X465551Y667372*
Y668110*
X465444Y668553*
X465336Y668848*
X465122Y669144*
X464907Y669291*
X464477*
X464263Y669144*
X464048Y668848*
X463941Y668553*
X461901Y666191D02*
X462974Y668258D01*
X461364*
X461901Y666191D02*
Y669291D01*
X436256Y674606D02*
X436149Y674902D01*
X435934Y675197*
X435719Y675344*
X435290*
X435075Y675197*
X434860Y674902*
X434753Y674606*
X434646Y674163*
Y673425*
X434753Y672982*
X434860Y672687*
X435075Y672392*
X435290Y672244*
X435719*
X435934Y672392*
X436149Y672687*
X436256Y672982*
X438618Y675344D02*
X437545D01*
X437437Y674016*
X437545Y674163*
X437867Y674311*
X438189*
X438511Y674163*
X438726Y673868*
X438833Y673425*
X438726Y673130*
X438618Y672687*
X438404Y672392*
X438082Y672244*
X437759*
X437437Y672392*
X437330Y672539*
X437223Y672835*
X787241Y668307D02*
X787133Y668602D01*
X786918Y668898*
X786704Y669045*
X786274*
X786059Y668898*
X785845Y668602*
X785737Y668307*
X785630Y667864*
Y667126*
X785737Y666683*
X785845Y666388*
X786059Y666093*
X786274Y665945*
X786704*
X786918Y666093*
X787133Y666388*
X787241Y666683*
X788207Y668455D02*
X788422Y668602D01*
X788744Y669045*
Y665945*
X789925Y669045D02*
X791106D01*
X790462Y667864*
X790784*
X790999Y667717*
X791106Y667569*
X791213Y667126*
Y666831*
X791106Y666388*
X790891Y666093*
X790569Y665945*
X790247*
X789925Y666093*
X789817Y666240*
X789710Y666535*
X516285Y738632D02*
X516500Y738780D01*
X516714Y739075*
X516822Y739370*
X516929Y739813*
Y740551*
X516822Y740994*
X516714Y741289*
X516500Y741585*
X516285Y741732*
X515855*
X515641Y741585*
X515426Y741289*
X515319Y740994*
X515211Y740551*
Y739813*
X515319Y739370*
X515426Y739075*
X515641Y738780*
X515855Y738632*
X516285*
X515963Y741142D02*
X515319Y742028D01*
X514245Y739222D02*
X514030Y739075D01*
X513708Y738632*
Y741732*
X660482Y793558D02*
X660630Y793343D01*
X660925Y793128*
X661220Y793021*
X661663Y792913*
X662402*
X662844Y793021*
X663140Y793128*
X663435Y793343*
X663583Y793558*
Y793987*
X663435Y794202*
X663140Y794417*
X662844Y794524*
X662402Y794631*
X661663*
X661220Y794524*
X660925Y794417*
X660630Y794202*
X660482Y793987*
Y793558*
X662992Y793880D02*
X663878Y794524D01*
X661220Y795705D02*
X661073D01*
X660778Y795812*
X660630Y795920*
X660482Y796135*
Y796564*
X660630Y796779*
X660778Y796886*
X661073Y796994*
X661368*
X661663Y796886*
X662106Y796671*
X663583Y795598*
Y797101*
X784699Y698770D02*
X784485Y698622D01*
X784270Y698327*
X784162Y698031*
X784055Y697589*
Y696850*
X784162Y696407*
X784270Y696112*
X784485Y695817*
X784699Y695669*
X785129*
X785344Y695817*
X785558Y696112*
X785666Y696407*
X785773Y696850*
Y697589*
X785666Y698031*
X785558Y698327*
X785344Y698622*
X785129Y698770*
X784699*
X785021Y696260D02*
X785666Y695374D01*
X786954Y698770D02*
X788135D01*
X787491Y697589*
X787813*
X788028Y697441*
X788135Y697293*
X788243Y696850*
Y696555*
X788135Y696112*
X787921Y695817*
X787598Y695669*
X787276*
X786954Y695817*
X786847Y695965*
X786739Y696260*
X793057Y573081D02*
X793271Y573228D01*
X793486Y573524*
X793593Y573819*
X793701Y574262*
Y575000*
X793593Y575443*
X793486Y575738*
X793271Y576033*
X793057Y576181*
X792627*
X792412Y576033*
X792198Y575738*
X792090Y575443*
X791983Y575000*
Y574262*
X792090Y573819*
X792198Y573524*
X792412Y573228*
X792627Y573081*
X793057*
X792734Y575591D02*
X792090Y576476D01*
X789943Y573081D02*
X791016Y575148D01*
X789406*
X789943Y573081D02*
Y576181D01*
X619439Y489120D02*
X619291Y489334D01*
X618996Y489549*
X618701Y489656*
X618258Y489764*
X617520*
X617077Y489656*
X616781Y489549*
X616486Y489334*
X616339Y489120*
Y488690*
X616486Y488475*
X616781Y488261*
X617077Y488153*
X617520Y488046*
X618258*
X618701Y488153*
X618996Y488261*
X619291Y488475*
X619439Y488690*
Y489120*
X616929Y488797D02*
X616043Y488153D01*
X619439Y485684D02*
Y486757D01*
X618110Y486865*
X618258Y486757*
X618406Y486435*
Y486113*
X618258Y485791*
X617963Y485576*
X617520Y485469*
X617224Y485576*
X616781Y485684*
X616486Y485898*
X616339Y486220*
Y486543*
X616486Y486865*
X616634Y486972*
X616929Y487079*
X494631Y576230D02*
X494846Y576378D01*
X495061Y576673*
X495168Y576969*
X495276Y577411*
Y578150*
X495168Y578593*
X495061Y578888*
X494846Y579183*
X494631Y579331*
X494202*
X493987Y579183*
X493772Y578888*
X493665Y578593*
X493558Y578150*
Y577411*
X493665Y576969*
X493772Y576673*
X493987Y576378*
X494202Y576230*
X494631*
X494309Y578740D02*
X493665Y579626D01*
X491303Y576673D02*
X491410Y576378D01*
X491732Y576230*
X491947*
X492269Y576378*
X492484Y576821*
X492591Y577559*
Y578297*
X492484Y578888*
X492269Y579183*
X491947Y579331*
X491840*
X491518Y579183*
X491303Y578888*
X491195Y578445*
Y578297*
X491303Y577854*
X491518Y577559*
X491840Y577411*
X491947*
X492269Y577559*
X492484Y577854*
X492591Y578297*
X518898Y753396D02*
Y756496D01*
Y753396D02*
X517931D01*
X517609Y753543*
X517502Y753691*
X517394Y753986*
Y754281*
X517502Y754577*
X517609Y754724*
X517931Y754872*
X518898*
X518146D02*
X517394Y756496D01*
X516428Y753986D02*
X516213Y753839D01*
X515891Y753396*
Y756496*
X513851Y753396D02*
X514925Y755463D01*
X513314*
X513851Y753396D02*
Y756496D01*
X673278Y790945D02*
X676378D01*
X673278D02*
Y791911D01*
X673425Y792233*
X673573Y792341*
X673868Y792448*
X674163*
X674459Y792341*
X674606Y792233*
X674754Y791911*
Y790945*
Y791696D02*
X676378Y792448D01*
X673868Y793414D02*
X673720Y793629D01*
X673278Y793951*
X676378*
X673278Y796314D02*
Y795240D01*
X674606Y795132*
X674459Y795240*
X674311Y795562*
Y795884*
X674459Y796206*
X674754Y796421*
X675197Y796528*
X675492Y796421*
X675935Y796314*
X676230Y796099*
X676378Y795777*
Y795455*
X676230Y795132*
X676083Y795025*
X675787Y794918*
X775787Y684793D02*
Y681693D01*
Y684793D02*
X776754D01*
X777076Y684646*
X777183Y684498*
X777291Y684203*
Y683907*
X777183Y683612*
X777076Y683465*
X776754Y683317*
X775787*
X776539D02*
X777291Y681693D01*
X778257Y684203D02*
X778472Y684350D01*
X778794Y684793*
Y681693*
X781049Y684350D02*
X780941Y684646D01*
X780619Y684793*
X780404*
X780082Y684646*
X779868Y684203*
X779760Y683465*
Y682726*
X779868Y682136*
X780082Y681841*
X780404Y681693*
X780512*
X780834Y681841*
X781049Y682136*
X781156Y682579*
Y682726*
X781049Y683169*
X780834Y683465*
X780512Y683612*
X780404*
X780082Y683465*
X779868Y683169*
X779760Y682726*
X788780Y581841D02*
Y578740D01*
Y581841D02*
X789746D01*
X790068Y581693*
X790175Y581545*
X790283Y581250*
Y580955*
X790175Y580659*
X790068Y580512*
X789746Y580364*
X788780*
X789531D02*
X790283Y578740D01*
X791356Y581102D02*
Y581250D01*
X791464Y581545*
X791571Y581693*
X791786Y581841*
X792215*
X792430Y581693*
X792538Y581545*
X792645Y581250*
Y580955*
X792538Y580659*
X792323Y580217*
X791249Y578740*
X792752*
X793719Y581250D02*
X793933Y581398D01*
X794256Y581841*
Y578740*
X604675Y491732D02*
X601575D01*
X604675D02*
Y490766D01*
X604528Y490444*
X604380Y490336*
X604085Y490229*
X603789*
X603494Y490336*
X603346Y490444*
X603199Y490766*
Y491732*
Y490981D02*
X601575Y490229D01*
X603937Y489155D02*
X604085D01*
X604380Y489048*
X604528Y488941*
X604675Y488726*
Y488296*
X604528Y488082*
X604380Y487974*
X604085Y487867*
X603789*
X603494Y487974*
X603051Y488189*
X601575Y489263*
Y487759*
X603937Y486686D02*
X604085D01*
X604380Y486578*
X604528Y486471*
X604675Y486256*
Y485827*
X604528Y485612*
X604380Y485505*
X604085Y485397*
X603789*
X603494Y485505*
X603051Y485719*
X601575Y486793*
Y485290*
X498228Y589026D02*
Y592126D01*
Y589026D02*
X497262D01*
X496940Y589173*
X496832Y589321*
X496832D02*
X496725Y589616D01*
Y589911*
X496832Y590207*
X496832D02*
X496940Y590354D01*
X497262Y590502*
X498228*
X497477D02*
X496725Y592126D01*
X495651Y589764D02*
Y589616D01*
X495544Y589321*
X495437Y589173*
X495222Y589026*
X494792*
X494578Y589173*
X494470Y589321*
X494363Y589616*
Y589911*
X494470Y590207*
X494685Y590650*
X495759Y592126*
X494256*
X493074Y589026D02*
X491893D01*
X492538Y590207*
X492215*
X492001Y590354*
X491893Y590502*
X491786Y590945*
Y591240*
X491893Y591683*
X492108Y591978*
X492430Y592126*
X492752*
X493074Y591978*
X493182Y591831*
X493289Y591535*
X589754Y791102D02*
X586654D01*
X589754D02*
Y790351D01*
X589606Y790029*
X589311Y789814*
X589016Y789707*
X588573Y789599*
X587835*
X587392Y789707*
X587096Y789814*
X586801Y790029*
X586654Y790351*
Y791102*
X588720Y787237D02*
X588278Y787344D01*
X587982Y787559*
X587835Y787881*
Y787989*
X587982Y788311*
X588278Y788525*
X588720Y788633*
X588868*
X589311Y788525*
X589606Y788311*
X589754Y787989*
Y787881*
X589606Y787559*
X589311Y787344*
X588720Y787237*
X587982*
X587244Y787344*
X586801Y787559*
X586654Y787881*
Y788096*
X586801Y788418*
X587096Y788525*
X481348Y666929D02*
X484449D01*
X481348D02*
Y667895D01*
X481496Y668218*
X481644Y668325*
X481939Y668432*
X482234*
X482530Y668325*
X482677Y668218*
X482825Y667895*
Y666929*
Y667681D02*
X484449Y668432D01*
X481939Y669399D02*
X481791Y669613D01*
X481348Y669936*
X484449*
X470522Y665945D02*
X473622D01*
X470522D02*
Y666911D01*
X470669Y667233*
X470817Y667341*
X471112Y667448*
X471407*
X471703Y667341*
X471850Y667233*
X471998Y666911*
Y665945*
Y666696D02*
X473622Y667448D01*
X471260Y668522D02*
X471112D01*
X470817Y668629*
X470669Y668737*
X470522Y668951*
Y669381*
X470669Y669596*
X470817Y669703*
X471112Y669810*
X471407*
X471703Y669703*
X472146Y669488*
X473622Y668414*
Y669918*
X809646Y662366D02*
X809941Y662473D01*
X810236Y662688*
X810384Y662903*
Y663332*
X810236Y663547*
X809941Y663762*
X809646Y663869*
X809203Y663976*
X808465*
X808022Y663869*
X807726Y663762*
X807431Y663547*
X807283Y663332*
Y662903*
X807431Y662688*
X807726Y662473*
X808022Y662366*
X810384Y660755D02*
X810236Y660970D01*
X809941Y661185*
X809646Y661292*
X809203Y661399*
X808465*
X808022Y661292*
X807726Y661185*
X807431Y660970*
X807283Y660755*
Y660326*
X807431Y660111*
X807726Y659896*
X808022Y659789*
X808465Y659681*
X809203*
X809646Y659789*
X809941Y659896*
X810236Y660111*
X810384Y660326*
Y660755*
Y658715D02*
X807283D01*
X810384D02*
X807283Y657212D01*
X810384D02*
X807283D01*
X806693Y656246D02*
Y653991D01*
X809941Y652058D02*
X810236Y652165D01*
X810384Y652487*
Y652702*
X810236Y653024*
X809793Y653239*
X809055Y653346*
X808317*
X807726Y653239*
X807431Y653024*
X807283Y652702*
Y652595*
X807431Y652273*
X807726Y652058*
X808169Y651951*
X808317*
X808760Y652058*
X809055Y652273*
X809203Y652595*
Y652702*
X809055Y653024*
X808760Y653239*
X808317Y653346*
X806693Y650984D02*
Y648729D01*
X810384Y648085D02*
X807283D01*
X810384D02*
Y647334D01*
X810236Y647011*
X809941Y646797*
X809646Y646689*
X809203Y646582*
X808465*
X808022Y646689*
X807726Y646797*
X807431Y647011*
X807283Y647334*
Y648085*
X810384Y644971D02*
X810236Y645186D01*
X809941Y645401*
X809646Y645508*
X809203Y645616*
X808465*
X808022Y645508*
X807726Y645401*
X807431Y645186*
X807283Y644971*
Y644542*
X807431Y644327*
X807726Y644112*
X808022Y644005*
X808465Y643898*
X809203*
X809646Y644005*
X809941Y644112*
X810236Y644327*
X810384Y644542*
Y644971*
Y642931D02*
X807283Y642394D01*
X810384Y641858D02*
X807283Y642394D01*
X810384Y641858D02*
X807283Y641321D01*
X810384Y640784D02*
X807283Y641321D01*
X810384Y639817D02*
X807283D01*
X810384D02*
X807283Y638314D01*
X810384D02*
X807283D01*
X809793Y637348D02*
X809941Y637133D01*
X810384Y636811*
X807283*
X595079Y812956D02*
X595374Y813064D01*
X595669Y813278*
X595817Y813493*
Y813923*
X595669Y814137*
X595374Y814352*
X595079Y814460*
X594636Y814567*
X593898*
X593455Y814460*
X593159Y814352*
X592864Y814137*
X592717Y813923*
Y813493*
X592864Y813278*
X593159Y813064*
X593455Y812956*
X595817Y810487D02*
X592717Y811560D01*
X595817Y811990D02*
Y810487D01*
X572405Y766929D02*
X572513Y766634D01*
X572727Y766339*
X572942Y766191*
X573372*
X573586Y766339*
X573801Y766634*
X573908Y766929*
X574016Y767372*
Y768110*
X573908Y768553*
X573801Y768848*
X573586Y769144*
X573372Y769291*
X572942*
X572727Y769144*
X572513Y768848*
X572405Y768553*
X571439Y766781D02*
X571224Y766634D01*
X570902Y766191*
Y769291*
X576342Y776649D02*
X576450Y776353D01*
X576664Y776058*
X576879Y775910*
X577309*
X577523Y776058*
X577738Y776353*
X577845Y776649*
X577953Y777092*
Y777830*
X577845Y778273*
X577738Y778568*
X577523Y778863*
X577309Y779011*
X576879*
X576664Y778863*
X576450Y778568*
X576342Y778273*
X574839Y775910D02*
X575161Y776058D01*
X575268Y776353*
Y776649*
X575161Y776944*
X574946Y777092*
X574517Y777239*
X574195Y777387*
X573980Y777682*
X573873Y777977*
Y778420*
X573980Y778716*
X574087Y778863*
X574409Y779011*
X574839*
X575161Y778863*
X575268Y778716*
X575376Y778420*
Y777977*
X575268Y777682*
X575054Y777387*
X574732Y777239*
X574302Y777092*
X574087Y776944*
X573980Y776649*
Y776353*
X574087Y776058*
X574409Y775910*
X574839*
X606029Y817878D02*
X606324Y817985D01*
X606619Y818200*
X606767Y818414*
Y818844*
X606619Y819059*
X606324Y819273*
X606029Y819381*
X605586Y819488*
X604847*
X604405Y819381*
X604109Y819273*
X603814Y819059*
X603666Y818844*
Y818414*
X603814Y818200*
X604109Y817985*
X604405Y817878*
X606324Y815623D02*
X606619Y815730D01*
X606767Y816052*
Y816267*
X606619Y816589*
X606176Y816804*
X605438Y816911*
X604700*
X604109Y816804*
X603814Y816589*
X603666Y816267*
Y816160*
X603814Y815838*
X604109Y815623*
X604552Y815515*
X604700*
X605143Y815623*
X605438Y815838*
X605586Y816160*
Y816267*
X605438Y816589*
X605143Y816804*
X604700Y816911*
X534646Y796137D02*
Y793036D01*
Y796137D02*
X535612D01*
X535934Y795989*
X536042Y795842*
X536149Y795546*
Y795251*
X536042Y794956*
X535934Y794808*
X535612Y794660*
X534646*
X535397D02*
X536149Y793036D01*
X537115Y796137D02*
Y793036D01*
Y796137D02*
X538511D01*
X537115Y794660D02*
X537974D01*
X537115Y793036D02*
X538511D01*
X541088Y795399D02*
X540981Y795694D01*
X540766Y795989*
X540551Y796137*
X540122*
X539907Y795989*
X539692Y795694*
X539585Y795399*
X539477Y794956*
Y794218*
X539585Y793775*
X539692Y793479*
X539907Y793184*
X540122Y793036*
X540551*
X540766Y793184*
X540981Y793479*
X541088Y793775*
Y794218*
X540551D02*
X541088D01*
X542054Y795546D02*
X542269Y795694D01*
X542591Y796137*
Y793036*
X543558Y795546D02*
X543772Y795694D01*
X544094Y796137*
Y793036*
X545061Y795546D02*
X545276Y795694D01*
X545598Y796137*
Y793036*
X548067Y796137D02*
X546994Y793036D01*
X546564Y796137D02*
X548067D01*
X549034Y794365D02*
X550966D01*
X551933Y795546D02*
X552147Y795694D01*
X552470Y796137*
Y793036*
X836959Y669882D02*
X833858D01*
X836959D02*
Y668916D01*
X836811Y668593*
X836663Y668486*
X836368Y668379*
X836073*
X835778Y668486*
X835630Y668593*
X835482Y668916*
Y669882*
Y669130D02*
X833858Y668379D01*
X836368Y667412D02*
X836516Y667198D01*
X836959Y666875*
X833858*
X836959Y664406D02*
X833858Y665480D01*
X836959Y665909D02*
Y664406D01*
X506398Y706270D02*
Y709370D01*
Y706270D02*
X505646D01*
X505324Y706417*
X505109Y706713*
X505002Y707008*
X504894Y707451*
Y708189*
X505002Y708632*
X505109Y708927*
X505324Y709222*
X505646Y709370*
X506398*
X502640Y706713D02*
X502747Y706417D01*
X503069Y706270*
X503284*
X503606Y706417*
X503821Y706860*
X503928Y707598*
Y708337*
X503821Y708927*
X503606Y709222*
X503284Y709370*
X503176*
X502854Y709222*
X502640Y708927*
X502532Y708484*
Y708337*
X502640Y707894*
X502854Y707598*
X503176Y707451*
X503284*
X503606Y707598*
X503821Y707894*
X503928Y708337*
X637008Y807825D02*
Y804724D01*
Y807825D02*
X637759D01*
X638082Y807677*
X638296Y807382*
X638404Y807087*
X638511Y806644*
Y805906*
X638404Y805463*
X638296Y805167*
X638082Y804872*
X637759Y804724*
X637008*
X640981Y807825D02*
X639907Y804724D01*
X639477Y807825D02*
X640981D01*
X773524Y732470D02*
Y729370D01*
Y732470D02*
X774275D01*
X774597Y732323*
X774812Y732028*
X774919Y731732*
X775027Y731289*
Y730551*
X774919Y730108*
X774812Y729813*
X774597Y729518*
X774275Y729370*
X773524*
X776530Y732470D02*
X776208Y732323D01*
X776101Y732028*
Y731732*
X776208Y731437*
X776423Y731289*
X776852Y731142*
X777174Y730994*
X777389Y730699*
X777496Y730404*
Y729961*
X777389Y729665*
X777282Y729518*
X776960Y729370*
X776530*
X776208Y729518*
X776101Y729665*
X775993Y729961*
Y730404*
X776101Y730699*
X776315Y730994*
X776637Y731142*
X777067Y731289*
X777282Y731437*
X777389Y731732*
Y732028*
X777282Y732323*
X776960Y732470*
X776530*
X780709Y554872D02*
Y551772D01*
Y554872D02*
X781460D01*
X781782Y554724*
X781997Y554429*
X782105Y554134*
X782212Y553691*
Y552953*
X782105Y552510*
X781997Y552215*
X781782Y551919*
X781460Y551772*
X780709*
X783178Y554281D02*
X783393Y554429D01*
X783715Y554872*
Y551772*
X785326Y554872D02*
X785004Y554724D01*
X784789Y554281*
X784681Y553543*
Y553100*
X784789Y552362*
X785004Y551919*
X785326Y551772*
X785540*
X785863Y551919*
X786077Y552362*
X786185Y553100*
Y553543*
X786077Y554281*
X785863Y554724*
X785540Y554872*
X785326*
X634055Y475148D02*
Y472047D01*
Y475148D02*
X634807D01*
X635129Y475000*
X635344Y474705*
X635451Y474409*
X635558Y473967*
Y473228*
X635451Y472785*
X635344Y472490*
X635129Y472195*
X634807Y472047*
X634055*
X636525Y474557D02*
X636739Y474705D01*
X637062Y475148*
Y472047*
X638028Y474557D02*
X638243Y474705D01*
X638565Y475148*
Y472047*
X506181Y546545D02*
Y549646D01*
Y546545D02*
X505429D01*
X505107Y546693*
X504893Y546988*
X504785Y547283*
X504678Y547726*
Y548465*
X504785Y548907*
X504893Y549203*
X505107Y549498*
X505429Y549646*
X506181*
X503712Y547136D02*
X503497Y546988D01*
X503175Y546545*
Y549646*
X502101Y547283D02*
Y547136D01*
X501994Y546841*
X501886Y546693*
X501671Y546545*
X501242*
X501027Y546693*
X500920Y546841*
X500812Y547136*
Y547431*
X500920Y547726*
X501135Y548169*
X502208Y549646*
X500705*
X560326Y681841D02*
Y679478D01*
X560218Y679035*
X560111Y678888*
X559896Y678740*
X559681*
X559467Y678888*
X559359Y679035*
X559252Y679478*
Y679774*
X562795Y681841D02*
X561722Y678740D01*
X561292Y681841D02*
X562795D01*
X485320Y792555D02*
X486990Y795249D01*
X484571Y793858D02*
X487739Y793946D01*
X484550Y794961D02*
X484328Y795081D01*
X483822Y795161*
X486241Y796552*
X792645Y793684D02*
X795813Y793585D01*
X793399Y794985D02*
X795059Y792285D01*
X794512Y795580D02*
X794397Y795647D01*
X794221Y795873*
X794160Y796033*
X794153Y796285*
X794368Y796657*
X794591Y796776*
X794760Y796802*
X795044Y796762*
X795274Y796629*
X795450Y796402*
X795687Y796017*
X796298Y794421*
X797052Y795722*
X794601Y486185D02*
X792931Y483491D01*
X795350Y484882D02*
X792182Y484794D01*
X795939Y483858D02*
X796528Y482834D01*
X795285Y482863*
X795446Y482583*
X795437Y482331*
X795376Y482172*
X795084Y481880*
X794853Y481747*
X794454Y481642*
X794117Y481696*
X793841Y481909*
X793681Y482188*
X793635Y482533*
X793697Y482693*
X793874Y482918*
X487276Y485056D02*
X484108Y485155D01*
X486522Y483755D02*
X484862Y486455D01*
X485499Y481990D02*
X484428Y483852D01*
X483620Y482459*
X485499Y481990D02*
X483085Y483390D01*
X594685Y655266D02*
Y652165D01*
Y655266D02*
X595437D01*
X595759Y655118*
X595974Y654823*
X596081Y654528*
X596188Y654085*
Y653346*
X596081Y652904*
X595974Y652608*
X595759Y652313*
X595437Y652165*
X594685*
X598228Y655266D02*
X597155Y653199D01*
X598765*
X598228Y655266D02*
Y652165D01*
X547441Y655266D02*
Y652165D01*
Y655266D02*
X548193D01*
X548515Y655118*
X548729Y654823*
X548837Y654528*
X548944Y654085*
Y653346*
X548837Y652904*
X548729Y652608*
X548515Y652313*
X548193Y652165*
X547441*
X551306Y655266D02*
X550233D01*
X550125Y653937*
X550233Y654085*
X550555Y654232*
X550877*
X551199Y654085*
X551414Y653789*
X551521Y653346*
X551414Y653051*
X551306Y652608*
X551092Y652313*
X550770Y652165*
X550447*
X550125Y652313*
X550018Y652461*
X549911Y652756*
X736417Y655266D02*
Y652165D01*
Y655266D02*
X737169D01*
X737491Y655118*
X737706Y654823*
X737813Y654528*
X737921Y654085*
Y653346*
X737813Y652904*
X737706Y652608*
X737491Y652313*
X737169Y652165*
X736417*
X738887Y654675D02*
X739102Y654823D01*
X739424Y655266*
Y652165*
X689173Y655266D02*
Y652165D01*
Y655266D02*
X689925D01*
X690247Y655118*
X690462Y654823*
X690569Y654528*
X690676Y654085*
Y653346*
X690569Y652904*
X690462Y652608*
X690247Y652313*
X689925Y652165*
X689173*
X691750Y654528D02*
Y654675D01*
X691858Y654970*
X691965Y655118*
X692180Y655266*
X692609*
X692824Y655118*
X692931Y654970*
X693039Y654675*
Y654380*
X692931Y654085*
X692717Y653642*
X691643Y652165*
X693146*
X641929Y655266D02*
Y652165D01*
Y655266D02*
X642681D01*
X643003Y655118*
X643218Y654823*
X643325Y654528*
X643432Y654085*
Y653346*
X643325Y652904*
X643218Y652608*
X643003Y652313*
X642681Y652165*
X641929*
X644613Y655266D02*
X645795D01*
X645150Y654085*
X645472*
X645687Y653937*
X645795Y653789*
X645902Y653346*
Y653051*
X645795Y652608*
X645580Y652313*
X645258Y652165*
X644936*
X644613Y652313*
X644506Y652461*
X644399Y652756*
X662079Y572343D02*
X662294Y572047D01*
X662616Y571900*
X663046*
X663368Y572047*
X663583Y572343*
Y572638*
X663475Y572933*
X663368Y573081*
X663153Y573228*
X662509Y573524*
X662294Y573671*
X662187Y573819*
X662079Y574114*
Y574557*
X662294Y574852*
X662616Y575000*
X663046*
X663368Y574852*
X663583Y574557*
X661006Y572638D02*
Y572490D01*
X660898Y572195*
X660791Y572047*
X660576Y571900*
X660147*
X659932Y572047*
X659825Y572195*
X659717Y572490*
Y572785*
X659825Y573081*
X660039Y573524*
X661113Y575000*
X659610*
G74*
X0Y0D02*
M02*
