*
*
G04 PADS VX.2 Build Number: 5060570 generated Gerber (RS-274-X) file*
G04 PC Version=2.1*
*
%IN "MASTER_rev3.pcb"*%
*
%MOIN*%
*
%FSLAX35Y35*%
*
*
*
*
G04 PC Standard Apertures*
*
*
G04 Thermal Relief Aperture macro.*
%AMTER*
1,1,$1,0,0*
1,0,$1-$2,0,0*
21,0,$3,$4,0,0,45*
21,0,$3,$4,0,0,135*
%
*
*
G04 Annular Aperture macro.*
%AMANN*
1,1,$1,0,0*
1,0,$2,0,0*
%
*
*
G04 Odd Aperture macro.*
%AMODD*
1,1,$1,0,0*
1,0,$1-0.005,0,0*
%
*
*
G04 PC Custom Aperture Macros*
*
*
*
*
*
*
G04 PC Aperture Table*
*
%ADD010C,0.001*%
%ADD034C,0.00787*%
%ADD039C,0.06906*%
%ADD040R,0.04937X0.04937*%
%ADD041R,0.02772X0.04937*%
%ADD042R,0.04937X0.02772*%
%ADD043O,0.22654X0.08874*%
%ADD045C,0.24622*%
%ADD052R,0.0848X0.06512*%
%ADD054C,0.07*%
%ADD055R,0.046X0.046*%
%ADD056R,0.06X0.046*%
%ADD057R,0.046X0.06*%
%ADD071R,0.10843X0.10843*%
%ADD072C,0.10843*%
%ADD073C,0.0789*%
%ADD074C,0.18717*%
%ADD075R,0.07614X0.08087*%
%ADD076R,0.10843X0.20685*%
%ADD077O,0.10843X0.20685*%
%ADD078R,0.06512X0.0848*%
%ADD086R,0.20685X0.08874*%
%ADD087R,0.10055X0.08874*%
%ADD088R,0.04937X0.10449*%
%ADD089R,0.13992X0.10449*%
*
*
*
*
G04 PC Circuitry*
G04 Layer Name MASTER_rev3.pcb - circuitry*
%LPD*%
*
*
G04 PC Custom Flashes*
G04 Layer Name MASTER_rev3.pcb - flashes*
%LPD*%
*
*
G04 PC Circuitry*
G04 Layer Name MASTER_rev3.pcb - circuitry*
%LPD*%
*
G54D10*
G54D34*
G01X872244Y639370D02*
G75*
G03X872244I-232283J0D01*
G54D39*
G01X639961Y529724D03*
Y565157D03*
G54D40*
X676772Y577362D03*
X683465D03*
X530709Y689173D03*
Y695866D03*
X675394Y708071D03*
Y714764D03*
X505118Y632087D03*
Y638780D03*
X442126Y630118D03*
Y636811D03*
X434252Y630118D03*
Y636811D03*
X497835Y710236D03*
X504528D03*
X731102Y666929D03*
X737795D03*
X683858D03*
X690551D03*
X636614D03*
X643307D03*
X589370D03*
X596063D03*
X542126D03*
X548819D03*
X612992Y817520D03*
X619685D03*
X765157Y742323D03*
Y735630D03*
X759252Y568307D03*
Y561614D03*
X662402Y475394D03*
Y482087D03*
X521850Y554921D03*
Y561614D03*
X676772Y570472D03*
X683465D03*
X523819Y689173D03*
Y695866D03*
X684055Y708071D03*
Y714764D03*
X463189Y673622D03*
X456496D03*
X442323D03*
X449016D03*
X794094Y666929D03*
X800787D03*
X510630Y754331D03*
X503937D03*
X674606Y799409D03*
Y806102D03*
X785039Y684252D03*
X791732D03*
X798031Y580315D03*
X804724D03*
X602559Y482874D03*
Y476181D03*
X488189Y590157D03*
X481496D03*
X488386Y667520D03*
Y674213D03*
X477559Y667520D03*
Y674213D03*
X594685Y805118D03*
Y798425D03*
X565551Y768307D03*
X558858D03*
X829921Y667323D03*
Y660630D03*
X504744Y719370D03*
X498051D03*
X636614Y799370D03*
X643307D03*
X775177Y719370D03*
X781870D03*
X775177Y559370D03*
X781870D03*
X643307Y479370D03*
X636614D03*
X504528Y559646D03*
X497835D03*
X589370Y659055D03*
X596063D03*
X542126D03*
X548819D03*
X731102D03*
X737795D03*
X683858D03*
X690551D03*
X636614D03*
X643307D03*
G54D41*
X464764Y617717D03*
X467913D03*
X471063D03*
X474213D03*
X477362D03*
X480512D03*
X483661D03*
X486811D03*
Y650787D03*
X483661D03*
X480512D03*
X477362D03*
X474213D03*
X471063D03*
X467913D03*
X464764D03*
G54D42*
X459252Y645276D03*
Y642126D03*
Y638976D03*
Y635827D03*
Y632677D03*
Y629528D03*
Y626378D03*
Y623228D03*
X492323D03*
Y626378D03*
Y629528D03*
Y632677D03*
Y635827D03*
Y638976D03*
Y642126D03*
Y645276D03*
G54D43*
X446654Y688189D03*
X486024D03*
G54D45*
X486417Y792913D03*
X793504D03*
Y485827D03*
X486417D03*
G54D52*
X604528Y809252D03*
Y798228D03*
G54D54*
X817520Y667323D03*
Y657323D03*
Y647323D03*
Y637323D03*
Y627323D03*
Y617323D03*
G54D55*
X510640Y746813D03*
X503140D03*
X667483Y799793D03*
Y807293D03*
X784242Y691769D03*
X791742D03*
X785443Y581262D03*
X777943D03*
X609683Y483278D03*
Y475778D03*
X488593Y584215D03*
X481093D03*
G54D56*
X659483Y803543D03*
X617683Y479528D03*
G54D57*
X506890Y738813D03*
X787992Y699769D03*
X781693Y573262D03*
X484843Y576215D03*
G54D71*
X536024Y741142D03*
X693504D03*
G54D72*
X536024Y721457D03*
X586417Y741142D03*
Y721457D03*
X693504D03*
X743898Y741142D03*
Y721457D03*
G54D73*
X470741Y721157D03*
X475663Y729681D03*
X479600Y736500D03*
X484521Y745024D03*
X626181Y826811D03*
X636024D03*
X643898D03*
X653740D03*
X795400Y745024D03*
X800322Y736500D03*
X804259Y729681D03*
X809180Y721157D03*
Y557583D03*
X804259Y549059D03*
X800322Y542240D03*
X795400Y533716D03*
X653740Y451929D03*
X643898D03*
X636024D03*
X626181D03*
X484521Y533716D03*
X479600Y542240D03*
X475663Y549059D03*
X470741Y557583D03*
G54D74*
X481324Y760826D03*
X455458Y716024D03*
X665827Y837480D03*
X614094D03*
X824463Y716024D03*
X798597Y760826D03*
Y517914D03*
X824463Y562716D03*
X614094Y441260D03*
X665827D03*
X455458Y562716D03*
X481324Y517914D03*
G54D75*
X596654Y788583D03*
Y773622D03*
G54D76*
X621260Y785039D03*
G54D77*
X639961D03*
X658661D03*
G54D78*
X565748Y778150D03*
X554724D03*
G54D86*
X728543Y690551D03*
X551378D03*
G54D87*
X667520Y537992D03*
Y557677D03*
X612402Y537992D03*
Y557677D03*
G54D88*
X557087Y792323D03*
X566142D03*
X575197D03*
G54D89*
X566142Y815157D03*
G74*
X0Y0D02*
M02*
