*
*
G04 PADS VX.2 Build Number: 5060570 generated Gerber (RS-274-X) file*
G04 PC Version=2.1*
*
%IN "MASTER_rev3.pcb"*%
*
%MOIN*%
*
%FSLAX35Y35*%
*
*
*
*
G04 PC Standard Apertures*
*
*
G04 Thermal Relief Aperture macro.*
%AMTER*
1,1,$1,0,0*
1,0,$1-$2,0,0*
21,0,$3,$4,0,0,45*
21,0,$3,$4,0,0,135*
%
*
*
G04 Annular Aperture macro.*
%AMANN*
1,1,$1,0,0*
1,0,$2,0,0*
%
*
*
G04 Odd Aperture macro.*
%AMODD*
1,1,$1,0,0*
1,0,$1-0.005,0,0*
%
*
*
G04 PC Custom Aperture Macros*
*
*
*
*
*
*
G04 PC Aperture Table*
*
%ADD010C,0.001*%
%ADD034C,0.00787*%
%ADD039C,0.06906*%
%ADD045C,0.24622*%
%ADD054C,0.07*%
%ADD071R,0.10843X0.10843*%
%ADD072C,0.10843*%
%ADD073C,0.0789*%
%ADD074C,0.18717*%
%ADD076R,0.10843X0.20685*%
%ADD077O,0.10843X0.20685*%
%ADD086R,0.20685X0.08874*%
*
*
*
*
G04 PC Circuitry*
G04 Layer Name MASTER_rev3.pcb - circuitry*
%LPD*%
*
*
G04 PC Custom Flashes*
G04 Layer Name MASTER_rev3.pcb - flashes*
%LPD*%
*
*
G04 PC Circuitry*
G04 Layer Name MASTER_rev3.pcb - circuitry*
%LPD*%
*
G54D10*
G54D34*
G01X872244Y639370D02*
G75*
G03X872244I-232283J0D01*
G54D39*
G01X639961Y529724D03*
Y565157D03*
G54D45*
X486417Y792913D03*
X793504D03*
Y485827D03*
X486417D03*
G54D54*
X817520Y667323D03*
Y657323D03*
Y647323D03*
Y637323D03*
Y627323D03*
Y617323D03*
G54D71*
X536024Y741142D03*
X693504D03*
G54D72*
X536024Y721457D03*
X586417Y741142D03*
Y721457D03*
X693504D03*
X743898Y741142D03*
Y721457D03*
G54D73*
X470741Y721157D03*
X475663Y729681D03*
X479600Y736500D03*
X484521Y745024D03*
X626181Y826811D03*
X636024D03*
X643898D03*
X653740D03*
X795400Y745024D03*
X800322Y736500D03*
X804259Y729681D03*
X809180Y721157D03*
Y557583D03*
X804259Y549059D03*
X800322Y542240D03*
X795400Y533716D03*
X653740Y451929D03*
X643898D03*
X636024D03*
X626181D03*
X484521Y533716D03*
X479600Y542240D03*
X475663Y549059D03*
X470741Y557583D03*
G54D74*
X481324Y760826D03*
X455458Y716024D03*
X665827Y837480D03*
X614094D03*
X824463Y716024D03*
X798597Y760826D03*
Y517914D03*
X824463Y562716D03*
X614094Y441260D03*
X665827D03*
X455458Y562716D03*
X481324Y517914D03*
G54D76*
X621260Y785039D03*
G54D77*
X639961D03*
X658661D03*
G54D86*
X728543Y690551D03*
X551378D03*
G74*
X0Y0D02*
M02*
