M48
;FILE_FORMAT=2:4
INCH,LZ
FMAT,2
ICI,OFF
;TYPE=PLATED
T1C.01181
T2C.01969
T3C.02362
T4C.035
T5C.04331
T6C.04724
T8C.10236
T9C.1811
;TYPE=NON_PLATED
T7C.05906
%
M72
G90
G93X0Y0
T1C.01181F095S3
X047461Y057736
X043445Y059803
X042933Y062953
X045492Y062953
X042559Y064882
X047165Y06561
X046772Y065906
X047461Y066201
X043209Y069429
X049724Y070433
X051791Y069547
X049626Y067382
X052087Y066201
X05248Y065906
X052087Y06561
X051398Y063839
X050512Y062657
X05124Y060157
X050512Y059016
X051063Y057618
X049469Y054075
X051181Y046634
X051772Y046043
X052303Y045571
X055492Y044272
X054429Y044626
X053484Y044921
X056319Y049469
X054193Y050531
X055256Y051181
X053425Y051831
X056496Y057736
X055551Y058268
X05561Y063819
X057146Y066299
X05561Y066654
X053071Y070138
X056614Y07624
X053012Y076988
X054134Y082362
X059094Y083189
X060866Y070374
X059862Y070079
X057559Y06878
X060157Y06813
X060276Y066713
X060276Y063701
X058091Y062283
X060866Y059272
X05815Y057736
X057795Y055787
X061634Y046988
X057795Y043799
X064173Y058031
X063996Y059035
X067244Y061929
X062992Y061988
X065059Y063642
X065059Y066713
X062756Y068307
X06435Y071791
X062638Y072441
X063583Y075157
X064469Y084843
X069547Y083484
X070551Y080591
X070669Y078996
X071201Y078228
X068661Y077756
X068661Y075689
X067953Y068839
X069724Y066654
X069724Y063642
X0725Y062343
X071437Y057382
X071555Y056142
X070846Y049941
X069843Y048228
X072972Y049882
X075512Y05248
X073681Y058976
X077106Y060807
X074449Y066713
X079547Y070728
T2C.01969F095S3
X046988Y067953
X049626Y074665
X058386Y077343
X064055Y081004
X069783Y057677
X064646Y054606
T3C.02362F197S55
X062126Y077795G85X062126Y079213
X063996Y077756G85X063996Y079252
X065866Y077756G85X065866Y079252
X073524Y069055G85X072185Y069055
X055807Y069055G85X054469Y069055
T4C.035F197S55
X081752Y061732
X081752Y062732
X081752Y063732
X081752Y064732
X081752Y065732
X081752Y066732
T5C.04331F139S55
X048452Y053372
X04796Y054224
X047566Y054906
X047074Y055758
X047074Y072116
X047566Y072968
X04796Y07365
X048452Y074502
X062618Y082681
X063602Y082681
X06439Y082681
X06439Y045193
X063602Y045193
X062618Y045193
X065374Y045193
X07954Y053372
X080032Y054224
X080032Y07365
X07954Y074502
X065374Y082681
X080426Y072968
X080918Y072116
X080918Y055758
X080426Y054906
T6C.04724F139S55
X053602Y072146
X058642Y072146
X058642Y074114
X053602Y074114
X06935Y074114
X07439Y074114
X06935Y072146
X07439Y072146
T7C.05906F107S55
X063996Y052972
X063996Y056516
T8C.10236F069S658
X048132Y051791
X045546Y056272
X045546Y071602
X048132Y076083
X061409Y083748
X066583Y083748
X066583Y044126
X061409Y044126
X07986Y051791
X082446Y056272
X082446Y071602
X07986Y076083
T9C.1811F035S1033
X048642Y048583
X048642Y079291
X07935Y079291
X07935Y048583
M30
